SplineFontDB: 3.2
FontName: ZameroSans-ExtraLight
FullName: Zamero Sans ExtraLight
FamilyName: Zamero Sans
Weight: ExtraLight
Copyright: Copyright (c) 2024-2025, Zamero Type Foundry
UComments: "2024-1-17: Created with FontForge (http://fontforge.org)+AAoACgAK-Instead of Charlie and the Alphabet and Charlie and the Numbers, how about Charlie and the Fonts? :)"
Version: 001.100
ItalicAngle: 0
UnderlinePosition: -100
UnderlineWidth: 50
Ascent: 800
Descent: 200
InvalidEm: 0
LayerCount: 2
Layer: 0 0 "Back" 1
Layer: 1 0 "Fore" 0
XUID: [1021 474 1118879153 20760]
StyleMap: 0x0000
FSType: 0
OS2Version: 0
OS2_WeightWidthSlopeOnly: 0
OS2_UseTypoMetrics: 1
CreationTime: 1705525712
ModificationTime: 1743186903
PfmFamily: 33
TTFWeight: 200
TTFWidth: 5
LineGap: 90
VLineGap: 90
OS2TypoAscent: 0
OS2TypoAOffset: 1
OS2TypoDescent: 0
OS2TypoDOffset: 1
OS2TypoLinegap: 90
OS2WinAscent: 0
OS2WinAOffset: 1
OS2WinDescent: 0
OS2WinDOffset: 1
HheadAscent: 0
HheadAOffset: 1
HheadDescent: 0
HheadDOffset: 1
OS2Vendor: 'ZAM '
Lookup: 1 0 0 "Single Substitution lookup 5" { "Single Substitution lookup 5 subtable"  } []
Lookup: 1 0 0 "Single Substitution lookup 6" { "Single Substitution lookup 6 subtable"  } []
Lookup: 1 0 0 "'ss15' Style Set 15 lookup 20" { "'ss15' Style Set 15 lookup 20-1" ("ss15") } ['ss15' ('DFLT' <'dflt' > 'grek' <'dflt' > 'latn' <'dflt' > ) ]
Lookup: 1 0 0 "'ss14' Style Set 14 lookup 19" { "'ss14' Style Set 14 lookup 19-1" ("ss14") } ['ss14' ('DFLT' <'dflt' > 'grek' <'dflt' > 'latn' <'dflt' > ) ]
Lookup: 1 0 0 "'onum' Oldstyle Figures lookup 18" { "'onum' Oldstyle Figures lookup 18-1" ("osf") } ['onum' ('DFLT' <'dflt' > 'grek' <'dflt' > 'latn' <'dflt' > ) ]
Lookup: 1 0 0 "'tnum' Tabular Numbers lookup 17" { "'tnum' Tabular Numbers lookup 17-1" ("tf") } ['tnum' ('DFLT' <'dflt' > 'grek' <'dflt' > 'latn' <'dflt' > ) ]
Lookup: 1 0 0 "'dnom' Denominators lookup 0" { "'dnom' Denominators lookup 0 subtable" ("dnom") } ['dnom' ('DFLT' <'dflt' > 'latn' <'dflt' > ) ]

StartChar: I
Encoding: 73 73 0
Width: 434
Flags: W
HStem: 0 64.25<46.5 180.6 253.4 387.5> 30 34.25<180.6 253.4> 665.75 65.25<46.5 180.6 253.4 387.5> 665.75 35.25<180.6 253.4>
VStem: 180.6 72.8<30 701>
LayerCount: 2
Fore
SplineSet
387.5 0 m 1x88
 46.5 0 l 1
 46.5 64.25 l 1
 387.5 64.25 l 1
 387.5 0 l 1x88
387.5 665.75 m 1x28
 46.5 665.75 l 1
 46.5 731 l 1
 387.5 731 l 1
 387.5 665.75 l 1x28
180.6 30 m 1x58
 180.6 701 l 1
 253.4 701 l 1
 253.4 30 l 1
 180.6 30 l 1x58
EndSplineSet
EndChar

StartChar: O
Encoding: 79 79 1
Width: 797
Flags: W
HStem: -9.99805 69.3517<282.974 514.804> 669.769 69.3517<282.974 514.804>
VStem: 51.9725 74.0686<226.896 502.227> 671.736 74.0686<226.896 502.227>
LayerCount: 2
Back
SplineSet
104.848632812 364.561523438 m 0
 104.848632812 169.015917071 203.263968617 38.4638671875 398.888671875 38.4638671875 c 4
 594.513375133 38.4638671875 692.928710938 169.015917071 692.928710938 364.561523438 c 0
 692.928710938 560.107129798 594.513375133 690.659179688 398.888671875 690.659179688 c 0
 203.263968617 690.659179688 104.848632812 560.107129798 104.848632812 364.561523438 c 0
55 364.561523438 m 0
 55 591.206054688 185.120861123 739.12109375 398.888671875 739.12109375 c 0
 612.656482627 739.12109375 742.77734375 591.206054688 742.77734375 364.561523438 c 0
 742.77734375 137.916992188 612.656482627 -9.998046875 398.888671875 -9.998046875 c 0
 185.120861123 -9.998046875 55 137.916992188 55 364.561523438 c 0
EndSplineSet
Fore
SplineSet
126.041132812 364.561523438 m 0
 126.041132812 181.542529122 216.124375716 59.3536171876 398.888671875 59.3536171876 c 0
 581.652968034 59.3536171876 671.736210938 181.542529122 671.736210938 364.561523438 c 0
 671.736210938 547.580517748 581.652968034 669.769429688 398.888671875 669.769429688 c 0
 216.124375716 669.769429688 126.041132812 547.580517748 126.041132812 364.561523438 c 0
51.9725 364.561523438 m 0
 51.9725 591.206054688 183.23890891 739.12109375 398.888671875 739.12109375 c 0
 614.53843484 739.12109375 745.80484375 591.206054688 745.80484375 364.561523438 c 0
 745.80484375 137.916992188 614.53843484 -9.998046875 398.888671875 -9.998046875 c 0
 183.23890891 -9.998046875 51.9725 137.916992188 51.9725 364.561523438 c 0
EndSplineSet
EndChar

StartChar: H
Encoding: 72 72 2
Width: 719
Flags: W
HStem: 0 21G<71.9725 145.192 573.808 647.028> 325.918 64.165<102.11 601.89> 711.008 20G<71.9725 145.192 573.808 647.028>
VStem: 71.9725 73.22<0 325.918 390.082 731.008> 102.11 43.0825<325.918 390.082> 573.808 73.22<0 325.918 390.082 731.008> 573.808 28.0825<325.918 390.082>
LayerCount: 2
Fore
SplineSet
601.89 325.9175 m 1xea
 102.11 325.9175 l 1
 102.11 390.0825 l 1
 601.89 390.0825 l 1
 601.89 325.9175 l 1xea
573.8075 0 m 1xe4
 573.8075 731.0078125 l 1
 647.0275 731.0078125 l 1
 647.0275 0 l 1
 573.8075 0 l 1xe4
71.9725 0 m 1xf0
 71.9725 731.0078125 l 1
 145.1925 731.0078125 l 1
 145.1925 0 l 1
 71.9725 0 l 1xf0
EndSplineSet
EndChar

StartChar: V
Encoding: 86 86 4
Width: 699
Flags: W
HStem: 0 21G<303.342 405.384> 711.008 20G<21.9725 106.541 592.709 677.028>
LayerCount: 2
Fore
SplineSet
311.257 0 m 1
 21.9725 731.0078125 l 1
 98.798 731.0078125 l 1
 353.606445312 72.8225859377 l 1
 600.202 731.0078125 l 1
 677.0275 731.0078125 l 1
 397.743 0 l 1
 311.257 0 l 1
EndSplineSet
EndChar

StartChar: D
Encoding: 68 68 5
Width: 727
Flags: W
HStem: 0 65.8468<145.192 430.753> 665.154 65.8536<145.192 431.206>
VStem: 71.9725 73.22<65.8468 665.154> 601.736 74.0686<229.884 499.333>
LayerCount: 2
Fore
SplineSet
71.9725 0 m 1
 71.9725 731.0078125 l 1
 308.888671875 731.0078125 l 2
 501.941054756 731.0078125 675.80484375 631.206054688 675.80484375 364.561523438 c 0
 675.80484375 97.9169921872 500.811137386 -2.35040032733e-14 308.888671875 0 c 2
 71.9725 0 l 1
145.1925 665.154164062 m 1
 145.1925 65.8468125 l 1
 145.1925 65.8468125 283.888671875 65.9571640623 283.888671875 65.9571640623 c 2
 465.856236542 66.1072725895 601.736210938 133.595324261 601.736210938 364.561523438 c 0
 601.736210938 594.922899136 465.856246366 664.909903878 283.888671875 665.050648438 c 2
 145.1925 665.154164062 l 1
EndSplineSet
EndChar

StartChar: U
Encoding: 85 85 6
Width: 719
Flags: W
HStem: -9.99805 70.0489<245.031 470.746> 711.008 20G<71.9725 145.192 570.585 643.805>
VStem: 71.9725 73.22<165.664 731.008> 570.585 73.22<165.664 731.008>
LayerCount: 2
Fore
SplineSet
357.888671875 -9.998046875 m 0
 144.363704035 -9.998046875 71.9725 107.882575267 71.9725 288.506523438 c 2
 71.9725 731.0078125 l 1
 145.1925 731.0078125 l 1
 145.1925 304.561523438 l 2
 145.1925 157.939848541 181.490580495 60.0508671876 357.888671875 60.0508671876 c 0
 534.286763255 60.0508671876 570.58484375 157.939848541 570.58484375 304.561523438 c 2
 570.58484375 731.0078125 l 1
 643.80484375 731.0078125 l 1
 643.80484375 288.506523438 l 2
 643.80484375 107.882575267 571.413639715 -9.998046875 357.888671875 -9.998046875 c 0
EndSplineSet
EndChar

StartChar: L
Encoding: 76 76 7
Width: 568
Flags: W
HStem: 0 65.6787<145.192 544> 711.008 20G<71.9725 145.192>
VStem: 71.9725 73.22<65.6787 731.008>
LayerCount: 2
Fore
SplineSet
145.1925 65.67875 m 1
 544 65.67875 l 1
 544 0 l 1
 71.9725 0 l 1
 71.9725 731.0078125 l 1
 145.1925 731.0078125 l 1
 145.1925 65.67875 l 1
EndSplineSet
EndChar

StartChar: F
Encoding: 70 70 8
Width: 574
Flags: W
HStem: 0 21G<71.9725 145.192> 315.863 66.1925<102.11 460.055> 665.329 65.6788<145.192 520.055>
VStem: 71.9725 73.22<0 315.863 382.055 665.329> 102.11 43.0825<315.863 382.055>
LayerCount: 2
Fore
SplineSet
460.055 315.8625 m 1xe8
 102.11 315.8625 l 1
 102.11 382.055 l 1
 460.055 382.055 l 1
 460.055 315.8625 l 1xe8
145.1925 665.3290625 m 1xf0
 145.1925 0 l 1
 71.9725 0 l 1
 71.9725 731.0078125 l 1
 520.055 731.0078125 l 1
 520.055 665.3290625 l 1
 145.1925 665.3290625 l 1xf0
EndSplineSet
EndChar

StartChar: C
Encoding: 67 67 9
Width: 667
Flags: W
HStem: -9.99805 66.5627<289.407 551.133> 672.558 66.5627<291.58 535.963>
VStem: 51.9725 73.0462<227.29 500.499>
LayerCount: 2
Fore
SplineSet
51.9725 360.561523438 m 0
 51.9725 589.626439045 180.162144577 739.12109375 405.888671875 739.12109375 c 0
 559.657299173 739.12109375 632.709140625 672.891601562 632.709140625 672.891601562 c 1
 603.11696875 612.946171875 l 1
 603.11696875 612.946171875 535.624589804 672.558429688 419.888671875 672.558429688 c 0
 213.330533608 672.558429688 125.018701172 547.651565473 125.018701172 360.561523438 c 0
 125.018701172 178.268709532 217.522715036 56.5646171876 412.916171875 56.5646171876 c 0
 542.803148549 56.5646171876 611.596554688 105.485453125 611.596554688 105.485453125 c 1
 611.596554688 105.485453125 635.854648438 44.595703125 635.854648438 44.595703125 c 1
 635.854648438 44.595703125 565.609764073 -9.998046875 405.888671875 -9.998046875 c 0
 180.162144577 -9.998046875 51.9725 136.337376545 51.9725 360.561523438 c 0
EndSplineSet
Substitution2: "'ss12' Style Set 12 lookup 13-1" C.ss12
EndChar

StartChar: E
Encoding: 69 69 10
Width: 579
Flags: W
HStem: 0 65.6787<145.192 532.028> 334.89 67.1925<109.082 472.027> 665.329 65.6788<145.192 532.028>
VStem: 109.082 36.11<334.89 402.082>
LayerCount: 2
Fore
SplineSet
472.0275 334.89 m 1
 109.0825 334.89 l 1
 109.0825 402.0825 l 1
 472.0275 402.0825 l 1
 472.0275 334.89 l 1
145.1925 665.3290625 m 1
 145.1925 65.67875 l 1
 532.0275 65.67875 l 1
 532.0275 0 l 1
 71.9725 0 l 1
 71.9725 731.0078125 l 1
 532.0275 731.0078125 l 1
 532.0275 665.3290625 l 1
 145.1925 665.3290625 l 1
EndSplineSet
EndChar

StartChar: N
Encoding: 78 78 11
Width: 719
Flags: W
HStem: 0 21G<71.9725 144.587 554.576 647.028> 711.008 20G<71.9725 164.552 574.413 647.028>
VStem: 71.9725 72.6145<0 612.62> 574.413 72.6145<124.012 731.008>
LayerCount: 2
Fore
SplineSet
71.9725 0 m 1
 71.9725 731.0078125 l 1
 150.587 731.0078125 l 1
 574.413 124.012109375 l 1
 574.413 731.0078125 l 1
 647.0275 731.0078125 l 1
 647.0275 0 l 1
 568.413 0 l 1
 144.587 612.619882812 l 1
 144.587 0 l 1
 71.9725 0 l 1
EndSplineSet
EndChar

StartChar: M
Encoding: 77 77 12
Width: 830
Flags: W
HStem: 0 21G<71.9725 145.192 684.808 758.028> 711.008 20G<71.9725 175.907 654.093 758.028>
VStem: 71.9725 73.22<0 626.565> 684.808 73.22<0 626.565>
LayerCount: 2
Fore
SplineSet
71.9725 0 m 1
 71.9725 731.0078125 l 1
 165.1925 731.0078125 l 1
 415 264.691109375 l 1
 664.8075 731.0078125 l 1
 758.0275 731.0078125 l 1
 758.0275 0 l 1
 684.8075 0 l 1
 684.8075 626.564882812 l 1
 444.0825 180 l 1
 385.9175 180 l 1
 145.1925 626.564882812 l 1
 145.1925 0 l 1
 71.9725 0 l 1
EndSplineSet
EndChar

StartChar: G
Encoding: 71 71 13
Width: 789
Flags: W
HStem: -9.99805 66.5627<289.415 516.938> 321.918 62.6787<412.973 590.881 659.699 747.028> 321.918 23.5957<590.881 659.699> 672.558 66.5627<294.258 539.083>
VStem: 51.9725 72.349<229.696 499.427> 611.619 67.9182<140.677 320.473>
LayerCount: 2
Fore
SplineSet
747.0275 321.9175 m 1xdc
 412.9725 321.9175 l 1
 412.9725 384.59625 l 1
 747.0275 384.59625 l 1
 747.0275 321.9175 l 1xdc
51.9725 364.561523438 m 0
 51.9725 591.206054688 187.02271663 739.12109375 408.888671875 739.12109375 c 0
 578.133853231 739.12109375 647.709140625 663.891601562 647.709140625 663.891601562 c 1
 617.30046875 605.065421875 l 1
 617.30046875 605.065421875 550.774622179 672.558429688 415.888671875 672.558429688 c 0
 220.828496328 672.558429688 124.321533203 549.252951406 124.321533203 364.561523438 c 0
 124.321533203 179.870095465 217.19399287 56.5646171876 406.888671875 56.5646171876 c 0
 545.698697088 56.5646171876 611.619195312 125.923998049 611.619195312 230.0275 c 0
 611.619195312 303.82604726 590.881054688 345.513203125 590.881054688 345.513203125 c 1
 659.698648438 345.513203125 l 1xbc
 659.698648438 345.513203125 679.537421875 309.610820386 679.537421875 222 c 0
 679.537421875 91.6914042083 589.536618173 -9.998046875 399.888671875 -9.998046875 c 0
 178.283298315 -9.998046875 51.9725 137.916992188 51.9725 364.561523438 c 0
EndSplineSet
Substitution2: "'ss12' Style Set 12 lookup 13-1" G.ss12
Substitution2: "'ss08' Style Set 8 lookup 9-1" G.ss08
EndChar

StartChar: A
Encoding: 65 65 14
Width: 719
Flags: W
HStem: 0 21G<21.9725 107.503 611.24 697.028> 175.918 67.0732<141.082 576.918> 711.008 20G<311.712 397.561>
LayerCount: 2
Fore
SplineSet
576.9175 175.9175 m 1
 141.0825 175.9175 l 1
 141.0825 242.99075 l 1
 576.9175 242.99075 l 1
 576.9175 175.9175 l 1
389.1375 731.0078125 m 1
 697.0275 0 l 1
 619.50475 0 l 1
 355.393554688 639.120976562 l 1
 99.49525 0 l 1
 21.9725 0 l 1
 319.8625 731.0078125 l 1
 389.1375 731.0078125 l 1
EndSplineSet
EndChar

StartChar: P
Encoding: 80 80 15
Width: 655
Flags: W
HStem: 0 21G<71.9725 145.192> 264.918 62.0303<112.165 444.914> 664.971 66.0371<145.192 440.976>
VStem: 71.9725 73.22<0 264.918 326.948 664.971> 112.165 33.0275<264.918 326.948> 534.736 74.0686<404.291 584.709>
LayerCount: 2
Fore
SplineSet
112.165 264.9175 m 1xec
 112.165 264.9175 112.165 326.9478125 112.165 326.9478125 c 1xec
 112.165 326.9478125 316.888671875 327.058164062 316.888671875 327.058164062 c 2
 441.606162606 327.24094237 534.736210937 363.559885151 534.736210937 492.928523438 c 0
 534.736210937 625.820514208 441.606176412 664.691640619 316.888671875 664.867148438 c 2
 145.1925 664.970664062 l 1
 145.1925 0 l 1
 71.9725 0 l 1
 71.9725 731.0078125 l 1xf4
 338.888671875 731.0078125 l 2
 480.904653052 731.0078125 608.80484375 666.166846015 608.80484375 492.928523438 c 0
 608.80484375 326.158613406 480.073446923 264.9175 338.888671875 264.9175 c 2
 338.888671875 264.9175 112.165 264.9175 112.165 264.9175 c 1xec
EndSplineSet
EndChar

StartChar: R
Encoding: 82 82 16
Width: 660
Flags: W
HStem: 0 21G<71.9725 145.192 555.879 643.028> 292.918 68.8193<112.165 406.748> 664.668 66.3399<145.192 450.723>
VStem: 71.9725 73.22<0 292.918 361.737 664.668> 112.165 33.0275<292.918 361.737> 529.131 74.6741<430.31 594.189>
LayerCount: 2
Back
SplineSet
124 383.3515625 m 1xec
 300.888671875 383.461914062 l 2
 383.403259307 383.509014034 462.928710938 404.697396723 462.928710938 501.561523438 c 0
 462.928710938 596.672668425 383.403268044 618.487535435 300.888671875 618.545898438 c 2
 184 618.649414062 l 1
 184 0 l 1
 55 0 l 1
 55 731.0078125 l 1xf4
 308.888671875 731.0078125 l 2
 457.204101562 731.0078125 590.77734375 670.696715458 590.77734375 509.561523438 c 4
 590.77734375 364.195131811 466.688476562 330.276367188 466.688476562 330.276367188 c 1
 466.688476562 330.276367188 540.174524344 311.767586577 573.702148438 195.399414062 c 2
 630 0 l 1
 492 0 l 1
 447 165 l 2
 420.732434887 256.417062766 391.813913829 266 270 266 c 2
 124 266 l 1
 124 383.3515625 l 1xec
EndSplineSet
Fore
SplineSet
112.165 361.7368125 m 1xec
 112.165 361.7368125 318.044671875 361.847164062 318.044671875 361.847164062 c 2
 438.891114758 361.912294799 529.130710938 394.068160696 529.130710938 510.020273438 c 0
 529.130710938 631.484909608 440.703093908 664.495021479 322.283171875 664.564398438 c 2
 145.1925 664.667914062 l 1
 145.1925 0 l 1
 71.9725 0 l 1
 71.9725 731.0078125 l 1xf4
 338.888671875 731.0078125 l 2
 478.27403845 731.0078125 603.80484375 671.671186993 603.80484375 513.139523438 c 0
 603.80484375 335.812047666 437.767936279 322.505670166 437.767936279 322.505670166 c 1
 437.767936279 322.505670166 508.079664017 310.477087565 572.927860596 164.493659424 c 2
 643.0275 0 l 1
 564.413 0 l 1
 506.238260742 136.333764648 l 2
 452.720497013 257.551735141 414.035141351 292.9175 301.734 292.9175 c 2
 301.734 292.9175 112.165 292.9175 112.165 292.9175 c 1
 112.165 292.9175 112.165 361.7368125 112.165 361.7368125 c 1xec
EndSplineSet
Substitution2: "'ss01' Style Set 1 lookup 2-1" R.ss01
EndChar

StartChar: T
Encoding: 84 84 17
Width: 614
Flags: W
HStem: 0 21G<270.39 343.61> 665.321 65.6788<40 270.39 343.61 574> 665.321 35.6788<270.39 343.61>
VStem: 270.39 73.22<0 701>
LayerCount: 2
Fore
SplineSet
574 665.32125 m 1xd0
 40 665.32125 l 1
 40 731 l 1
 574 731 l 1
 574 665.32125 l 1xd0
270.39 0 m 1
 270.39 701 l 1
 343.61 701 l 1xb0
 343.61 0 l 1
 270.39 0 l 1
EndSplineSet
EndChar

StartChar: Q
Encoding: 81 81 18
Width: 856
Flags: W
HStem: -9.99805 76.3242<287.251 685.888> 669.769 69.3517<281.119 518.847>
VStem: 51.9725 74.0686<228.479 502.227> 671.736 76.0687<230.716 504.232>
LayerCount: 2
Fore
SplineSet
51.9725 364.561523438 m 0
 51.9725 591.206054687 185.13081277 739.12109375 403.888671875 739.12109375 c 0
 617.673662142 739.12109375 747.804980469 586.036600509 747.804980469 377.311523438 c 0
 747.804980469 130.703074732 600.525585937 65.580078125 600.525585937 65.580078125 c 1
 692.271821942 67.2704223954 806.402490234 86.1670898438 806.402490234 86.1670898438 c 1
 814.916308594 19.001953125 l 1
 814.916308594 19.001953125 711.28703205 -9.998046875 444 -9.998046875 c 0
 172.597461217 -9.998046875 51.9725 137.916992188 51.9725 364.561523438 c 0
126.041132812 364.561523438 m 0
 126.041132812 185.723613268 214.701768382 66.3261171876 403.888671875 66.3261171876 c 0
 586.266603409 66.3261171876 671.736279297 185.723613268 671.736279297 364.561523438 c 0
 671.736279297 547.580517747 586.266603409 669.769429688 403.888671875 669.769429688 c 0
 214.701768382 669.769429688 126.041132812 547.580517748 126.041132812 364.561523438 c 0
EndSplineSet
Substitution2: "'ss10' Style Set 10 lookup 11-1" Q.ss10
Substitution2: "'ss09' Style Set 9 lookup 10-1" Q.ss09
EndChar

StartChar: B
Encoding: 66 66 19
Width: 640
Flags: W
HStem: 0 64.7442<140.192 456.951> 335.574 59.8603<112.165 427.59> 666.365 64.6426<140.192 424.128>
VStem: 112.165 28.0275<335.574 395.434> 500.736 69.0686<457.042 603.929> 523.736 69.0686<125.564 274.679>
LayerCount: 2
Fore
SplineSet
452.496859375 370.8595 m 1xf8
 452.496859375 370.8595 592.80484375 343.931866165 592.80484375 199.473789062 c 0xf4
 592.80484375 54.3267468665 468.225209119 -1.65712663875e-14 328.916171875 0 c 2
 71.9725 0 l 1
 71.9725 731.0078125 l 1
 307.916171875 731.0078125 l 2
 445.7084962 731.0078125 569.80484375 676.491169385 569.80484375 530.836773438 c 0
 569.80484375 398.322180846 452.496859375 370.8595 452.496859375 370.8595 c 1xf8
140.1925 64.7442109377 m 1
 325.916171875 64.7461640623 l 2
 439.045857671 64.7473399271 523.736210938 90.4972345147 523.736210938 202.473789062 c 0xf4
 523.736210938 311.550042262 430.617782757 335.372181501 305.916171875 335.463398438 c 2
 305.916171875 335.463398438 112.165 335.57375 112.165 335.57375 c 1
 112.165 335.57375 112.165 395.4340625 112.165 395.4340625 c 1
 112.165 395.4340625 283.916171875 395.544414062 283.916171875 395.544414062 c 2
 408.045004752 395.664110804 500.736210938 419.687077682 500.736210938 529.809273438 c 0xf8
 500.736210938 640.74901274 408.045496983 666.184927384 283.916171875 666.261648438 c 2
 140.1925 666.365164062 l 1
 140.1925 64.7442109377 l 1
EndSplineSet
EndChar

StartChar: J
Encoding: 74 74 20
Width: 432
Flags: W
HStem: -10 64.376<26.4919 223.64> 665.329 65.6788<56.9725 276.808>
VStem: 276.808 73.22<109.867 665.329>
LayerCount: 2
Fore
SplineSet
134.9725 54.376 m 0
 234.831819581 54.376 276.8075 101.495175547 276.8075 212 c 2
 276.8075 665.3290625 l 1
 56.9725 665.3290625 l 1
 56.9725 731.0078125 l 1
 350.0275 731.0078125 l 1
 350.0275 201 l 2
 350.0275 74.4647758463 292.571163793 -10 154 -10 c 0
 72.9981242408 -10 16.9725 14.1835 16.9725 14.1835 c 1
 30.27525 74.954 l 1
 30.27525 74.954 73.9046751216 54.376 134.9725 54.376 c 0
EndSplineSet
EndChar

StartChar: K
Encoding: 75 75 21
Width: 667
Flags: W
HStem: 0 21G<71.9725 145.192 496.714 612.514> 324.945 62.1099<99.5 270.775> 711.008 20G<71.9725 145.192 493.305 602.514>
VStem: 71.9725 73.22<0 324.945 387.055 731.008> 99.5 45.6925<324.945 387.055>
LayerCount: 2
Fore
SplineSet
99.5 387.054931641 m 1xe8
 270.775195312 387.054931641 l 1
 270.775195312 324.945068359 l 1
 99.5 324.945068359 l 1
 99.5 387.054931641 l 1xe8
514.027832031 0 m 1
 219.151513672 340.631640625 l 1
 219.151513672 340.631640625 219.151513672 375.20175 219.1515 375.20175 c 1
 509.633154297 731.0078125 l 1
 602.513818359 731.0078125 l 1
 288.710986328 362.585791016 l 1
 612.513818359 0 l 1
 514.027832031 0 l 1
71.9725 0 m 1xf0
 71.9725 731.0078125 l 1
 145.1925 731.0078125 l 1
 145.1925 0 l 1
 71.9725 0 l 1xf0
EndSplineSet
EndChar

StartChar: S
Encoding: 83 83 22
Width: 591
Flags: W
HStem: -10 67.1407<144.916 393.898> 670.98 68.1407<207.995 446.023>
VStem: 66.5995 73.5315<471.65 611.434> 465.87 73.6769<119.103 261.846>
LayerCount: 2
Fore
SplineSet
283.3828125 335.333375 m 0
 117.337319949 378.134341082 66.599453125 437.334528441 66.599453125 534.85325 c 0
 66.599453125 659.108434943 162.191280369 739.12109375 319.233398438 739.12109375 c 0
 450.810825807 739.12109375 514.800117188 688.891601562 514.800117188 688.891601562 c 1
 489.16009375 628.459921875 l 1
 489.16009375 628.459921875 426.687548737 670.980429688 328.69353125 670.980429688 c 0
 198.622827805 670.980429688 140.130976562 625.132722592 140.130976562 538.578 c 0
 140.130976562 470.363983866 178.497429946 432.94246663 321.997070312 396.888304688 c 0
 481.182710589 356.60408114 539.54703125 297.034852423 539.54703125 197.0275 c 0
 539.54703125 69.4394082449 450.508840627 -10 283.8046875 -10 c 0
 144.843902514 -10 56.76140625 42.2294921875 56.76140625 42.2294921875 c 1
 79.97265625 105.661171875 l 1
 79.97265625 105.661171875 165.73269598 57.1406640624 275.760539062 57.1406640624 c 0
 398.887456632 57.1406640624 465.870140625 102.448098766 465.870140625 190.33025 c 0
 465.870140625 263.870187447 436.100132567 296.086654908 283.3828125 335.333375 c 0
EndSplineSet
EndChar

StartChar: W
Encoding: 87 87 23
Width: 949
Flags: W
HStem: 0 21G<216.42 314.808 625.5 730.813> 711.008 20G<21.9725 99.6025 850.294 927.028>
LayerCount: 2
Fore
SplineSet
221.89 0 m 1
 21.9725 731.0078125 l 1
 94.28425 731.0078125 l 1
 266.331195312 83.9968359377 l 1
 428.4955 671.0078125 l 1
 514.5045 671.0078125 l 1
 514.5045 671.0078125 678.092695312 83.9968359377 678.092695312 83.9968359377 c 1
 678.092695312 83.9968359377 850.29375 731.0078125 850.29375 731.0078125 c 1
 927.0275 731.0078125 l 1
 725.2935 0 l 1
 631.101 0 l 1
 471.5 569.941484375 l 1
 309.11 0 l 1
 221.89 0 l 1
EndSplineSet
EndChar

StartChar: X
Encoding: 88 88 24
Width: 689
Flags: W
HStem: 0 21G<29.0643 133.575 555.425 659.936> 711.008 20G<39.0643 142.721 546.279 649.936>
VStem: 335.156 18.688<324.945 401>
LayerCount: 2
Fore
SplineSet
119.12825 0 m 1
 29.06425 0 l 1
 295.74325 369.211 l 1
 39.06425 731.0078125 l 1
 129.10075 731.0078125 l 1
 353.844 401 l 1
 353.844 324.945 l 1
 119.12825 0 l 1
569.87175 0 m 1
 335.156 324.945 l 1
 335.156 401 l 1
 559.89925 731.0078125 l 1
 649.93575 731.0078125 l 1
 393.25675 369.211 l 1
 659.93575 0 l 1
 569.87175 0 l 1
EndSplineSet
EndChar

StartChar: Y
Encoding: 89 89 25
Width: 689
Flags: W
HStem: 0 21G<307.89 381.11> 282 45.055<313.89 375.11> 711.008 20G<36.9725 118.798 570.202 652.028>
VStem: 307.89 73.22<0 327.055>
LayerCount: 2
Fore
SplineSet
313.89 282 m 1
 36.9725 731.0078125 l 1
 118.798 731.0078125 l 1
 118.798 731.0078125 344.5 359.594765625 344.5 359.594765625 c 1
 344.5 359.594765625 570.202 731.0078125 570.202 731.0078125 c 1
 652.0275 731.0078125 l 1
 375.11 282 l 1
 313.89 282 l 1
307.89 0 m 1
 307.89 327.055 l 1
 381.11 327.055 l 1
 381.11 0 l 1
 307.89 0 l 1
EndSplineSet
EndChar

StartChar: Z
Encoding: 90 90 26
Width: 594
Flags: W
HStem: 0 65.6787<137.248 554> 665.321 65.6788<50 456.752>
LayerCount: 2
Fore
SplineSet
554 0 m 1
 40 0 l 1
 40 50.67875 l 1
 456.7525 665.32125 l 1
 50 665.32125 l 1
 50 731 l 1
 544 731 l 1
 544 670.32125 l 1
 137.2475 65.67875 l 1
 554 65.67875 l 1
 554 0 l 1
EndSplineSet
EndChar

StartChar: ampersand
Encoding: 38 38 27
Width: 754
Flags: W
HStem: -10 60.9825<183.666 370.432 557.393 729.553> 679.991 59.001<304.477 492.844>
VStem: 51.9725 67.1487<108.626 251.968> 178.523 67.596<438.77 622.447> 601.238 62.2778<377.025 421.772>
LayerCount: 2
Fore
SplineSet
260.350078125 403.958789062 m 1
 278.712796875 355.691367188 l 0
 278.712796875 355.691367188 119.121164062 305.516960548 119.121164062 180.80175 c 0
 119.121164062 99.5789635082 181.51968428 50.9825234375 276.511093262 50.9825234375 c 0
 390.315086872 50.9825234375 519.347745109 135.882112041 601.23775 437.307328125 c 1
 663.515585938 419.8046875 l 1
 569.185076346 106.417070086 434.474357533 -10 265.928710938 -10 c 0
 130.484867124 -10 51.9725 65.2560836752 51.9725 174.240546875 c 0
 51.9725 342.420222409 260.350078125 403.958789062 260.350078125 403.958789062 c 1
735.478671875 4.5546875 m 1
 735.478671875 4.5546875 711.141879653 -10 642.5 -10 c 0
 513.84274558 -10 428.878227434 71.7082453363 358.9175 162.9725 c 0
 258.149378111 294.66987855 178.52328125 431.465382412 178.52328125 536.44175 c 0
 178.52328125 672.429929316 258.092922196 738.9921875 390.049960938 738.9921875 c 0
 473.712797587 738.9921875 524.822390625 705.043914062 524.822390625 705.043914062 c 1
 507.4510625 651.078132812 l 1
 507.4510625 651.078132812 457.198676365 679.99121875 397.0275 679.99121875 c 0
 297.675295389 679.99121875 246.119257812 633.432743365 246.119257812 535.44175 c 0
 246.119257812 448.460483695 313.728782289 331.394934064 399.02 216.86 c 0
 459.076473865 136.534786781 533.422314386 52.9834375 648.01171875 52.9834375 c 0
 697.881744336 52.9834375 727.35090625 62.9306875 727.35090625 62.9306875 c 1
 735.478671875 4.5546875 l 1
EndSplineSet
EndChar

StartChar: i
Encoding: 105 105 28
Width: 269
Flags: W
HStem: 0 21G<100.798 168.202> 481.011 20G<100.798 168.202> 604.468 104.614<90.9031 178.097>
VStem: 82.8042 103.392<612.663 700.888> 100.798 67.4035<0 501.011>
LayerCount: 2
Fore
SplineSet
100.79825 0 m 1xe8
 100.79825 501.010742188 l 1
 168.20175 501.010742188 l 1
 168.20175 0 l 1
 100.79825 0 l 1xe8
82.80421875 656.775390625 m 0xf0
 82.80421875 688.463883182 103.180992566 709.0825 134.499023438 709.0825 c 0
 165.818116981 709.0825 186.19578125 688.463883182 186.19578125 656.775390625 c 0
 186.19578125 625.086325567 165.818116981 604.46828125 134.499023438 604.46828125 c 0
 103.180992566 604.46828125 82.80421875 625.086325567 82.80421875 656.775390625 c 0xf0
EndSplineSet
EndChar

StartChar: o
Encoding: 111 111 29
Width: 589
Flags: W
HStem: -9.99805 59.9297<205.841 382.978> 450.816 60.1172<203.04 385.702>
VStem: 51.9725 66.7384<145.1 359.477> 471.066 66.7384<144.394 359.736>
LayerCount: 2
Fore
SplineSet
118.710882812 253.561523438 m 0
 118.710882812 131.454134045 178.295641444 49.9316171875 293.888671875 49.9316171875 c 0
 410.884258542 49.9316171875 471.066460938 131.454134045 471.066460938 253.561523438 c 0
 471.066460938 371.846121659 410.91751554 450.816429688 294 450.816429688 c 0
 178.328896733 450.816429688 118.710882812 371.846121659 118.710882812 253.561523438 c 0
51.9725 253.561523438 m 0
 51.9725 409.296356709 143.508927857 510.93359375 293.888671875 510.93359375 c 0
 445.511654349 510.93359375 537.80484375 409.296356709 537.80484375 253.561523438 c 0
 537.80484375 94.0826581123 445.511654349 -9.998046875 293.888671875 -9.998046875 c 0
 143.508927857 -9.998046875 51.9725 94.0826581123 51.9725 253.561523438 c 0
EndSplineSet
EndChar

StartChar: n
Encoding: 110 110 30
Width: 595
Flags: W
HStem: 0 21G<79.867 147.27 455.479 522.883> 450.147 60.7869<227.174 398.817> 481.011 20G<79.867 147.27>
VStem: 79.867 67.4035<0 501.011> 455.479 67.4035<0 387.88>
LayerCount: 2
Fore
SplineSet
147.2705 284 m 1xd8
 147.2705 284 106.2155 293.561523438 106.2155 293.561523438 c 1
 130.87086839 444 203.319349999 510.93359375 335.0275 510.93359375 c 0
 459.084758534 510.93359375 522.88284375 439.567558792 522.88284375 290.616523438 c 2
 522.88284375 0 l 1
 455.47934375 0 l 1
 455.47934375 273.616523438 l 2
 455.47934375 399.387508045 412.98545765 450.146679688 312.945 450.146679688 c 0
 210.884578987 450.146679688 147.2705 383.630440765 147.2705 284 c 1xd8
79.867 0 m 1
 79.867 501.010742188 l 1
 147.2705 501.010742188 l 1xb8
 147.2705 0 l 1
 79.867 0 l 1
EndSplineSet
EndChar

StartChar: m
Encoding: 109 109 31
Width: 882
Flags: W
HStem: 0 21G<79.867 147.27 407.576 474.979 742.257 809.66> 450.147 60.7869<208.521 360.34 537.222 696.772> 481.011 20G<79.867 147.27>
VStem: 79.867 67.4035<0 501.011> 407.576 67.4035<0 401.192> 742.257 67.4035<0 401.254>
LayerCount: 2
Fore
SplineSet
474.97909375 284 m 1xdc
 425.77734375 307.506523438 l 1
 448.567277907 448.293969154 509.28152921 510.93359375 637.27734375 510.93359375 c 0
 744.144261822 510.93359375 809.6601875 447.323924219 809.6601875 314.561523438 c 2
 809.6601875 0 l 1
 742.2566875 0 l 1
 742.2566875 297.561523438 l 2
 742.2566875 401.191646681 705.866285377 450.146679688 620.19484375 450.146679688 c 0
 518.470361953 450.146679688 474.97909375 383.630440763 474.97909375 284 c 1xdc
147.2705 284 m 1
 100.1605 293.561523438 l 1
 121.598069767 444 179.07873457 510.93359375 299.11 510.93359375 c 0
 408.357194891 510.93359375 474.97909375 447.323924219 474.97909375 314.561523438 c 2
 474.97909375 0 l 1
 407.57559375 0 l 1
 407.57559375 297.561523438 l 2
 407.57559375 401.191646682 370.145832925 450.146679688 282.0275 450.146679688 c 0
 194.18792098 450.146679688 147.2705 383.630440765 147.2705 284 c 1
79.867 0 m 1
 79.867 501.010742188 l 1
 147.2705 501.010742188 l 1xbc
 147.2705 0 l 1
 79.867 0 l 1
EndSplineSet
EndChar

StartChar: p
Encoding: 112 112 32
Width: 602
Flags: W
HStem: -9.99805 59.6269<226.638 402.178> 452.119 58.8144<228.374 403.416> 481.011 20G<79.867 147.27>
VStem: 79.867 67.4035<-180 501.011> 114.284 32.9861<66.4394 183.562 283.562 425.747> 479.415 66.0411<137.206 367.016>
LayerCount: 2
Fore
SplineSet
79.867 -180 m 1xb4
 79.867 501.010742188 l 1
 147.2705 501.010742188 l 1
 147.2705 -180 l 1
 79.867 -180 l 1xb4
147.2705 213.561523438 m 1
 147.2705 133.694500111 198.414978643 49.6288671875 318.040039062 49.6288671875 c 0
 431.084197312 49.6288671875 479.415078125 131.272588942 479.415078125 253.561523438 c 0
 479.415078125 372.627320277 431.117539434 452.119179688 318.151367188 452.119179688 c 0
 211.730567293 452.119179688 147.2705 384.637714775 147.2705 283.561523438 c 1xd4
 111.394367188 283.561523438 l 1
 111.394367188 425.746590474 196.678461439 510.93359375 328.0275 510.93359375 c 0
 466.13925752 510.93359375 545.456210938 409.296356709 545.456210938 253.561523438 c 0
 545.456210938 94.0826581121 462.443755918 -9.998046875 326.067539062 -9.998046875 c 0
 194.419047245 -9.998046875 114.284367188 66.4393843713 114.284367188 183.561523438 c 1xcc
 147.2705 213.561523438 l 1
EndSplineSet
EndChar

StartChar: j
Encoding: 106 106 33
Width: 269
Flags: W
HStem: -190 58.8622<-71.0261 72.4157> 481.011 20G<100.798 168.202> 604.468 104.614<90.9031 178.097>
VStem: 82.8042 103.392<612.663 700.888> 100.798 67.4035<-102.75 501.011>
LayerCount: 2
Fore
SplineSet
100.79825 -15.7615 m 2xe8
 100.79825 -15.7615 100.79825 501.010742188 100.79825 501.010742188 c 1
 168.20175 501.010742188 l 1
 168.20175 -15.9725 l 2
 168.20175 -120.718909952 126.201931034 -190 24.90825 -190 c 0
 -36.819343881 -190 -79.51375 -171.30275 -79.51375 -171.30275 c 1
 -66.90825 -114.257 l 1
 -66.90825 -114.257 -35.7154128816 -131.13775 7.945 -131.13775 c 0
 73.318584558 -131.13775 100.79825 -96.3858674697 100.79825 -15.7615 c 2xe8
82.80421875 656.775390625 m 0xf0
 82.80421875 688.463883182 103.180992566 709.0825 134.499023438 709.0825 c 0
 165.818116981 709.0825 186.19578125 688.463883182 186.19578125 656.775390625 c 0
 186.19578125 625.086325567 165.818116981 604.46828125 134.499023438 604.46828125 c 0
 103.180992566 604.46828125 82.80421875 625.086325567 82.80421875 656.775390625 c 0xf0
EndSplineSet
EndChar

StartChar: k
Encoding: 107 107 34
Width: 555
Flags: W
HStem: 0 21G<73.367 140.77 396.857 502> 225.867 60.2659<87.367 239.536> 481.011 20G<393.557 492> 731.002 20G<73.367 140.77>
VStem: 73.367 67.4035<0 225.867 286.133 751.002> 87.367 53.4035<225.867 286.133> 225.886 13.65<236.367 275.633>
LayerCount: 2
Fore
SplineSet
239.535595703 286.132958984 m 1xf6
 239.535595703 225.867041016 l 1
 87.3670410156 225.867041016 l 1
 87.3670410156 286.132958984 l 1
 239.535595703 286.132958984 l 1xf6
412.660791016 0 m 1
 225.885595703 236.367041016 l 1
 225.885595703 275.632958984 l 1
 409.885595703 501.010742188 l 1
 492 501.010742188 l 1
 287.6 256.077636719 l 1
 502 0 l 1
 412.660791016 0 l 1
73.367 0 m 1xfa
 73.367 751.001953125 l 1
 140.7705 751.001953125 l 1
 140.7705 0 l 1
 73.367 0 l 1xfa
EndSplineSet
EndChar

StartChar: l
Encoding: 108 108 35
Width: 371
Flags: W
HStem: -10.0088 62.165<179.206 307.503> 731.002 20G<82.8945 150.298>
VStem: 82.8945 67.4035<84.2757 751.002>
LayerCount: 2
Fore
SplineSet
150.298 178.046210938 m 2
 150.298 90.0748856352 176.78394851 52.1562109375 239.7935 52.1562109375 c 0
 277.674627602 52.1562109375 304.7385 65.9452109376 304.7385 65.9452109376 c 1
 314.555 5.9912109375 l 1
 314.555 5.9912109375 278.725013107 -10.0087890625 226.922 -10.0087890625 c 0
 125.109456896 -10.0087890625 82.8945 51.791790321 82.8945 160.991210938 c 2
 82.8945 751.001953125 l 1
 150.298 751.001953125 l 1
 150.298 178.046210938 l 2
EndSplineSet
EndChar

StartChar: h
Encoding: 104 104 36
Width: 595
Flags: W
HStem: 0 21G<79.867 147.27 455.479 522.883> 450.147 60.7869<226.89 398.817> 731.002 20G<79.867 147.27>
VStem: 79.867 67.4035<0 751.002> 455.479 67.4035<0 387.88>
LayerCount: 2
Fore
SplineSet
79.867 0 m 1
 79.867 751.001953125 l 1
 147.2705 751.001953125 l 1
 147.2705 0 l 1
 79.867 0 l 1
147.2705 284 m 9
 147.2705 284 106.2155 293.561523438 106.2155 293.561523438 c 17
 130.87086839 444 202.748524988 510.93359375 335.0275 510.93359375 c 0
 459.084758534 510.93359375 522.88284375 439.567558792 522.88284375 290.616523438 c 2
 522.88284375 0 l 1
 455.47934375 0 l 1
 455.47934375 273.616523438 l 2
 455.47934375 399.387508045 412.98545765 450.146679688 312.945 450.146679688 c 0
 210.174145752 450.146679688 147.2705 383.630440765 147.2705 284 c 9
EndSplineSet
EndChar

StartChar: q
Encoding: 113 113 37
Width: 602
Flags: W
HStem: -9.99805 59.6269<209.494 386.298> 450.725 60.2089<206.369 387.695> 481.011 20G<459.73 527.133>
VStem: 61.5438 66.0411<139.242 364.642> 459.73 67.4035<-180 501.011> 459.73 40.6559<66.4394 183.562 283.562 425.747>
LayerCount: 2
Fore
SplineSet
527.133 -180 m 1xb8
 459.7295 -180 l 1
 459.7295 501.010742188 l 1
 527.133 501.010742188 l 1
 527.133 -180 l 1xb8
459.7295 205.561523438 m 1
 500.385382812 183.561523438 l 1xd4
 500.385382812 66.4393843711 419.986876763 -9.998046875 287.904960938 -9.998046875 c 0
 147.194504012 -9.998046875 61.5437890625 94.0826581119 61.5437890625 253.561523438 c 0
 61.5437890625 409.296356709 143.404277118 510.93359375 285.945 510.93359375 c 0
 421.302136867 510.93359375 498.174382812 425.746590474 498.174382812 283.561523438 c 1
 459.7295 275.561523438 l 1
 459.7295 380.59872608 411.546620775 450.724679688 298.848632812 450.724679688 c 0xd8
 178.877402107 450.724679688 127.584921875 371.791103447 127.584921875 253.561523438 c 0
 127.584921875 131.272588942 178.910744228 49.6288671875 298.959960938 49.6288671875 c 0
 411.579962897 49.6288671875 459.7295 129.592052933 459.7295 205.561523438 c 1
EndSplineSet
EndChar

StartChar: g
Encoding: 103 103 38
Width: 602
Flags: W
HStem: -190 61.7013<161.476 391.202> 20.002 57.4159<205.595 386.32> 452.238 58.6952<203.424 386.435> 481.011 20G<459.73 527.133>
VStem: 61.5438 66.0411<160.962 369.749> 459.73 67.4035<-64.2274 33.422 223.562 501.011> 459.73 43.4449<100.388 223.562>
LayerCount: 2
Fore
SplineSet
459.7295 33.422 m 2xdc
 459.7295 501.010742188 l 1
 527.133 501.010742188 l 1
 527.133 31 l 2
 527.133 -102.018957346 459.094017242 -190 295 -190 c 0
 174.687586298 -190 91.4725 -146 91.4725 -146 c 1
 109.197167969 -83.6015136719 l 1
 109.197167969 -83.6015136719 181.196026074 -128.298681641 281.972363281 -128.298681641 c 0
 407.122761442 -128.298681641 459.7295 -79.5876329538 459.7295 33.422 c 2xdc
459.7295 235.561523438 m 1
 503.174382812 223.561523438 l 1xea
 503.174382812 100.388423477 430.044640798 20.001953125 287.904960938 20.001953125 c 0
 136.709416031 20.001953125 61.5437890625 115.39477208 61.5437890625 261.561523438 c 0
 61.5437890625 412.455587994 132.914744884 510.93359375 285.945 510.93359375 c 0
 422.952857006 510.93359375 498.174382812 429.493180948 498.174382812 293.561523438 c 1
 459.7295 285.561523438 l 1
 459.7295 385.509916424 406.988917813 452.238429688 294.848632812 452.238429688 c 0xec
 177.67942549 452.238429688 127.584921875 377.102640274 127.584921875 264.561523438 c 0
 127.584921875 152.340171834 178.910744228 77.4178671877 298.959960938 77.4178671877 c 0
 411.579962898 77.4178671877 459.7295 158.514866771 459.7295 235.561523438 c 1
EndSplineSet
Substitution2: "'ss14' Style Set 14 lookup 19-1" g.ss14
EndChar

StartChar: f
Encoding: 102 102 39
Width: 398
Flags: W
HStem: 0 21G<140.798 208.202> 443.56 57.451<30.9725 365.027> 705.057 55.954<242.381 388.423>
VStem: 140.798 67.4035<0 668.344>
LayerCount: 2
Fore
SplineSet
30.9725 501.010742188 m 1
 365.0275 501.010742188 l 1
 365.0275 443.55975 l 1
 30.9725 443.55975 l 1
 30.9725 501.010742188 l 1
208.20175 577.928242188 m 2
 208.20175 0 l 1
 140.79825 0 l 1
 140.79825 590.928242188 l 2
 140.79825 693.300020975 187.159532915 761.010742188 298.9725 761.010742188 c 0
 355.754050932 761.010742188 395.0275 745.010742188 395.0275 745.010742188 c 1
 385.211 691.267742188 l 1
 385.211 691.267742188 355.558613183 705.056742188 314.055 705.056742188 c 0
 239.529148972 705.056742188 208.20175 666.7644516 208.20175 577.928242188 c 2
EndSplineSet
EndChar

StartChar: c
Encoding: 99 99 40
Width: 492
Flags: W
HStem: -9.99805 58.4159<210.389 419.901> 451.725 59.2089<208.121 407.61>
VStem: 51.9725 64.8076<146.116 359.981>
LayerCount: 2
Fore
SplineSet
51.9725 253.561523438 m 0
 51.9725 409.296356709 140.88444926 510.93359375 294.191421875 510.93359375 c 0
 409.493075475 510.93359375 456.892626953 463.987060547 456.892626953 463.987060547 c 1
 437.144482422 412.763671875 l 1
 437.144482422 412.763671875 391.564153382 451.724679688 299.14675 451.724679688 c 0
 178.379549261 451.724679688 116.780078125 372.390756963 116.780078125 253.561523438 c 0
 116.780078125 130.546408533 179.433692285 48.4178671875 302.668421875 48.4178671875 c 0
 389.252149621 48.4178671875 435.110400391 77.644189453 435.110400391 77.644189453 c 1
 453.973898438 25.109453125 l 1
 453.973898438 25.109453125 396.370056586 -9.998046875 296.310671875 -9.998046875 c 0
 141.842237023 -9.998046875 51.9725 94.0826581128 51.9725 253.561523438 c 0
EndSplineSet
Substitution2: "'ss12' Style Set 12 lookup 13-1" c.ss12
EndChar

StartChar: t
Encoding: 116 116 41
Width: 412
Flags: W
HStem: -10 59.6512<234.365 365.794> 443.863 57.1482<30.9725 365.027>
VStem: 140.798 67.4035<76.7779 655.8> 360.119 9.90825<20.6282 44.0231>
LayerCount: 2
Fore
SplineSet
30.9725 501.010742188 m 1
 365.0275 501.010742188 l 1
 365.0275 443.8625 l 1
 30.9725 443.8625 l 1
 30.9725 501.010742188 l 1
208.20175 165.0825 m 2
 208.20175 84.4202197256 233.914214362 49.65125 295.0825 49.65125 c 0
 333.016899273 49.65125 360.11925 60.65125 360.11925 60.65125 c 1
 360.11925 60.65125 370.0275 4 370.0275 4 c 1
 370.0275 4 334.036208158 -10 282 -10 c 0
 167.083057701 -10 140.79825 60.7021695922 140.79825 150.0825 c 2
 140.79825 655.799742188 l 1
 140.79825 655.799742188 208.20175 664.524492188 208.20175 664.524492188 c 1
 208.20175 664.524492188 208.20175 165.0825 208.20175 165.0825 c 2
EndSplineSet
Substitution2: "'ss11' Style Set 11 lookup 12-1" t.ss11
EndChar

StartChar: r
Encoding: 114 114 42
Width: 420
Flags: W
HStem: 0 21G<73.367 140.77> 453.119 57.8144<207.495 379.871> 481.011 20G<73.367 140.77>
VStem: 73.367 67.4035<0 501.011>
LayerCount: 2
Fore
SplineSet
73.367 0 m 1xb0
 73.367 501.010742188 l 1
 140.7705 501.010742188 l 1
 140.7705 0 l 1
 73.367 0 l 1xb0
293.17425 510.93359375 m 0xd0
 363.467028775 510.93359375 391.055 484.93359375 391.055 484.93359375 c 1
 374.11925 431.76859375 l 1
 374.11925 431.76859375 342.062150509 453.119179688 287.54125 453.119179688 c 0
 197.426248137 453.119179688 140.7705 395.869745071 140.7705 284 c 1
 101.11 293.561523438 l 1
 121.704208435 444 173.696377577 510.93359375 293.17425 510.93359375 c 0xd0
EndSplineSet
EndChar

StartChar: e
Encoding: 101 101 43
Width: 551
Flags: W
HStem: -9.99805 58.5077<214.593 452.282> 223.826 55.321<88.6787 444.23> 452.33 58.6034<199.504 372.8>
VStem: 88.6787 30.2431<223.826 279.147> 444.321 65.1721<279.151 376.545>
LayerCount: 2
Fore
SplineSet
51.9725 253.561523438 m 0
 51.9725 409.296356709 141.238643227 510.93359375 287.888671875 510.93359375 c 0
 456.609442038 510.93359375 509.493320312 385.056171586 509.493320312 283.7751875 c 0
 509.493320312 246.76487627 505.0275 223.82575 505.0275 223.82575 c 1
 88.67875 223.82575 l 1
 88.67875 279.14675 l 1
 444.2295 279.14675 l 1
 444.2295 279.14675 444.816614607 284.386921627 444.32125 295.055 c 0
 442.007130189 377.086029734 396.980057438 452.330179688 285.48625 452.330179688 c 0
 168.806937064 452.330179688 118.921882812 371.953154202 118.921882812 251.561523438 c 0
 118.921882812 118.875376741 182.301509328 48.5096171875 324.72475 48.5096171875 c 0
 415.11461905 48.5096171875 466.624054688 76.641453125 466.624054688 76.641453125 c 1
 479.854648438 18.595703125 l 1
 479.854648438 18.595703125 422.870913903 -9.998046875 323.888671875 -9.998046875 c 0
 136.03537113 -9.998046875 51.9725 94.0826581128 51.9725 253.561523438 c 0
EndSplineSet
Substitution2: "'ss03' Style Set 3 lookup 4-1" e.ss03
EndChar

StartChar: d
Encoding: 100 100 44
Width: 602
Flags: W
HStem: -9.99805 59.5117<208.444 384.308> 0 21G<459.73 527.133> 450.609 60.3242<211.497 384.34> 731.002 20G<459.73 527.133>
VStem: 61.5438 66.0411<139.021 358.505> 459.73 67.4035<217.374 751.002> 459.73 35.8761<75.1885 217.374 317.374 434.496>
LayerCount: 2
Fore
SplineSet
527.133 0 m 1x7c
 459.7295 0 l 1x7a
 459.7295 751.001953125 l 1
 527.133 751.001953125 l 1
 527.133 0 l 1x7c
459.7295 295.374023438 m 1xbc
 459.7295 371.004231916 410.083161001 450.609429688 293.959960938 450.609429688 c 0
 184.046185331 450.609429688 127.584921875 369.245308784 127.584921875 247.374023438 c 0
 127.584921875 128.726673028 184.011330439 49.5136171875 293.848632812 49.5136171875 c 0
 410.04834287 49.5136171875 459.7295 119.919088692 459.7295 225.374023438 c 1xbc
 495.605632812 217.374023438 l 1xba
 495.605632812 75.188476562 411.87443334 -9.998046875 282.9175 -9.998046875 c 0
 142.300209809 -9.998046875 61.5437890625 91.6396484368 61.5437890625 247.374023438 c 0
 61.5437890625 406.852539062 146.04870871 510.93359375 284.877460938 510.93359375 c 0
 412.761906446 510.93359375 490.605632812 434.49609375 490.605632812 317.374023438 c 1
 459.7295 295.374023438 l 1xbc
EndSplineSet
Substitution2: "'ss05' Style Set 5 lookup 6-1" d.ss05
EndChar

StartChar: b
Encoding: 98 98 45
Width: 602
Flags: W
HStem: -9.99805 59.5117<219.869 402.368> 0 21G<79.867 147.27> 450.609 60.3242<225.526 399.323> 731.002 20G<79.867 147.27>
VStem: 79.867 67.4035<197.374 751.002> 118.367 28.9036<55.1885 197.374 297.374 424.496> 479.415 66.0411<134.122 363.528>
LayerCount: 2
Fore
SplineSet
79.867 0 m 1x7a
 79.867 751.001953125 l 1
 147.2705 751.001953125 l 1x7a
 147.2705 0 l 1x76
 79.867 0 l 1x7a
147.2705 295.374023438 m 1
 113.366867188 297.374023438 l 1
 113.366867188 424.49609375 194.994408171 510.93359375 329.095039062 510.93359375 c 0
 463.589543494 510.93359375 545.456210938 406.852539062 545.456210938 247.374023438 c 0
 545.456210938 91.6396484368 467.24333586 -9.998046875 331.055 -9.998046875 c 0
 202.09806666 -9.998046875 118.366867188 55.1884765621 118.366867188 197.374023438 c 1xb6
 147.2705 225.374023438 l 1
 147.2705 119.919088692 196.95165713 49.5136171875 313.151367188 49.5136171875 c 0xba
 429.620728359 49.5136171875 479.415078125 128.726673028 479.415078125 247.374023438 c 0
 479.415078125 369.245308784 429.586071858 450.609429688 313.040039062 450.609429688 c 0
 196.916838999 450.609429688 147.2705 371.004231916 147.2705 295.374023438 c 1
EndSplineSet
EndChar

StartChar: a
Encoding: 97 97 46
Width: 566
Flags: W
HStem: -9.99805 59.2049<149.835 318.681 453.639 525.903> 248.018 54.0093<196.269 399.154> 451.309 59.7013<147.273 338.075>
VStem: 48.4725 70.2521<77.6548 193.397> 383.305 66.1925<50.3688 99.5275 160.562 248.018 302.028 405.825> 383.305 30.9036<57.3566 160.562>
LayerCount: 2
Back
SplineSet
357.928710938 177.561523438 m 5x7c
 407.77734375 180.561523438 l 5x7a
 407.77734375 65.2546726394 343.443566636 -9.998046875 207.888671875 -9.998046875 c 4
 103.525845263 -9.998046875 40 50 40 141 c 4
 40 286.71747631 179.159368499 309.798279039 373.928710938 309.93359375 c 5
 373.77734375 224.284179688 l 5x79
 214.9215174 224.170106541 164.848632812 210.544945242 164.848632812 148.561523438 c 4
 164.848632812 111.324445486 189.419144912 86.4638671875 246.888671875 86.4638671875 c 4
 313.711369303 86.4638671875 357.928710938 123.027306191 357.928710938 177.561523438 c 5x7c
357.928710938 299.010742188 m 6xbc
 357.928710938 377.97408765 325.670027448 412.010742188 248.928710938 412.010742188 c 4
 170.769677734 412.010742188 114.928710938 368.010742188 114.928710938 368.010742188 c 5
 79.9287109375 467.010742188 l 5
 79.9287109375 467.010742188 159.657226562 511.010742188 274.928710938 511.010742188 c 4
 417.721987032 511.010742188 476.928710938 427.01055301 476.928710938 300.010742188 c 6
 476.928710938 118 l 6
 476.928710938 93.251950046 485.36431245 84 507.928710938 84 c 4
 525.694039812 84 536.928710938 91 536.928710938 91 c 5
 545.928710938 13 l 5
 545.928710938 13 520.8653569 -9.998046875 467.928710938 -9.998046875 c 4
 394.082557091 -9.998046875 357.928710938 33 357.928710938 125 c 6
 357.928710938 299.010742188 l 6xbc
EndSplineSet
Fore
SplineSet
383.304960938 177.561523438 m 1xf8
 414.20859375 160.561523438 l 1xf4
 414.20859375 57.3565944279 351.023411825 -9.998046875 217.888671875 -9.998046875 c 0
 112.576321892 -9.998046875 48.4725 47.7836196402 48.4725 131.93575 c 0
 48.4725 279.157032934 205.676572963 301.891351288 399.304960938 302.02759375 c 1
 399.153662109 248.018261719 l 1
 221.929799162 247.847292813 118.724632812 228.320760604 118.724632812 134.527751221 c 0
 118.724632812 85.1963771149 152.171477777 49.2068671875 230.402421875 49.2068671875 c 0
 322.417520123 49.2068671875 383.304960938 100.72397353 383.304960938 177.561523438 c 1xf8
383.304960938 309.455742188 m 2xf8
 383.304960938 408.581771111 348.596507553 451.309423828 254.201074219 451.309423828 c 0
 171.240947417 451.309423828 111.969824219 412.309423828 111.969824219 412.309423828 c 1
 91.4287109375 467.010742188 l 1
 91.4287109375 467.010742188 160.538001577 511.010742188 260.456210938 511.010742188 c 0
 394.088980265 511.010742188 449.497460938 435.149813046 449.497460938 320.455742188 c 2
 449.497460938 99.5275 l 2
 449.497460938 60.8193662205 459.934000733 46.3485 487.850710938 46.3485 c 0
 509.662552911 46.3485 523.456210938 55.04575 523.456210938 55.04575 c 1
 532.456210938 5.72475 l 1
 532.456210938 5.72475 510.126436749 -9.998046875 471.239917236 -9.998046875 c 0
 409.637379658 -9.998046875 383.304960938 24.5682795252 383.304960938 98.5275 c 2
 383.304960938 309.455742188 l 2xf8
EndSplineSet
Substitution2: "'ss15' Style Set 15 lookup 20-1" a.ss15
Substitution2: "'ss02' Style Set 2 lookup 3-1" a.ss02
EndChar

StartChar: plus
Encoding: 43 43 47
Width: 450
Flags: W
HStem: 329.523 56.954<30 420>
VStem: 196.523 56.954<163 553>
LayerCount: 2
Fore
SplineSet
253.477 553 m 1
 253.477 163 l 1
 196.523 163 l 1
 196.523 553 l 1
 253.477 553 l 1
420 329.523 m 1
 30 329.523 l 1
 30 386.477 l 1
 420 386.477 l 1
 420 329.523 l 1
EndSplineSet
EndChar

StartChar: s
Encoding: 115 115 48
Width: 476
Flags: W
HStem: -9.99805 58.117<99.9372 322.798> 453.556 57.3778<162.419 375.497>
VStem: 56.1766 67.2501<315.174 417.405> 359.356 65.3614<80.804 181.98>
LayerCount: 2
Fore
SplineSet
220.3641604 224.535484131 m 0
 89.0761804074 249.572295578 56.1766015625 293.60037491 56.1766015625 361.9725 c 0
 56.1766015625 454.765081606 131.792766115 510.93359375 256.017578125 510.93359375 c 0
 360.533414671 510.93359375 411.362460938 473.225585938 411.362460938 473.225585938 c 1
 393.294921875 423.701335938 l 1
 393.294921875 423.701335938 340.572991682 453.555796875 262.862414062 453.555796875 c 0
 166.681505959 453.555796875 123.42671875 419.848139485 123.42671875 365.491054688 c 0
 123.42671875 318.28364664 151.233850611 296.390289414 251.128868896 277.683327148 c 0
 381.015781544 252.751868814 424.716953125 208.350549421 424.716953125 136.42984375 c 0
 424.716953125 46.1880085612 356.178252068 -9.998046875 227.856445312 -9.998046875 c 0
 118.371639454 -9.998046875 48.9725 26.5625 48.9725 26.5625 c 1
 65.314453125 83.998828125 l 1
 65.314453125 83.998828125 132.554998645 48.1189453125 214.993164062 48.1189453125 c 0
 312.793720705 48.1189453125 359.355507812 76.4368213777 359.355507812 131.364414062 c 0
 359.355507812 174.071077785 336.918425674 202.603143913 220.3641604 224.535484131 c 0
EndSplineSet
EndChar

StartChar: y
Encoding: 121 121 49
Width: 539
Flags: W
HStem: 481.011 20G<28.4725 109.547 430.059 510.527>
LayerCount: 2
Fore
SplineSet
236.79825 19.96325 m 1
 28.4725 501.010742188 l 1
 100.876 501.010742188 l 1
 275.606445312 97.9693359377 l 1
 438.124 501.010742188 l 1
 510.5275 501.010742188 l 1
 228.80725 -179.994140625 l 1
 153.19275 -179.994140625 l 1
 236.79825 19.96325 l 1
EndSplineSet
Substitution2: "'ss04' Style Set 4 lookup 5-1" y.ss04
EndChar

StartChar: u
Encoding: 117 117 50
Width: 595
Flags: W
HStem: -9.92285 60.7869<203.933 375.86> 0 21G<455.479 522.883> 481.011 20G<79.867 147.27 455.479 522.883>
VStem: 79.867 67.4035<113.131 501.011> 455.479 67.4035<207.449 501.011>
LayerCount: 2
Fore
SplineSet
455.47934375 217.010742188 m 9xb8
 496.53434375 207.44921875 l 17
 471.87897536 57.0107421877 400.001318762 -9.9228515625 267.72234375 -9.9228515625 c 0
 143.665085216 -9.9228515625 79.867 61.4431833952 79.867 210.39421875 c 2
 79.867 501.010742188 l 1
 147.2705 501.010742188 l 1
 147.2705 227.39421875 l 2
 147.2705 101.623234142 189.7643861 50.8640625 289.80484375 50.8640625 c 0
 392.575697998 50.8640625 455.47934375 117.380301422 455.47934375 217.010742188 c 9xb8
522.88284375 501.010742188 m 1
 522.88284375 0 l 1
 455.47934375 0 l 1x78
 455.47934375 501.010742188 l 1
 522.88284375 501.010742188 l 1
EndSplineSet
Substitution2: "'ss05' Style Set 5 lookup 6-1" u.ss05
EndChar

StartChar: backslash
Encoding: 92 92 51
Width: 434
Flags: W
LayerCount: 2
Fore
SplineSet
323.00925 -171.469726562 m 1
 48.00925 761.403320312 l 1
 110.99075 761.403320312 l 1
 385.99075 -171.469726562 l 1
 323.00925 -171.469726562 l 1
EndSplineSet
EndChar

StartChar: equal
Encoding: 61 61 52
Width: 450
Flags: W
HStem: 246.734 54.6238<30 420> 414.642 54.6238<30 420>
LayerCount: 2
Back
SplineSet
420 285 m 5xea
 30 285 l 5
 30 431 l 5
 420 431 l 5
 420 285 l 5xea
EndSplineSet
Fore
SplineSet
420 246.734 m 1
 30 246.734 l 1
 30 301.35775 l 1
 420 301.35775 l 1
 420 246.734 l 1
420 414.64225 m 1
 30 414.64225 l 1
 30 469.266 l 1
 420 469.266 l 1
 420 414.64225 l 1
EndSplineSet
EndChar

StartChar: v
Encoding: 118 118 53
Width: 539
Flags: W
HStem: 0 21G<224.73 323.871> 481.011 20G<28.4725 108.798 430.579 510.527>
LayerCount: 2
Fore
SplineSet
232.89 0 m 1
 28.4725 501.010742188 l 1
 100.876 501.010742188 l 1
 273.606445312 64.9143359377 l 1
 438.124 501.010742188 l 1
 510.5275 501.010742188 l 1
 316.11 0 l 1
 232.89 0 l 1
EndSplineSet
EndChar

StartChar: w
Encoding: 119 119 54
Width: 735
Flags: W
HStem: 0 21G<161.043 255.634 478.419 572.997> 481.011 20G<21.9725 95.1305 639.869 713.028>
LayerCount: 2
Fore
SplineSet
166.82575 0 m 1
 21.9725 501.010742188 l 1
 89.5595 501.010742188 l 1
 209.633945312 69.9418359377 l 1
 324.101 451.010742188 l 1
 410.20175 451.010742188 l 1
 525.366054688 69.9418359377 l 1
 645.4405 501.010742188 l 1
 713.0275 501.010742188 l 1
 567.17425 0 l 1
 484.58725 0 l 1
 367.5 379.621796875 l 1
 249.41275 0 l 1
 166.82575 0 l 1
EndSplineSet
EndChar

StartChar: x
Encoding: 120 120 55
Width: 528
Flags: W
HStem: 0 21G<28.4725 130.192 400.968 499.528> 481.011 20G<38.4725 134.225 393.775 489.527>
VStem: 256.339 15.321<213.55 288.211>
LayerCount: 2
Fore
SplineSet
115.57325 0 m 1
 28.4725 0 l 1
 221.4955 252.69725 l 1
 38.4725 501.010742188 l 1
 119.96775 501.010742188 l 1
 271.6605 288.211 l 1
 271.6605 213.5505 l 1
 115.57325 0 l 1
415.913 0 m 1
 256.3395 213.5505 l 1
 256.3395 288.211 l 1
 408.03225 501.010742188 l 1
 489.5275 501.010742188 l 1
 306.5045 252.69725 l 1
 499.5275 0 l 1
 415.913 0 l 1
EndSplineSet
EndChar

StartChar: z
Encoding: 122 122 56
Width: 478
Flags: W
HStem: 0 61.6512<123.614 438> 439.359 61.6513<50 344.385>
LayerCount: 2
Fore
SplineSet
438 0 m 1
 40 0 l 1
 40 0 40 61.1375 40 61.1375 c 1
 40 61.1375 344.3855 439.359492188 344.3855 439.359492188 c 1
 50 439.359492188 l 1
 50 501.010742188 l 1
 428 501.010742188 l 1
 428 443.359492188 l 1
 428 443.359492188 123.6145 61.65125 123.6145 61.65125 c 1
 123.6145 61.65125 438 61.65125 438 61.65125 c 1
 438 61.65125 438 0 438 0 c 1
EndSplineSet
EndChar

StartChar: period
Encoding: 46 46 57
Width: 245
Flags: W
HStem: -10 104.614<79.0164 166.21>
VStem: 70.9175 103.392<-1.80515 86.4192>
LayerCount: 2
Fore
SplineSet
70.9175 42.307109375 m 0
 70.9175 73.9953701426 91.2945252419 94.61421875 122.612304688 94.61421875 c 0
 153.931152008 94.61421875 174.3090625 73.9953701426 174.3090625 42.307109375 c 0
 174.3090625 10.6183006712 153.931152008 -10 122.612304688 -10 c 0
 91.2945252422 -10 70.9175 10.6183006712 70.9175 42.307109375 c 0
EndSplineSet
EndChar

StartChar: two
Encoding: 50 50 58
Width: 608
Flags: W
HStem: 0 65.0733<134.836 562.049> 675.103 63.8888<175.961 400.255>
VStem: 61.4725 73.3637<65.0733 149.925> 479.075 68.2142<447.608 605.743>
LayerCount: 2
Fore
SplineSet
479.07503125 523.66975 m 0
 479.07503125 606.958090116 431.088413109 675.103382812 290.300625 675.103382812 c 0
 184.177622674 675.103382812 108.184835938 619.167882812 108.184835938 619.167882812 c 1
 83.097515625 678.585875 l 1
 83.097515625 678.585875 168.852523303 738.9921875 293.66390625 738.9921875 c 0
 451.815842649 738.9921875 547.28921875 666.047670238 547.28921875 522.08959375 c 0
 547.28921875 395.913755129 461.402613891 342.783601976 349.374023438 289.5189375 c 0
 160.293232038 201.631476275 135.480902149 141.782417359 134.836226562 65.07325 c 1
 562.048828125 65.07325 l 1
 562.048828125 0 l 1
 61.4725 0 l 1
 61.4725 54 l 2
 61.4725 191.523483222 151.183090089 272.027279736 314.821289062 348.592453125 c 0
 417.832857205 396.586627004 479.07503125 431.835483279 479.07503125 523.66975 c 0
EndSplineSet
Substitution2: "'frac' Diagonal Fractions in Latin lookup 26 subtable" two.numr
Substitution2: "'onum' Oldstyle Figures lookup 18-1" two.osf
Substitution2: "'tnum' Tabular Numbers lookup 17-1" two.tf
Substitution2: "'numr' Numerators lookup 0 subtable" two.numr
Substitution2: "'dnom' Denominators lookup 0 subtable" two.dnom
Substitution2: "'sups' Superscript lookup 0 subtable" two.superior
Substitution2: "'sinf' Scientific Inferiors lookup 0 subtable" two.inferior
Substitution2: "'sups' Superscript lookup 0 subtable" two.superior
EndChar

StartChar: three
Encoding: 51 51 59
Width: 579
Flags: W
HStem: -9.99805 62.6162<114.179 374.513> 341.918 61.6464<164.139 376.523> 675.406 63.5861<127.304 368.597>
VStem: 440.634 68.2142<459.717 610.557> 453.568 71.1205<119.889 276.602>
LayerCount: 2
Fore
SplineSet
258.638671875 403.563945312 m 2xe8
 381.412513668 403.563945312 440.633625 446.900912195 440.633625 533.12284375 c 0
 440.633625 614.005043364 394.54273445 675.406132812 249.770766602 675.406132812 c 0
 136.89691406 675.406132812 71.1631796875 625.470632812 71.1631796875 625.470632812 c 1
 48.103359375 684.796875 l 1
 48.103359375 684.796875 123.462835368 738.9921875 254.09175 738.9921875 c 0
 413.871785431 738.9921875 508.8478125 669.541801025 508.8478125 537.748914062 c 0xf0
 508.8478125 404.50427163 382.745585938 373.605515625 382.745585938 373.605515625 c 1
 382.745585938 373.605515625 524.688632812 347.037133363 524.688632812 198.927864502 c 0
 524.688632812 52.9718380876 414.880355428 -9.998046875 250 -9.998046875 c 0
 111.382018194 -9.998046875 28.923671875 40.9091796875 28.923671875 40.9091796875 c 1
 51.7881640625 102.849695312 l 1
 51.7881640625 102.849695312 125.121388681 52.618203125 246.9725 52.618203125 c 0
 387.725027809 52.618203125 453.568148438 104.430336556 453.568148438 197.844 c 0
 453.568148438 297.343945308 386.541409856 341.296715905 258.638671875 341.654804688 c 2
 164 341.9175 l 1
 164.138671875 403.563945312 l 1
 258.638671875 403.563945312 l 2xe8
EndSplineSet
Substitution2: "'frac' Diagonal Fractions in Latin lookup 26 subtable" three.numr
Substitution2: "'onum' Oldstyle Figures lookup 18-1" three.osf
Substitution2: "'tnum' Tabular Numbers lookup 17-1" three.tf
Substitution2: "'numr' Numerators lookup 0 subtable" three.numr
Substitution2: "'dnom' Denominators lookup 0 subtable" three.dnom
Substitution2: "'sups' Superscript lookup 0 subtable" three.superior
Substitution2: "'sinf' Scientific Inferiors lookup 0 subtable" three.inferior
Substitution2: "'sups' Superscript lookup 0 subtable" three.superior
EndChar

StartChar: comma
Encoding: 44 44 61
Width: 252
Flags: W
HStem: -11.541 106.155<81.3641 124.434>
VStem: 70.9175 110.392<-0.211682 82.4949>
LayerCount: 2
Fore
SplineSet
70.9175 42.307109375 m 0
 70.9175 73.9953701426 91.2945252419 94.61421875 122.612304688 94.61421875 c 0
 158.171880838 94.61421875 181.3090625 71.2926739653 181.3090625 29.0825 c 0
 181.3090625 -42.7920061098 102.422 -99.266 102.422 -99.266 c 1
 71.06425 -66.0275 l 1
 71.06425 -66.0275 108.499748182 -43.8684303165 124.434492188 -11.54096875 c 1
 91.7425280223 -8.76712958609 70.9175 11.8238915513 70.9175 42.307109375 c 0
EndSplineSet
EndChar

StartChar: zero
Encoding: 48 48 63
Width: 683
Flags: W
HStem: -9.99805 64.8379<247.47 436.308> 674.283 64.8379<247.47 436.308>
VStem: 55.2225 69.8576<207.149 521.975> 558.697 69.8576<207.149 521.975>
LayerCount: 2
Fore
SplineSet
125.080132812 364.561523438 m 0
 125.080132812 178.83584306 190.013022817 54.8398671875 341.888671875 54.8398671875 c 0
 493.764320933 54.8398671875 558.697210938 178.83584306 558.697210938 364.561523438 c 0
 558.697210938 550.287203809 493.764320933 674.283179688 341.888671875 674.283179688 c 0
 190.013022817 674.283179688 125.080132812 550.287203809 125.080132812 364.561523438 c 0
55.2225 364.561523438 m 0
 55.2225 591.206054688 154.350419714 739.12109375 341.888671875 739.12109375 c 0
 529.426924036 739.12109375 628.55484375 591.206054688 628.55484375 364.561523438 c 0
 628.55484375 137.916992188 529.426924036 -9.998046875 341.888671875 -9.998046875 c 0
 154.350419714 -9.998046875 55.2225 137.916992188 55.2225 364.561523438 c 0
EndSplineSet
Substitution2: "'frac' Diagonal Fractions in Latin lookup 26 subtable" zero.numr
Substitution2: "'onum' Oldstyle Figures lookup 18-1" zero.osf
Substitution2: "'tnum' Tabular Numbers lookup 17-1" zero.tf
Substitution2: "'numr' Numerators lookup 0 subtable" zero.numr
Substitution2: "'dnom' Denominators lookup 0 subtable" zero.dnom
Substitution2: "'sups' Superscript lookup 0 subtable" zero.superior
Substitution2: "'sinf' Scientific Inferiors lookup 0 subtable" zero.inferior
Substitution2: "'sups' Superscript lookup 0 subtable" zero.superior
EndChar

StartChar: one
Encoding: 49 49 64
Width: 415
Flags: W
HStem: 0 21G<256.335 329.555> 711 20G<236.6 329.555>
VStem: 256.335 73.22<0 648.899>
LayerCount: 2
Fore
SplineSet
329.555 731 m 1
 329.555 0 l 1
 256.335 0 l 1
 256.335 648.89925 l 1
 74.5 549.95425 l 1
 47.4175 608 l 1
 273.335 731 l 1
 329.555 731 l 1
EndSplineSet
Substitution2: "'frac' Diagonal Fractions in Latin lookup 26 subtable" one.numr
Substitution2: "'onum' Oldstyle Figures lookup 18-1" one.osf
Substitution2: "'tnum' Tabular Numbers lookup 17-1" one.tf
Substitution2: "'numr' Numerators lookup 0 subtable" one.numr
Substitution2: "'dnom' Denominators lookup 0 subtable" one.dnom
Substitution2: "'sups' Superscript lookup 0 subtable" one.superior
Substitution2: "'sinf' Scientific Inferiors lookup 0 subtable" one.inferior
Substitution2: "'sups' Superscript lookup 0 subtable" one.superior
EndChar

StartChar: four
Encoding: 52 52 65
Width: 660
Flags: W
HStem: 0 21G<421.495 490.204> 196.523 62.0733<149.665 605.227> 711 20G<408.537 490.204>
VStem: 421.495 68.709<0 627.697>
LayerCount: 2
Fore
SplineSet
490.2045 731 m 1
 490.2045 0 l 1
 421.4955 0 l 1
 421.4955 627.6975 l 1
 149.665 258.59625 l 1
 605.2275 258.59625 l 1
 605.2275 196.523 l 1
 79.4725 196.523 l 1
 63.445 249.59625 l 1
 423.4955 731 l 1
 490.2045 731 l 1
EndSplineSet
Substitution2: "'frac' Diagonal Fractions in Latin lookup 26 subtable" four.numr
Substitution2: "'onum' Oldstyle Figures lookup 18-1" four.osf
Substitution2: "'tnum' Tabular Numbers lookup 17-1" four.tf
Substitution2: "'numr' Numerators lookup 0 subtable" four.numr
Substitution2: "'dnom' Denominators lookup 0 subtable" four.dnom
Substitution2: "'sups' Superscript lookup 0 subtable" four.superior
Substitution2: "'sinf' Scientific Inferiors lookup 0 subtable" four.inferior
Substitution2: "'sups' Superscript lookup 0 subtable" four.superior
EndChar

StartChar: exclam
Encoding: 33 33 66
Width: 274
Flags: W
HStem: -10 104.614<93.4032 180.597> 711.008 20G<102.101 175.899>
VStem: 85.3042 103.392<-1.80515 86.4192> 102.101 73.798<327.014 731.008> 111.129 55.743<210 613.994>
LayerCount: 2
Fore
SplineSet
111.1285 210 m 1xc8
 102.101 731.0078125 l 1
 175.899 731.0078125 l 1xd0
 166.8715 210 l 1
 111.1285 210 l 1xc8
85.30421875 42.307109375 m 0xe0
 85.30421875 73.9953701426 105.681243992 94.61421875 136.999023438 94.61421875 c 0
 168.317870758 94.61421875 188.69578125 73.9953701426 188.69578125 42.307109375 c 0
 188.69578125 10.6183006712 168.317870758 -10 136.999023438 -10 c 0
 105.681243992 -10 85.30421875 10.6183006712 85.30421875 42.307109375 c 0xe0
EndSplineSet
EndChar

StartChar: five
Encoding: 53 53 67
Width: 594
Flags: W
HStem: -9.99805 64.3878<126.817 372.761> 412.89 60.8106<209.353 392.335> 666.162 64.8457<165.956 498.172>
VStem: 470.494 69.1107<141.605 333.869>
LayerCount: 2
Fore
SplineSet
267 -9.998046875 m 0
 123.992919276 -9.998046875 38.923671875 40.9091796875 38.923671875 40.9091796875 c 1
 60.7881640625 103.363445312 l 1
 60.7881640625 103.363445312 144.465221753 54.38978125 252 54.38978125 c 0
 405.681551973 54.38978125 470.493976562 124.733293334 470.493976562 238.603671875 c 0
 470.493976562 347.761390509 412.040823639 412.889796875 297.9725 412.889796875 c 0
 175.941075471 412.889796875 138.032 316.1835 138.032 316.1835 c 1
 71.933515625 334.058765625 l 1
 107.98625 731.0078125 l 1
 498.171875 731.0078125 l 1
 498.171875 666.162070312 l 1
 165.9559375 666.162070312 l 1
 140.952203125 398.212015625 l 1
 140.952203125 398.212015625 182.145133363 473.700367188 314.815429688 473.700367188 c 0
 453.341144138 473.700367188 539.604648438 386.300934938 539.604648438 240.524570312 c 0
 539.604648438 85.2474068181 440.935862746 -9.998046875 267 -9.998046875 c 0
EndSplineSet
Substitution2: "'frac' Diagonal Fractions in Latin lookup 26 subtable" five.numr
Substitution2: "'onum' Oldstyle Figures lookup 18-1" five.osf
Substitution2: "'tnum' Tabular Numbers lookup 17-1" five.tf
Substitution2: "'numr' Numerators lookup 0 subtable" five.numr
Substitution2: "'dnom' Denominators lookup 0 subtable" five.dnom
Substitution2: "'sups' Superscript lookup 0 subtable" five.superior
Substitution2: "'sinf' Scientific Inferiors lookup 0 subtable" five.inferior
Substitution2: "'sups' Superscript lookup 0 subtable" five.superior
EndChar

StartChar: six
Encoding: 54 54 68
Width: 640
Flags: W
HStem: -9.99805 65.3564<232.291 431.399> 418.423 58.1767<230.478 432.289> 675.933 63.0597<253.309 486.339>
VStem: 55.2225 62.5237<352.992 507.359> 519.075 65.8674<142.554 334.316>
LayerCount: 2
Back
SplineSet
188.3984375 236.890625 m 4
 188.3984375 160.019065367 229.88147703 103.890625 330.3984375 103.890625 c 4
 431.623435844 103.890625 473.3984375 160.019065367 473.3984375 236.890625 c 4
 473.3984375 314.340166284 431.623435844 370.890625 330.3984375 370.890625 c 4
 229.88147703 370.890625 188.3984375 314.340166284 188.3984375 236.890625 c 4
173.303710938 405.747070312 m 5
 173.303710938 405.747070312 214.094697864 475.599609375 341.263671875 475.599609375 c 4
 515.711185917 475.599609375 595.165039062 379.238029036 595.165039062 239 c 4
 595.165039062 79.095703125 494.937095781 -9.998046875 331.297851562 -9.998046875 c 4
 151.540405276 -9.998046875 45 99.6728515624 45 365.331054688 c 4
 45 605.528320312 159.046377502 738.9921875 364.297851562 738.9921875 c 4
 505.428880973 738.9921875 576.923828125 678.860351562 576.923828125 678.860351562 c 5
 532.619140625 573.388671875 l 5
 532.619140625 573.388671875 473.487673927 622.51953125 364.778320312 622.51953125 c 4
 242.266224145 622.51953125 180.301516454 546.295339891 173.303710938 405.747070312 c 5
EndSplineSet
Fore
SplineSet
139.9326875 236.890625 m 0
 139.9326875 131.968315367 202.300560781 55.358375 330.3984375 55.358375 c 0
 461.267351172 55.358375 519.0751875 131.968315367 519.0751875 236.890625 c 0
 519.0751875 341.812934633 463.956505377 418.422875 330.3984375 418.422875 c 0
 202.300560781 418.422875 139.9326875 341.812934633 139.9326875 236.890625 c 0
117.746210938 346.994570312 m 1
 117.746210938 346.994570312 151.630967043 476.599609375 340.080171875 476.599609375 c 0
 492.705096818 476.599609375 584.942539062 379.830752031 584.942539062 239 c 0
 584.942539062 79.095703125 488.597534619 -9.998046875 331.297851562 -9.998046875 c 0
 151.789406591 -9.998046875 55.2225 99.6728515622 55.2225 365.331054688 c 0
 55.2225 605.528320312 162.045832129 738.9921875 354.297851562 738.9921875 c 0
 492.81037725 738.9921875 562.978828125 683.741101562 562.978828125 683.741101562 c 1
 539.619140625 628.196171875 l 1
 539.619140625 628.196171875 476.195343711 675.93253125 359.594820312 675.93253125 c 0
 204.851691777 675.93253125 119.964377753 582.552673291 117.746210938 346.994570312 c 1
EndSplineSet
Substitution2: "'frac' Diagonal Fractions in Latin lookup 26 subtable" six.numr
Substitution2: "'onum' Oldstyle Figures lookup 18-1" six.osf
Substitution2: "'tnum' Tabular Numbers lookup 17-1" six.tf
Substitution2: "'numr' Numerators lookup 0 subtable" six.numr
Substitution2: "'dnom' Denominators lookup 0 subtable" six.dnom
Substitution2: "'ss07' Style Set 7 lookup 8-1" six.ss07
Substitution2: "'sups' Superscript lookup 0 subtable" six.superior
Substitution2: "'sinf' Scientific Inferiors lookup 0 subtable" six.inferior
Substitution2: "'sups' Superscript lookup 0 subtable" six.superior
EndChar

StartChar: parenright
Encoding: 41 41 69
Width: 402
Flags: W
HStem: -171.47 62.0849<46.9725 142.019> 697.385 62.0849<46.9725 142.019>
VStem: 287.98 67.174<88.1495 499.85>
LayerCount: 2
Fore
SplineSet
46.9725 -109.384835938 m 1
 201.52110847 -109.384835938 287.980492188 2.3779372908 287.980492188 294 c 0
 287.980492188 585.622062708 201.52110847 697.384835938 46.9725 697.384835938 c 1
 46.9725 759.469726562 l 1
 247.373747496 759.469726562 355.154453125 611.823242188 355.154453125 294 c 0
 355.154453125 -23.823242188 247.373747496 -171.469726562 46.9725 -171.469726562 c 1
 46.9725 -109.384835938 l 1
EndSplineSet
EndChar

StartChar: seven
Encoding: 55 55 70
Width: 604
Flags: W
HStem: 0 21G<208.285 283.021> 665.624 65.376<54.55 470.625>
VStem: 208.285 72.8255<0 173.546>
LayerCount: 2
Fore
SplineSet
281.11 0 m 1
 208.2845 0 l 1
 221.631692888 394.2676547 470.6245 665.624 470.6245 665.624 c 1
 54.55 665.624 l 1
 54.55 731 l 1
 549.45 731 l 1
 549.45 669.624 l 1
 549.45 669.624 284.932342332 388.3903304 281.11 0 c 1
EndSplineSet
Substitution2: "'frac' Diagonal Fractions in Latin lookup 26 subtable" seven.numr
Substitution2: "'onum' Oldstyle Figures lookup 18-1" seven.osf
Substitution2: "'tnum' Tabular Numbers lookup 17-1" seven.tf
Substitution2: "'numr' Numerators lookup 0 subtable" seven.numr
Substitution2: "'dnom' Denominators lookup 0 subtable" seven.dnom
Substitution2: "'sups' Superscript lookup 0 subtable" seven.superior
Substitution2: "'sinf' Scientific Inferiors lookup 0 subtable" seven.inferior
Substitution2: "'sups' Superscript lookup 0 subtable" seven.superior
EndChar

StartChar: eight
Encoding: 56 56 71
Width: 647
Flags: W
HStem: -9.99805 60.9287<208.801 438.199> 353.315 55.5263<221.228 429.925> 366.546 34.3118<172.693 477.561> 677.53 61.3545<225.433 424.101>
VStem: 56.5225 66.6848<125.456 276.67> 91.7823 65.092<469.077 616.006> 495.126 65.092<470.434 616.006> 523.793 66.6848<125.456 276.67>
LayerCount: 2
Fore
SplineSet
324.8945 408.841273438 m 0xd6
 429.925200376 408.841273438 495.125757812 459.341061557 495.125757812 539.538890625 c 0
 495.125757812 626.300382736 431.964098875 677.530296875 323.5 677.530296875 c 0
 218.196242244 677.530296875 156.874242188 626.300382736 156.874242188 539.538890625 c 0
 156.874242188 459.341061557 221.227994353 408.841273438 324.8945 408.841273438 c 0xd6
323.5 738.884765625 m 0
 471.045723522 738.884765625 560.217734375 665.090820312 560.217734375 543.655273438 c 0
 560.217734375 434.534204025 477.560866353 366.545742188 323.5 366.545742188 c 0xb6
 172.693060296 366.545742188 91.782265625 434.534204025 91.782265625 543.655273438 c 0
 91.782265625 665.090820312 179.070516149 738.884765625 323.5 738.884765625 c 0
323.5 50.930625 m 0
 446.181943757 50.930625 523.792671875 104.809311358 523.792671875 202.167257812 c 0
 523.792671875 294.607242428 446.209724884 353.314960938 323.5 353.314960938 c 0xd1
 200.790275116 353.314960938 123.207328125 294.607242428 123.207328125 202.167257812 c 0
 123.207328125 104.809311358 200.818056243 50.930625 323.5 50.930625 c 0
323.5 400.857578125 m 0xb9
 495.723690266 400.857578125 590.4775 328.614885909 590.4775 197.923085938 c 0
 590.4775 72.0449853848 485.451224971 -9.998046875 323.5 -9.998046875 c 0
 161.548775029 -9.998046875 56.5225 72.044985385 56.5225 197.923085938 c 0
 56.5225 328.614885909 151.276309734 400.857578125 323.5 400.857578125 c 0xb9
EndSplineSet
Substitution2: "'frac' Diagonal Fractions in Latin lookup 26 subtable" eight.numr
Substitution2: "'onum' Oldstyle Figures lookup 18-1" eight.osf
Substitution2: "'tnum' Tabular Numbers lookup 17-1" eight.tf
Substitution2: "'numr' Numerators lookup 0 subtable" eight.numr
Substitution2: "'dnom' Denominators lookup 0 subtable" eight.dnom
Substitution2: "'sups' Superscript lookup 0 subtable" eight.superior
Substitution2: "'sinf' Scientific Inferiors lookup 0 subtable" eight.inferior
Substitution2: "'sups' Superscript lookup 0 subtable" eight.superior
EndChar

StartChar: nine
Encoding: 57 57 72
Width: 640
Flags: W
HStem: -9.99805 63.0597<158.173 386.856> 252.395 59.5712<208.179 410.023> 673.636 65.3564<208.843 409.725>
VStem: 55.2225 66.4729<397.776 586.441> 522.419 62.5237<221.636 376.002>
LayerCount: 2
Fore
SplineSet
500.837851562 492.103515625 m 0
 500.837851562 597.025825258 438.469978283 673.635765625 310.372101562 673.635765625 c 0
 180.175476444 673.635765625 121.695351562 597.025825258 121.695351562 492.103515625 c 0
 121.695351562 387.987201405 176.814033687 311.965765625 310.372101562 311.965765625 c 0
 438.469978283 311.965765625 500.837851562 387.987201405 500.837851562 492.103515625 c 0
522.418828125 381.999570312 m 1
 522.418828125 381.999570312 488.693713058 252.39453125 300.084867188 252.39453125 c 0
 147.459942245 252.39453125 55.2225 349.164169963 55.2225 489.994140625 c 0
 55.2225 649.8984375 151.567504446 738.9921875 308.8671875 738.9921875 c 0
 489.061119803 738.9921875 584.942539062 629.321289062 584.942539062 363.663085938 c 0
 584.942539062 123.465820312 478.119206933 -9.998046875 285.8671875 -9.998046875 c 0
 151.669053242 -9.998046875 83.6862109375 45.2530390625 83.6862109375 45.2530390625 c 1
 83.6862109375 45.2530390625 107.045898438 100.79796875 107.045898438 100.79796875 c 1
 107.045898438 100.79796875 168.179700982 53.061609375 280.57021875 53.061609375 c 0
 435.313347286 53.061609375 520.200661309 146.442725259 522.418828125 381.999570312 c 1
EndSplineSet
Substitution2: "'frac' Diagonal Fractions in Latin lookup 26 subtable" nine.numr
Substitution2: "'onum' Oldstyle Figures lookup 18-1" nine.osf
Substitution2: "'tnum' Tabular Numbers lookup 17-1" nine.tf
Substitution2: "'numr' Numerators lookup 0 subtable" nine.numr
Substitution2: "'dnom' Denominators lookup 0 subtable" nine.dnom
Substitution2: "'ss07' Style Set 7 lookup 8-1" nine.ss07
Substitution2: "'sups' Superscript lookup 0 subtable" nine.superior
Substitution2: "'sinf' Scientific Inferiors lookup 0 subtable" nine.inferior
Substitution2: "'sups' Superscript lookup 0 subtable" nine.superior
EndChar

StartChar: question
Encoding: 63 63 73
Width: 562
Flags: W
HStem: -10 104.614<181.403 268.597> 312.594 57.5926<226.041 379.492> 675.642 63.3507<123.183 352.695>
VStem: 173.304 103.392<-1.80515 86.4192> 193.34 65.1211<210 315.048> 440.403 67.9944<428.444 595.101>
LayerCount: 2
Back
SplineSet
152.38671875 63.224609375 m 0xf4
 152.38671875 107.584937143 181.008990842 136.44921875 224.999023438 136.44921875 c 0
 268.990077228 136.44921875 297.61328125 107.584937143 297.61328125 63.224609375 c 0
 297.61328125 18.8635145521 268.990077228 -10 224.999023438 -10 c 0
 181.008990842 -10 152.38671875 18.8635145521 152.38671875 63.224609375 c 0xf4
280.88671875 300.653320312 m 1
 282.37890625 210 l 1
 169.422851562 210 l 1xec
 171.15625 399.46875 l 1
 171.15625 399.46875 208.949224154 395.048828125 256.3984375 395.048828125 c 0
 348.180522211 395.048828125 392.095703125 431.389934102 392.095703125 499.145507812 c 0
 392.095703125 585.201602829 327.571533338 623.228515625 232.89453125 623.228515625 c 0
 138.66274719 623.228515625 76.923828125 573.958007812 76.923828125 573.958007812 c 1
 30.2412109375 685.311523438 l 1
 30.2412109375 685.311523438 107.390463661 738.9921875 239.89453125 738.9921875 c 0
 405.150107971 738.9921875 521.870117188 670 521.870117188 501.010742188 c 0
 521.870117188 365.685958308 421.37343496 300.59375 309 300.59375 c 0
 290.63582236 300.59375 280.88671875 300.653320312 280.88671875 300.653320312 c 1
EndSplineSet
Fore
SplineSet
173.30421875 42.307109375 m 0xf4
 173.30421875 73.9953701426 193.681243992 94.61421875 224.999023438 94.61421875 c 0
 256.317870758 94.61421875 276.69578125 73.9953701426 276.69578125 42.307109375 c 0
 276.69578125 10.6183006712 256.317870758 -10 224.999023438 -10 c 0
 193.681243992 -10 173.30421875 10.6183006712 173.30421875 42.307109375 c 0xf4
256.96921875 315.047820312 m 1
 258.46140625 210 l 1
 193.340351562 210 l 1xec
 195.07375 376.00075 l 1
 195.07375 376.00075 232.411171779 370.186328125 279.2884375 370.186328125 c 0
 388.262255054 370.186328125 440.403203125 418.872807307 440.403203125 509.645507812 c 0
 440.403203125 624.769798176 360.555669065 675.641515625 243.39453125 675.641515625 c 0
 131.969013169 675.641515625 58.965078125 622.765507812 58.965078125 622.765507812 c 1
 33.7137109375 685.311523438 l 1
 33.7137109375 685.311523438 111.977037897 738.9921875 246.39453125 738.9921875 c 0
 399.944956281 738.9921875 508.397617188 663.485221159 508.397617188 511.510742188 c 0
 508.397617188 377.198782488 414.329035513 312.59375 303.633 312.59375 c 0
 273.151251513 312.59375 256.96921875 315.047820312 256.96921875 315.047820312 c 1
EndSplineSet
EndChar

StartChar: hyphen
Encoding: 45 45 74
Width: 354
Flags: W
HStem: 248.918 61.165<46.9725 307.027>
VStem: 46.9725 260.055<248.918 310.082>
LayerCount: 2
Fore
SplineSet
307.0275 248.9175 m 1
 46.9725 248.9175 l 1
 46.9725 310.0825 l 1
 307.0275 310.0825 l 1
 307.0275 248.9175 l 1
EndSplineSet
EndChar

StartChar: quotesingle
Encoding: 39 39 75
Width: 266
Flags: W
HStem: 456 275.008<109.945 160.055>
VStem: 100.918 68.165<517.764 731.008> 109.945 50.11<456 669.243>
LayerCount: 2
Fore
SplineSet
109.945 456 m 1xa0
 100.9175 731.0078125 l 1
 169.0825 731.0078125 l 1xc0
 160.055 456 l 1
 109.945 456 l 1xa0
EndSplineSet
EndChar

StartChar: parenleft
Encoding: 40 40 77
Width: 402
Flags: W
HStem: -171.47 62.0849<260.108 355.154> 697.385 62.0849<260.108 355.154>
VStem: 46.9725 67.174<88.1495 499.85>
LayerCount: 2
Fore
SplineSet
355.154453125 -109.384835938 m 1
 355.154453125 -171.469726562 l 1
 154.753205629 -171.469726562 46.9725 -23.823242188 46.9725 294 c 0
 46.9725 611.823242188 154.753205629 759.469726562 355.154453125 759.469726562 c 1
 355.154453125 697.384835938 l 1
 200.605844654 697.384835938 114.146460938 585.622062708 114.146460938 294 c 0
 114.146460938 2.3779372908 200.605844654 -109.384835938 355.154453125 -109.384835938 c 1
EndSplineSet
EndChar

StartChar: asterisk
Encoding: 42 42 78
Width: 400
Flags: W
HStem: 718.992 20G<167.754 232.685>
VStem: 173.882 52.6745<580.326 738.992>
LayerCount: 2
Fore
SplineSet
232.685023438 738.9921875 m 1
 226.556984375 580.325617188 l 1
 374.477179688 637.026804688 l 1
 395.440429688 574.827890625 l 1
 245.465234375 534.740078125 l 1
 348.419023438 414.089335938 l 1
 299.13015625 372.494992188 l 1
 200.219726562 507.754195312 l 1
 101.309296875 372.494992188 l 1
 52.0204296875 414.089335938 l 1
 154.97421875 534.740078125 l 1
 5 574.827890625 l 1
 25.96325 637.026804688 l 1
 173.88246875 580.325617188 l 1
 167.754429688 738.9921875 l 1
 232.685023438 738.9921875 l 1
EndSplineSet
Substitution2: "'ss13' Style Set 13 lookup 14-1" asterisk.ss13
EndChar

StartChar: less
Encoding: 60 60 79
Width: 450
Flags: W
LayerCount: 2
Fore
SplineSet
420 168.945 m 1
 30 325.9175 l 1
 30 390.0825 l 1
 420 547.055 l 1
 420 487.89 l 1
 420 487.89 103.646601562 358 103.646601562 358 c 1
 103.646601562 358 420 228.11 420 228.11 c 1
 420 168.945 l 1
EndSplineSet
EndChar

StartChar: greater
Encoding: 62 62 80
Width: 450
Flags: W
LayerCount: 2
Fore
SplineSet
30 547.055 m 1
 420 390.0825 l 1
 420 325.9175 l 1
 30 168.945 l 1
 30 228.11 l 1
 343.325898438 358 l 1
 30 487.89 l 1
 30 547.055 l 1
EndSplineSet
EndChar

StartChar: slash
Encoding: 47 47 81
Width: 434
Flags: W
LayerCount: 2
Fore
SplineSet
48.00925 -171.469726562 m 1
 323.00925 761.403320312 l 1
 385.99075 761.403320312 l 1
 110.99075 -171.469726562 l 1
 48.00925 -171.469726562 l 1
EndSplineSet
Substitution2: "'frac' Diagonal Fractions in Latin lookup 25 subtable" fraction
EndChar

StartChar: bar
Encoding: 124 124 82
Width: 249
Flags: W
VStem: 94.4038 60.1925<-171.47 759.47>
LayerCount: 2
Fore
SplineSet
94.40375 -171.469726562 m 1
 94.40375 759.469726562 l 1
 154.59625 759.469726562 l 1
 154.59625 -171.469726562 l 1
 94.40375 -171.469726562 l 1
EndSplineSet
EndChar

StartChar: bracketleft
Encoding: 91 91 83
Width: 375
Flags: W
HStem: -171.47 58.6237<140.77 318.027> 701.846 57.6237<140.77 318.027>
VStem: 76.3945 64.376<-112.846 701.846>
LayerCount: 2
Fore
SplineSet
76.3945 759.469726562 m 1
 318.0275 759.469726562 l 1
 318.0275 701.845976562 l 1
 140.7705 701.845976562 l 1
 140.7705 -112.845976562 l 1
 318.0275 -112.845976562 l 1
 318.0275 -171.469726562 l 1
 76.3945 -171.469726562 l 1
 76.3945 759.469726562 l 1
EndSplineSet
EndChar

StartChar: bracketright
Encoding: 93 93 84
Width: 375
Flags: W
HStem: -171.47 58.6237<56.9725 234.23> 701.543 57.9265<56.9725 234.23>
VStem: 234.23 64.376<-112.846 701.543>
LayerCount: 2
Fore
SplineSet
298.6055 -171.469726562 m 1
 56.9725 -171.469726562 l 1
 56.9725 -112.845976562 l 1
 234.2295 -112.845976562 l 1
 234.2295 701.543226562 l 1
 56.9725 701.543226562 l 1
 56.9725 759.469726562 l 1
 298.6055 759.469726562 l 1
 298.6055 -171.469726562 l 1
EndSplineSet
EndChar

StartChar: asciicircum
Encoding: 94 94 85
Width: 449
Flags: W
HStem: 440 291.008
LayerCount: 2
Fore
SplineSet
263.0825 731.0078125 m 1
 427.0275 440 l 1
 361.8625 440 l 1
 225.393554688 684.175976562 l 1
 88.1375 440 l 1
 21.9725 440 l 1
 185.9175 731.0078125 l 1
 263.0825 731.0078125 l 1
EndSplineSet
EndChar

StartChar: braceleft
Encoding: 123 123 86
Width: 433
Flags: W
HStem: -171.47 56.6198<238.586 378.007> 282.45 64.165<50 143.364> 702.85 56.6198<238.486 377.825>
VStem: 153.945 67.165<-97.045 272.336 355.902 685.044>
LayerCount: 2
Fore
SplineSet
174.75225 314.532226562 m 1
 174.75225 314.532226562 221.11 291.19234561 221.11 216.504726562 c 2
 221.11 -39.3636328125 l 2
 221.11 -97.322632463 252.724519109 -114.849882812 309.055 -114.849882812 c 0
 363.928881007 -114.849882812 376 -106.363632812 376 -106.363632812 c 1
 383 -159.377976562 l 1
 383 -159.377976562 348.659613402 -171.469726562 292.9725 -171.469726562 c 0
 190.617240423 -171.469726562 153.945 -121.782421875 153.945 -37.4697265625 c 2
 153.945 206.504726562 l 2
 153.945 264.477862903 135.446953125 282.449726562 98.945 282.449726562 c 2
 50 282.449726562 l 1
 50 346.614726562 l 1
 98.945 346.614726562 l 2
 135.446953125 346.614726562 153.945 364.587786433 153.945 422.559726562 c 2
 153.945 625.469726562 l 2
 153.945 709.780112593 190.617240423 759.469726562 292.9725 759.469726562 c 0
 343.786990979 759.469726562 383 747.377976562 383 747.377976562 c 1
 376 694.363632812 l 1
 376 694.363632812 354.83722629 702.849882812 308.055 702.849882812 c 0
 252.365164276 702.849882812 221.11 685.321608615 221.11 627.363632812 c 2
 221.11 412.559726562 l 2
 221.11 336.007652181 174.75225 314.532226562 174.75225 314.532226562 c 1
EndSplineSet
EndChar

StartChar: grave
Encoding: 96 96 87
Width: 242
Flags: W
HStem: 536 205.008
VStem: 24.945 192.11
LayerCount: 2
Fore
SplineSet
171.9175 536 m 1
 24.945 711.0078125 l 1
 89.11 741.0078125 l 1
 217.055 556 l 1
 171.9175 536 l 1
EndSplineSet
EndChar

StartChar: underscore
Encoding: 95 95 88
Width: 564
Flags: W
HStem: -56.1375 56.1375<40 524>
LayerCount: 2
Fore
SplineSet
524 -56.1375 m 1
 524 -56.1375 40 -56.1375 40 -56.1375 c 1
 40 -56.1375 40 0 40 0 c 1
 524 0 l 1
 524 0 524 -56.1375 524 -56.1375 c 1
EndSplineSet
EndChar

StartChar: dollar
Encoding: 36 36 89
Width: 591
Flags: W
HStem: -10 67.1407<144.916 393.898> 670.98 68.1407<207.995 446.023> 696.835 132.635<262.76 326.252>
VStem: 66.5995 73.5315<471.65 611.434> 262.76 63.4918<-105 34.6072 696.835 829.47> 465.87 73.6769<119.103 261.846>
LayerCount: 2
Fore
SplineSet
262.760058594 -105 m 1x9c
 262.760058594 -105 262.760058594 34.6072265625 262.760058594 34.6072265625 c 1
 262.760058594 34.6072265625 326.251904297 34.6072265625 326.251904297 34.6072265625 c 1
 326.251904297 34.6072265625 326.251904297 -105 326.251904297 -105 c 1
 262.760058594 -105 l 1x9c
262.760058594 696.834863281 m 1xbc
 262.760058594 829.469726562 l 1
 326.251904297 829.469726562 l 1
 326.251904297 696.834863281 l 1
 262.760058594 696.834863281 l 1xbc
EndSplineSet
Refer: 22 83 N 1 0 0 1 0 0 2
EndChar

StartChar: percent
Encoding: 37 37 90
Width: 953
Flags: W
HStem: -9.99805 56.2205<650.884 794.08> 0 21G<190.667 257.833> 305.632 56.2195<649.768 795.214> 367.143 56.2195<162.329 303.08> 682.772 56.2205<159.085 304.214> 711.008 20G<671.638 752.333>
VStem: 51.9725 62.6142<472.261 634.996> 350.484 60.5038<472.261 634.996> 542.972 61.6142<95.1206 257.856> 841.484 60.5038<95.1206 257.856>
LayerCount: 2
Fore
SplineSet
604.58665625 176.481445312 m 0xb3c0
 604.58665625 83.0340108292 661.02178029 46.2224765625 722.48046875 46.2224765625 c 0
 782.951752508 46.2224765625 841.48365625 83.0340108292 841.48365625 176.481445312 c 0
 841.48365625 271.192522229 782.951752508 305.632015625 722.48046875 305.632015625 c 0
 661.02178029 305.632015625 604.58665625 271.192522229 604.58665625 176.481445312 c 0xb3c0
542.9725 176.481445312 m 0
 542.9725 278.624023438 608.468523726 361.8515625 722.48046875 361.8515625 c 0
 836.491450534 361.8515625 901.987460938 278.624023438 901.987460938 176.481445312 c 0
 901.987460938 74.4218750004 836.491450534 -9.998046875 722.48046875 -9.998046875 c 0
 608.468523726 -9.998046875 542.9725 74.4218750004 542.9725 176.481445312 c 0
114.58665625 553.622070312 m 0
 114.58665625 460.175109733 170.571024416 423.362125 231.48046875 423.362125 c 0
 291.951752508 423.362125 350.48365625 460.175109733 350.48365625 553.622070312 c 0
 350.48365625 648.331991961 291.951752508 682.771664062 231.48046875 682.771664062 c 0x3bc0
 170.571024416 682.771664062 114.58665625 648.331991961 114.58665625 553.622070312 c 0
51.9725 553.622070312 m 0
 51.9725 655.764648438 117.468523726 738.9921875 231.48046875 738.9921875 c 0
 345.491450534 738.9921875 410.987460938 655.764648438 410.987460938 553.622070312 c 0
 410.987460938 451.5625 345.491450534 367.142578125 231.48046875 367.142578125 c 0
 117.468523726 367.142578125 51.9725 451.5625 51.9725 553.622070312 c 0
EndSplineSet
Refer: 138 8260 N 1 0 0 1 301 0 2
EndChar

StartChar: at
Encoding: 64 64 91
Width: 924
Flags: W
HStem: -159.727 56.1981<344.826 646.692> 71.9697 56.6804<368.272 513.654 657.328 779.464> 424.376 54.6999<386.622 530.121> 652.601 55.1258<341.862 614.319>
VStem: 41.9725 57.8261<134.483 403.707> 258.328 67.7734<173.327 359.243> 574.706 61.6229<190.137 331.945> 578.056 44.2514<154.354 350.156> 829.215 53.0994<195.964 448.689>
LayerCount: 2
Fore
SplineSet
326.101398438 261.0546875 m 0xfe80
 326.101398438 174.414117583 365.511308086 128.650132812 440.130085938 128.650132812 c 0
 525.11911605 128.650132812 574.705617188 190.137442377 574.705617188 295.529296875 c 0
 574.705617188 378.742674364 531.255386714 424.376234375 460.678960938 424.376234375 c 0
 375.597314104 424.376234375 326.101398438 364.308512101 326.101398438 261.0546875 c 0xfe80
423.392578125 71.9697265625 m 0
 324.575874234 71.9697265625 258.328046875 146.245237785 258.328046875 257.037109375 c 0
 258.328046875 388.627283766 339.217971546 479.076171875 451 479.076171875 c 0
 565.965491776 479.076171875 622.307632812 397.834420047 622.307632812 271.55259375 c 0xfd80
 622.307632812 154.354195824 540.200272466 71.9697265625 423.392578125 71.9697265625 c 0
487.713867188 -159.7265625 m 0
 211.714771019 -159.7265625 41.9725 14.611328125 41.9725 268.08984375 c 0
 41.9725 524.041992188 219.948093467 707.7265625 476.420898438 707.7265625 c 0
 713.388998647 707.7265625 882.314609375 561.379882812 882.314609375 321.901367188 c 0
 882.314609375 171.18359375 819.757994911 72.708984375 710.571953125 72.708984375 c 0
 627.490948043 72.708984375 578.056203125 120.982421875 578.056203125 228.081054688 c 0xfd80
 578.056203125 350.15625 617.086476562 476.46484375 617.086476562 476.46484375 c 1
 677.97515625 476.46484375 l 1
 677.97515625 476.46484375 636.328515625 331.944544316 636.328515625 227.827148438 c 0xfe80
 636.328515625 160.327106962 660.29853773 124.705765625 717.7615 124.705765625 c 0
 783.020802613 124.705765625 829.215242188 188.324050718 829.215242188 328.072265625 c 0
 829.215242188 535.481915576 680.52136921 652.60078125 475.076125 652.60078125 c 0
 259.303759893 652.60078125 99.7985546877 504.193510866 99.7985546877 267.489257812 c 0
 99.7985546877 36.9437848135 245.518104493 -103.5285 492.7989375 -103.5285 c 0
 670.24117522 -103.5285 781.16378125 -22.1213828125 781.16378125 -22.1213828125 c 1
 805.250976562 -72.2255859375 l 1
 805.250976562 -72.2255859375 701.004882812 -159.7265625 487.713867188 -159.7265625 c 0
EndSplineSet
EndChar

StartChar: numbersign
Encoding: 35 35 92
Width: 767
Flags: W
HStem: 0 21G<133.234 199.794 403.234 469.794> 199.339 60.321<61.9725 670.028> 454.339 60.321<96.9725 705.028> 711.008 20G<293.72 360.28 563.72 630.28>
LayerCount: 2
Fore
SplineSet
96.9725 514.6605 m 1
 705.0275 514.6605 l 1
 705.0275 454.3395 l 1
 96.9725 454.3395 l 1
 96.9725 514.6605 l 1
61.9725 259.6605 m 1
 670.0275 259.6605 l 1
 670.0275 199.3395 l 1
 61.9725 199.3395 l 1
 61.9725 259.6605 l 1
403.234 0 m 1
 568.234 731.0078125 l 1
 630.27975 731.0078125 l 1
 465.27975 0 l 1
 403.234 0 l 1
133.234 0 m 1
 298.234 731.0078125 l 1
 360.27975 731.0078125 l 1
 195.27975 0 l 1
 133.234 0 l 1
EndSplineSet
EndChar

StartChar: braceright
Encoding: 125 125 93
Width: 433
Flags: W
HStem: -171.47 56.6198<48.9382 190.603> 282.45 64.165<289.636 383> 702.85 56.6198<49.1202 190.717>
VStem: 211.89 67.165<-93.9373 272.336 355.902 681.937>
LayerCount: 2
Fore
SplineSet
258.945 314.532226562 m 1
 258.945 314.532226562 211.89 336.007652181 211.89 412.559726562 c 2
 211.89 616.464632812 l 2
 211.89 682.790807834 178.458172089 702.849882812 118.89 702.849882812 c 0
 72.1077737088 702.849882812 50.945 694.363632812 50.945 694.363632812 c 1
 43.945 747.377976562 l 1
 43.945 747.377976562 83.1580090206 759.469726562 133.9725 759.469726562 c 0
 240.785590558 759.469726562 279.055 705.73856705 279.055 614.570726562 c 2
 279.055 422.559726562 l 2
 279.055 364.587786433 297.553046875 346.614726562 334.055 346.614726562 c 2
 383 346.614726562 l 1
 383 282.449726562 l 1
 334.055 282.449726562 l 2
 297.553046875 282.449726562 279.055 264.477862903 279.055 206.504726562 c 2
 279.055 -26.5707265625 l 2
 279.055 -117.74106416 240.785590558 -171.469726562 133.9725 -171.469726562 c 0
 78.2853865979 -171.469726562 43.945 -159.377976562 43.945 -159.377976562 c 1
 50.945 -106.363632812 l 1
 50.945 -106.363632812 63.0161189932 -114.849882812 117.89 -114.849882812 c 0
 178.098826014 -114.849882812 211.89 -94.7919795089 211.89 -28.4646328125 c 2
 211.89 -28.4646328125 211.89 216.504726562 211.89 216.504726562 c 2
 211.89 291.19234561 258.945 314.532226562 258.945 314.532226562 c 1
EndSplineSet
EndChar

StartChar: asciitilde
Encoding: 126 126 94
Width: 436
VWidth: 999
Flags: W
HStem: 306.762 55.1375<242.563 364.376> 369.707 54.1375<73.8347 194.57>
LayerCount: 2
Fore
SplineSet
421 361.27525 m 1
 421 361.27525 374.371639345 306.7615 302.48625 306.7615 c 0
 221.568807693 306.7615 194.596326922 369.7065 135.51375 369.7065 c 0
 86.2466123189 369.7065 46.055 325.7065 46.055 325.7065 c 1
 15 373.844 l 1
 15 373.844 66.4854815574 423.844 133.51375 423.844 c 0
 213.146788462 423.844 246.541288462 361.899 300.48625 361.899 c 0
 357.0205 361.899 385.945 405.38525 385.945 405.38525 c 1
 421 361.27525 l 1
EndSplineSet
EndChar

StartChar: cent
Encoding: 162 162 95
Width: 495
Flags: W
HStem: 105.002 58.4159<210.389 419.901> 566.725 59.2089<208.121 407.61>
VStem: 51.9725 64.8076<261.116 474.981> 265.456 55.5479<-5 149.607 590.917 729.47>
LayerCount: 2
Fore
SplineSet
265.456201172 -5 m 1
 265.456201172 149.607226562 l 1
 321.004101563 149.607226562 l 1
 321.004101563 -5 l 1
 265.456201172 -5 l 1
265.456201172 590.917431641 m 1
 265.456201172 729.469726562 l 1
 321.004101563 729.469726562 l 1
 321.004101563 590.917431641 l 1
 265.456201172 590.917431641 l 1
EndSplineSet
Refer: 40 99 N 1 0 0 1 0 115 2
EndChar

StartChar: sterling
Encoding: 163 163 96
Width: 553
Flags: W
HStem: 0 65.0733<124.539 523> 313.918 60.165<50 434> 672.942 66.5196<210.252 434.863>
VStem: 153.797 68.8497<191.345 311.782>
LayerCount: 2
Fore
SplineSet
434 313.9175 m 1
 50 313.9175 l 1
 50 374.0825 l 1
 434 374.0825 l 1
 434 313.9175 l 1
523 0 m 1
 30 0 l 1
 30 61.07325 l 1
 30 61.07325 153.79671875 154.577334579 153.79671875 289.379882812 c 0
 153.79671875 391.588284089 76.3240625 418.167846584 76.3240625 547.185546875 c 0
 76.3240625 671.3984375 166.949098986 739.461914062 302.80859375 739.461914062 c 0
 434.263133105 739.461914062 492.98453125 695.038273438 492.98453125 695.038273438 c 1
 474.9375 634.373164062 l 1
 474.9375 634.373164062 399.953810848 672.94234375 316.89109375 672.94234375 c 0
 226.643603082 672.94234375 154.522578125 647.411912136 154.522578125 537.163391357 c 0
 154.522578125 430.888873767 222.646445312 410.093657444 222.646445312 290.158203125 c 0
 222.646445312 150.685144309 124.539335938 65.07325 124.539335938 65.07325 c 1
 523 65.07325 l 1
 523 0 l 1
EndSplineSet
EndChar

StartChar: yen
Encoding: 165 165 97
Width: 649
Flags: W
HStem: 0 21G<287.89 361.11> 188.945 58.11<99.5 549.5> 318.945 58.11<99.5 287.89 361.11 549.5> 328.973 48.0825<293.89 355.11> 711.008 20G<36.9725 124.165 512.581 612.028>
VStem: 287.89 73.22<0 384.027>
LayerCount: 2
Fore
SplineSet
293.89 328.9725 m 1xdc
 36.9725 731.0078125 l 1
 36.9725 731.0078125 124.165 731.0078125 124.165 731.0078125 c 1
 124.165 731.0078125 324.5 404.026015625 324.5 404.026015625 c 1
 524.835 731.0078125 l 1
 612.0275 731.0078125 l 1
 355.11 328.9725 l 1
 293.89 328.9725 l 1xdc
287.89 0 m 1
 287.89 384.0275 l 1
 361.11 384.0275 l 1
 361.11 0 l 1
 287.89 0 l 1
549.5 188.945 m 1
 99.5 188.945 l 1
 99.5 247.055 l 1
 549.5 247.055 l 1
 549.5 188.945 l 1
549.5 318.945 m 1xec
 99.5 318.945 l 1
 99.5 377.055 l 1
 549.5 377.055 l 1
 549.5 318.945 l 1xec
EndSplineSet
EndChar

StartChar: currency
Encoding: 164 164 98
Width: 513
Flags: W
HStem: 156.724 64.8104<176.302 335.717> 492.657 64.9979<165.339 346.835>
VStem: 59.5838 66.2246<271.402 442.609> 387.192 66.2246<274.994 441.358>
LayerCount: 2
Fore
SplineSet
350.101757812 220.409023438 m 1
 396.917148438 246.325195312 l 1
 491.287265625 110.820625 l 1
 424.442578125 73.1180078125 l 1
 350.101757812 220.409023438 l 1
163.158007812 220.409023438 m 1
 88.8171875 73.1180078125 l 1
 21.9725 110.820625 l 1
 116.342617188 246.325195312 l 1
 163.158007812 220.409023438 l 1
350.101757812 490.77359375 m 1
 424.442578125 638.063632812 l 1
 491.287265625 600.361015625 l 1
 396.917148438 464.856445312 l 1
 350.101757812 490.77359375 l 1
163.158007812 490.77359375 m 1
 116.342617188 464.856445312 l 1
 21.9725 600.361015625 l 1
 88.8171875 638.063632812 l 1
 163.158007812 490.77359375 l 1
125.808460938 359.283203125 m 0
 125.808460938 276.682413661 164.650958684 221.534046875 255.5 221.534046875 c 0
 347.750730109 221.534046875 387.191539062 276.682413661 387.191539062 359.283203125 c 0
 387.191539062 439.261255011 347.783810716 492.657359375 255.611328125 492.657359375 c 0
 164.684035572 492.657359375 125.808460938 439.261255011 125.808460938 359.283203125 c 0
59.583828125 359.283203125 m 0
 59.583828125 479.317382812 133.714144104 557.655273438 255.5 557.655273438 c 0
 378.529022697 557.655273438 453.416171875 479.317382812 453.416171875 359.283203125 c 0
 453.416171875 236.715820312 378.529022697 156.723632812 255.5 156.723632812 c 0
 133.714144104 156.723632812 59.583828125 236.715820312 59.583828125 359.283203125 c 0
EndSplineSet
EndChar

StartChar: brokenbar
Encoding: 166 166 99
Width: 249
Flags: W
VStem: 92.89 63.22<-171.47 239 339 759.47>
LayerCount: 2
Fore
SplineSet
92.89 -171.469726562 m 1
 92.89 239 l 1
 156.11 239 l 1
 156.11 -171.469726562 l 1
 92.89 -171.469726562 l 1
92.89 339 m 1
 92.89 759.469726562 l 1
 156.11 759.469726562 l 1
 156.11 339 l 1
 92.89 339 l 1
EndSplineSet
EndChar

StartChar: section
Encoding: 167 167 100
Width: 593
Flags: W
HStem: -19.6709 59.5281<166.785 362.798> 695.074 59.5281<227.117 423.038>
VStem: 46.6052 65.0521<339.221 431.084> 122.506 67.6359<546.014 659.752> 400.069 70.4249<74.5605 207.457> 481.343 65.0521<306.579 397.867>
LayerCount: 2
Fore
SplineSet
193.659912109 517.258984375 m 1
 230.578369141 476.0015625 l 1
 230.578369141 476.0015625 111.657324219 462.615260859 111.657324219 378.921191407 c 0
 111.657324219 341.018199022 145.949926682 312.298302312 292.860351562 296.23078125 c 0
 423.990136272 281.092312129 470.494296875 216.915846095 470.494296875 138.397617188 c 0
 470.494296875 39.9314503997 402.312255149 -19.6708984375 290.30078125 -19.6708984375 c 0
 177.5859375 -19.6708984375 122.76953125 19.734375 122.76953125 19.734375 c 1
 143.923984375 72.9626953123 l 1
 143.923984375 72.9626953123 197.232633797 39.8572265625 275.8046875 39.8572265625 c 0
 361.521529091 39.8572265625 400.069375 75.8868530857 400.069375 133.984609375 c 0
 400.069375 189.670924366 373.676635796 227.021110134 247.696289062 240.295429688 c 0
 89.2040871735 257.10273783 46.6051757812 312.274639922 46.6051757812 372.781933593 c 0
 46.6051757812 491.956743614 193.659912109 517.258984375 193.659912109 517.258984375 c 1
379.340087891 217.195751953 m 1
 348.4765625 264.508105469 l 1
 348.4765625 264.508105469 481.342675781 271.951883838 481.342675781 355.445068359 c 0
 481.342675781 401.045109297 437.849512367 422.974139332 292.208007812 445.368671875 c 0
 168.035567692 464.956112967 122.505703125 521.332871972 122.505703125 596.534023438 c 0
 122.505703125 695.000190225 190.687744851 754.602539062 302.69921875 754.602539062 c 0
 415.4140625 754.602539062 470.23046875 715.197265625 470.23046875 715.197265625 c 1
 449.076015625 660.574445312 l 1
 449.076015625 660.574445312 395.768397277 695.074414062 317.1953125 695.074414062 c 0
 229.554639803 695.074414062 190.141625 657.710337545 190.141625 597.46078125 c 0
 190.141625 552.383537926 215.335380035 518.618031149 352.260742188 499.08625 c 0
 500.393760192 477.235772003 546.394824219 421.68622505 546.394824219 356.622070312 c 0
 546.394824219 235.776239212 379.340087891 217.195751953 379.340087891 217.195751953 c 1
EndSplineSet
EndChar

StartChar: dieresis
Encoding: 168 168 101
Width: 459
Flags: W
HStem: 634.378 104.614<80.9031 168.097 290.903 378.097>
VStem: 72.8042 103.392<642.573 730.797> 282.804 103.392<642.573 730.797>
LayerCount: 2
Fore
SplineSet
282.80421875 686.685078125 m 0
 282.80421875 718.373570683 303.180992565 738.9921875 334.499023438 738.9921875 c 0
 365.818116981 738.9921875 386.19578125 718.373570683 386.19578125 686.685078125 c 0
 386.19578125 654.996013066 365.818116981 634.37796875 334.499023438 634.37796875 c 0
 303.180992565 634.37796875 282.80421875 654.996013066 282.80421875 686.685078125 c 0
72.80421875 686.685078125 m 0
 72.80421875 718.373570683 93.1809925656 738.9921875 124.499023438 738.9921875 c 0
 155.818116981 738.9921875 176.19578125 718.373570683 176.19578125 686.685078125 c 0
 176.19578125 654.996013066 155.818116981 634.37796875 124.499023438 634.37796875 c 0
 93.1809925653 634.37796875 72.80421875 654.996013066 72.80421875 686.685078125 c 0
EndSplineSet
EndChar

StartChar: copyright
Encoding: 169 169 102
Width: 797
Flags: W
HStem: -9.99805 57.7839<275.812 521.965> 177.281 53.3414<345.251 517.788> 498.5 53.3414<345.251 507.752> 681.337 57.7839<275.812 521.965>
VStem: 41.9725 58.034<227.8 501.323> 238.93 60.3778<277.893 451.23> 697.771 58.034<227.8 501.323>
LayerCount: 2
Fore
SplineSet
238.92953125 364.561523438 m 0
 238.92953125 477.88408452 300.309896458 551.841796875 418.401367188 551.841796875 c 0
 496.542235158 551.841796875 534.325351562 518.7265625 534.325351562 518.7265625 c 1
 513.423765625 472.042359375 l 1
 513.423765625 472.042359375 489.384623505 498.500351562 426.928867188 498.500351562 c 0
 334.037101073 498.500351562 299.307359375 444.878987329 299.307359375 364.561523438 c 0
 299.307359375 284.244059548 334.037101073 230.622695312 426.928867188 230.622695312 c 0
 491.667135759 230.622695312 519.465820312 253.688125 519.465820312 253.688125 c 1
 535.897617188 204.578125 l 1
 535.897617188 204.578125 496.073379804 177.28125 418.401367188 177.28125 c 0
 300.309896458 177.28125 238.92953125 251.238962356 238.92953125 364.561523438 c 0
100.006484375 364.561523438 m 0
 100.006484375 174.60598998 203.465197072 47.785875 398.888671875 47.785875 c 0
 594.312146678 47.785875 697.770859375 174.60598998 697.770859375 364.561523438 c 0
 697.770859375 554.517056895 594.312146678 681.337171875 398.888671875 681.337171875 c 0
 203.465197072 681.337171875 100.006484375 554.517056895 100.006484375 364.561523438 c 0
41.9725 364.561523438 m 0
 41.9725 591.206054688 177.02271663 739.12109375 398.888671875 739.12109375 c 0
 620.75462712 739.12109375 755.80484375 591.206054688 755.80484375 364.561523438 c 0
 755.80484375 137.916992188 620.75462712 -9.998046875 398.888671875 -9.998046875 c 0
 177.02271663 -9.998046875 41.9725 137.916992188 41.9725 364.561523438 c 0
EndSplineSet
EndChar

StartChar: registered
Encoding: 174 174 103
Width: 797
Flags: W
HStem: -9.99805 57.7839<275.812 521.965> 317.724 47.0473<297 458.653> 500.994 47.2622<319.688 467.728> 681.337 57.7839<275.812 521.965>
VStem: 41.9725 58.034<227.8 501.323> 259.473 60.2155<182.752 317.724 364.772 500.994> 297 22.688<317.724 364.772> 485.777 57.6393<379.622 481.486> 697.771 58.034<227.8 501.323>
LayerCount: 2
Fore
SplineSet
297 364.771734375 m 1xfb80
 384.866335938 364.826421875 l 2
 442.637448557 364.864850362 485.77684375 369.505578775 485.77684375 432.413953125 c 0
 485.77684375 488.129647724 442.637451618 500.899522136 384.866335938 500.942890625 c 2
 319.688 500.993671875 l 1
 319.688 182.751953125 l 1
 259.4725 182.751953125 l 1
 259.4725 548.255859375 l 1xfd80
 402.471835938 548.255859375 l 2
 476.629550781 548.255859375 543.416171875 517.162409044 543.416171875 432.707302246 c 0
 543.416171875 356.983633972 481.97675 338.404375 481.97675 338.404375 c 1
 481.97675 338.404375 512.088407239 329.087295801 530.3790625 271.451171875 c 2
 558.5275 182.751953125 l 1
 498.2065 182.751953125 l 1
 474.312 265.251953125 l 2
 459.978982526 314.583189996 433.510032787 317.724453125 385.422 317.724453125 c 2
 297 317.724453125 l 1
 297 364.771734375 l 1xfb80
100.006484375 364.561523438 m 0
 100.006484375 174.60598998 203.465197072 47.785875 398.888671875 47.785875 c 0
 594.312146678 47.785875 697.770859375 174.60598998 697.770859375 364.561523438 c 0
 697.770859375 554.517056895 594.312146678 681.337171875 398.888671875 681.337171875 c 0
 203.465197072 681.337171875 100.006484375 554.517056895 100.006484375 364.561523438 c 0
41.9725 364.561523438 m 0
 41.9725 591.206054688 177.02271663 739.12109375 398.888671875 739.12109375 c 0
 620.75462712 739.12109375 755.80484375 591.206054688 755.80484375 364.561523438 c 0
 755.80484375 137.916992188 620.75462712 -9.998046875 398.888671875 -9.998046875 c 0
 177.02271663 -9.998046875 41.9725 137.916992188 41.9725 364.561523438 c 0
EndSplineSet
EndChar

StartChar: uni2117
Encoding: 8471 8471 104
Width: 797
Flags: W
HStem: -9.99805 57.7839<275.812 521.965> 300.697 44.2583<312.116 478.324> 500.994 47.2622<331.474 479.115> 681.337 57.7839<275.812 521.965>
VStem: 41.9725 58.034<227.8 501.323> 270.561 60.9127<182.752 300.697 344.955 500.994> 312.116 19.3577<300.697 344.955> 501.971 57.0338<368.252 478.839> 697.771 58.034<227.8 501.323>
LayerCount: 2
Fore
SplineSet
312.116335938 300.696953125 m 1xfb80
 312.116335938 344.955234375 l 1xfb80
 392.560671875 345.009921875 l 2
 455.198098131 345.055330566 501.971179688 359.034633322 501.971179688 423.005703125 c 0
 501.971179688 486.370897492 458.178825338 500.85909045 399.533171875 500.942890625 c 2
 331.474085938 500.993671875 l 1
 331.474085938 182.751953125 l 1
 270.561335938 182.751953125 l 1
 270.561335938 548.255859375 l 1xfd80
 403.533171875 548.255859375 l 2
 485.334440664 548.255859375 559.005007812 514.143941385 559.005007812 423.005703125 c 0
 559.005007812 333.54766322 487.253436295 300.696953125 408.560671875 300.696953125 c 2
 312.116335938 300.696953125 l 1xfb80
100.006484375 364.561523438 m 0
 100.006484375 174.60598998 203.465197072 47.785875 398.888671875 47.785875 c 0
 594.312146678 47.785875 697.770859375 174.60598998 697.770859375 364.561523438 c 0
 697.770859375 554.517056895 594.312146678 681.337171875 398.888671875 681.337171875 c 0
 203.465197072 681.337171875 100.006484375 554.517056895 100.006484375 364.561523438 c 0
41.9725 364.561523438 m 0
 41.9725 591.206054688 177.02271663 739.12109375 398.888671875 739.12109375 c 0
 620.75462712 739.12109375 755.80484375 591.206054688 755.80484375 364.561523438 c 0
 755.80484375 137.916992188 620.75462712 -9.998046875 398.888671875 -9.998046875 c 0
 177.02271663 -9.998046875 41.9725 137.916992188 41.9725 364.561523438 c 0
EndSplineSet
EndChar

StartChar: guillemotleft
Encoding: 171 171 105
Width: 590
Flags: W
LayerCount: 2
Fore
SplineSet
65.9175 274.0275 m 1
 205.9175 441 l 1
 280.59625 441 l 1
 127.34625 254 l 1
 280.59625 67 l 1
 205.9175 67 l 1
 65.9175 233.9725 l 1
 65.9175 274.0275 l 1
315.9175 274.0275 m 1
 455.9175 441 l 1
 530.59625 441 l 1
 377.34625 254 l 1
 530.59625 67 l 1
 455.9175 67 l 1
 315.9175 233.9725 l 1
 315.9175 274.0275 l 1
EndSplineSet
EndChar

StartChar: guillemotright
Encoding: 187 187 106
Width: 590
Flags: W
LayerCount: 2
Fore
SplineSet
524.0825 233.9725 m 1
 384.0825 67 l 1
 309.40375 67 l 1
 462.65375 254 l 1
 309.40375 441 l 1
 384.0825 441 l 1
 524.0825 274.0275 l 1
 524.0825 233.9725 l 1
274.0825 233.9725 m 1
 134.0825 67 l 1
 59.40375 67 l 1
 212.65375 254 l 1
 59.40375 441 l 1
 134.0825 441 l 1
 274.0825 274.0275 l 1
 274.0825 233.9725 l 1
EndSplineSet
EndChar

StartChar: mu
Encoding: 181 181 107
Width: 595
Flags: W
HStem: -9.92285 60.7869<200.481 379.797> 0 21G<461.979 529.383> 481.011 20G<73.367 140.77 461.979 529.383>
VStem: 73.367 67.4035<-180 501.011> 91.055 49.7155<56.9261 321.011> 461.979 67.4035<207.449 501.011>
LayerCount: 2
Fore
SplineSet
73.367 -180 m 1x34
 73.367 501.010742188 l 1
 140.7705 501.010742188 l 1
 140.7705 -180 l 1
 73.367 -180 l 1x34
461.97934375 217.010742188 m 9
 503.03434375 207.44921875 l 17
 478.331024908 57.0107421877 402.34560014 -9.9228515625 273.77734375 -9.9228515625 c 0
 157.645439248 -9.9228515625 91.055 56.9260601597 91.055 196.44921875 c 2
 91.055 321.010742188 l 1xac
 140.7705 321.010742188 l 1
 140.7705 213.44921875 l 2
 140.7705 110.456927991 180.321486673 50.8640625 289.80484375 50.8640625 c 0xb4
 396.46908752 50.8640625 461.97934375 117.380301422 461.97934375 217.010742188 c 9
529.38284375 501.010742188 m 1
 529.38284375 0 l 1
 461.97934375 0 l 1x64
 461.97934375 501.010742188 l 1
 529.38284375 501.010742188 l 1
EndSplineSet
EndChar

StartChar: acute
Encoding: 180 180 108
Width: 242
Flags: W
HStem: 536 205.008
VStem: 24.945 192.11
LayerCount: 2
Fore
SplineSet
70.0825 536 m 1
 24.945 556 l 1
 152.89 741.0078125 l 1
 217.055 711.0078125 l 1
 70.0825 536 l 1
EndSplineSet
EndChar

StartChar: macron
Encoding: 175 175 109
Width: 374
Flags: W
HStem: 673.237 57.7705<46.9725 327.027>
VStem: 46.9725 280.055<673.237 731.008>
LayerCount: 2
Fore
SplineSet
327.0275 673.2373125 m 1
 46.9725 673.2373125 l 1
 46.9725 731.0078125 l 1
 327.0275 731.0078125 l 1
 327.0275 673.2373125 l 1
EndSplineSet
EndChar

StartChar: uni00AD
Encoding: 173 173 110
Width: 354
Flags: W
HStem: 248.918 61.165<50 304>
VStem: 50 254<248.918 310.082>
LayerCount: 2
Fore
SplineSet
304 248.9175 m 1
 50 248.9175 l 1
 50 310.0825 l 1
 304 310.0825 l 1
 304 248.9175 l 1
EndSplineSet
EndChar

StartChar: logicalnot
Encoding: 172 172 111
Width: 450
Flags: W
HStem: 327.431 61.1375<30 343.349>
VStem: 343.349 61.6513<168.486 327.431>
LayerCount: 2
Fore
SplineSet
405 168.48625 m 1
 343.34875 168.48625 l 1
 343.34875 327.43125 l 1
 30 327.43125 l 1
 30 388.56875 l 1
 405 388.56875 l 1
 405 168.48625 l 1
EndSplineSet
EndChar

StartChar: minus
Encoding: 8722 8722 112
Width: 450
Flags: W
HStem: 329.523 56.954<30 420>
LayerCount: 2
Fore
SplineSet
420 329.523 m 1
 30 329.523 l 1
 30 386.477 l 1
 420 386.477 l 1
 420 329.523 l 1
EndSplineSet
EndChar

StartChar: notequal
Encoding: 8800 8800 113
Width: 450
Flags: W
HStem: 246.734 54.6238<30 420> 414.642 54.6238<30 420>
LayerCount: 2
Fore
SplineSet
90.568875 108.530273438 m 1
 295.568875 601.403320312 l 1
 357.614625 601.403320312 l 1
 152.614625 108.530273438 l 1
 90.568875 108.530273438 l 1
EndSplineSet
Refer: 52 61 N 1 0 0 1 0 0 2
EndChar

StartChar: partialdiff
Encoding: 8706 8706 114
Width: 620
Flags: W
HStem: -9.99805 65.0537<194.974 386.417> 411.753 58.8465<212.207 395.223> 676.933 62.0597<185.115 385.001>
VStem: 51.9725 69.8674<130.692 321.317> 498.788 69.4045<372.335 528.207>
LayerCount: 2
Fore
SplineSet
473.904351562 246.890625 m 0
 473.904351562 342.178125 411.69574999 411.753125 309.766601562 411.753125 c 0
 183.992235535 411.753125 121.839851562 333.737758028 121.839851562 226.890625 c 0
 121.839851562 127.573147935 170.896776454 55.055625 289.766601562 55.055625 c 0
 420.111439153 55.055625 473.904351562 136.013514907 473.904351562 246.890625 c 0
498.788078125 368.820320312 m 1
 496.946106938 569.581087403 432.492558687 676.93253125 293.602475586 676.93253125 c 0
 195.341001293 676.93253125 140.931148438 629.223671875 140.931148438 629.223671875 c 1
 113.241210938 688.860351562 l 1
 113.241210938 688.860351562 174.648733922 738.9921875 295.8671875 738.9921875 c 0
 470.923735983 738.9921875 568.192539062 612.671898034 568.192539062 385.331054688 c 0
 568.192539062 105.516837439 464.246819607 -9.998046875 288.8671875 -9.998046875 c 0
 141.955144404 -9.998046875 51.9725 75.5176128099 51.9725 229 c 0
 51.9725 372.20164401 147.737148438 470.599609375 298.873867188 470.599609375 c 0
 450.23663813 470.599609375 498.788078125 368.820320312 498.788078125 368.820320312 c 1
EndSplineSet
EndChar

StartChar: emptyset
Encoding: 8709 8709 115
Width: 797
Flags: W
HStem: -9.99805 62.7187<276.041 521.736> 676.402 62.7187<275.44 526.628>
VStem: 41.9725 63.0136<228.866 500.257> 692.791 63.0136<228.866 500.257>
LayerCount: 2
Fore
SplineSet
104.986132812 364.561523438 m 0
 104.986132812 177.565027347 199.98072513 52.7206171875 398.888671875 52.7206171875 c 0
 597.79661862 52.7206171875 692.791210938 177.565027347 692.791210938 364.561523438 c 0
 692.791210938 551.558019525 597.79661862 676.402429688 398.888671875 676.402429688 c 0
 199.98072513 676.402429688 104.986132812 551.558019525 104.986132812 364.561523438 c 0
41.9725 364.561523438 m 0
 41.9725 591.206054688 177.02271663 739.12109375 398.888671875 739.12109375 c 0
 620.75462712 739.12109375 755.80484375 591.206054688 755.80484375 364.561523438 c 0
 755.80484375 137.916992188 620.75462712 -9.998046875 398.888671875 -9.998046875 c 0
 177.02271663 -9.998046875 41.9725 137.916992188 41.9725 364.561523438 c 0
132.4175 -90.873046875 m 1
 597.4175 812 l 1
 664.5825 812 l 1
 199.5825 -90.873046875 l 1
 132.4175 -90.873046875 l 1
EndSplineSet
EndChar

StartChar: Delta
Encoding: 8710 8710 116
Width: 719
Flags: W
HStem: 0 68.4035<133.917 585.083> 711.008 20G<311.897 397.401>
LayerCount: 2
Fore
SplineSet
667.0275 0 m 1
 51.9725 0 l 1
 51.9725 58.4035 l 1
 319.8625 731.0078125 l 1
 389.1375 731.0078125 l 1
 667.0275 58.4035 l 1
 667.0275 0 l 1
585.08275 68.4035 m 1
 585.08275 68.4035 355.393554688 639.120976562 355.393554688 639.120976562 c 1
 355.393554688 639.120976562 133.91725 68.4035 133.91725 68.4035 c 1
 133.91725 68.4035 585.08275 68.4035 585.08275 68.4035 c 1
EndSplineSet
EndChar

StartChar: plusminus
Encoding: 177 177 117
Width: 450
Flags: W
HStem: 158.275 53.9265<30 420> 357.037 56.954<30 420>
VStem: 196.523 56.954<163.275 558.303>
LayerCount: 2
Fore
SplineSet
420 158.27525 m 1
 30 158.27525 l 1
 30 212.20175 l 1
 420 212.20175 l 1
 420 158.27525 l 1
196.523 163.27525 m 1
 196.523 558.30275 l 1
 253.477 558.30275 l 1
 253.477 163.27525 l 1
 196.523 163.27525 l 1
420 357.03675 m 1
 30 357.03675 l 1
 30 413.99075 l 1
 420 413.99075 l 1
 420 357.03675 l 1
EndSplineSet
EndChar

StartChar: degree
Encoding: 176 176 118
Width: 431
Flags: W
HStem: 414.015 51.6639<141.322 291.479> 709.151 51.8514<139.369 291.501>
VStem: 41.9725 56.7606<508.038 667.078> 333.044 56.7606<508.038 667.078>
LayerCount: 2
Fore
SplineSet
98.733109375 587.826992188 m 0
 98.733109375 514.581152197 133.491011483 465.679179688 214.786132812 465.679179688 c 0
 297.626411851 465.679179688 333.044234375 514.581152197 333.044234375 587.826992188 c 0
 333.044234375 660.579105223 297.663750636 709.150585938 214.909179688 709.150585938 c 0
 133.528357216 709.150585938 98.733109375 660.579105223 98.733109375 587.826992188 c 0
41.9725 587.602382812 m 0
 41.9725 692.526149243 107.400290618 761.001953125 214.888671875 761.001953125 c 0
 323.620221435 761.001953125 389.80484375 692.526149243 389.80484375 587.602382812 c 0
 389.80484375 482.565774297 323.620221435 414.0153125 214.888671875 414.0153125 c 0
 107.400290618 414.0153125 41.9725 482.565774297 41.9725 587.602382812 c 0
EndSplineSet
EndChar

StartChar: cedilla
Encoding: 184 184 120
Width: 317
VWidth: 999
Flags: W
HStem: -244.541 47.0825<58.4277 203.654> -83.211 44.7797<112.588 207.73>
VStem: 216.826 56.2293<-183.77 -92.2124>
LayerCount: 2
Fore
SplineSet
273.055 -134.48625 m 0
 273.055 -204.575933326 228.187884299 -244.54125 144.6055 -244.54125 c 0
 81.0019944476 -244.54125 36.69725 -217.35775 36.69725 -217.35775 c 1
 53.30275 -172.27525 l 1
 53.30275 -172.27525 85.0763217131 -197.45875 136.27525 -197.45875 c 0
 196.193206156 -197.45875 216.82575 -173.363057305 216.82575 -137.48625 c 0
 216.82575 -99.673162224 194.137731845 -83.211 157.27525 -83.211 c 0
 113.854107714 -83.211 98.72475 -107.51375 98.72475 -107.51375 c 1
 53.9725 -92 l 1
 75.9725 39 l 1
 128.56875 39 l 1
 112.567851562 -53.823765625 l 1
 112.567851562 -53.823765625 128.325274224 -38.43125 169.055 -38.43125 c 0
 232.026998762 -38.43125 273.055 -74.6906480824 273.055 -134.48625 c 0
EndSplineSet
EndChar

StartChar: paragraph
Encoding: 182 182 121
Width: 682
Flags: W
HStem: 669.855 61.1375<384.971 516.806>
VStem: 40 344.971<398.594 610.074> 321.779 63.1925<-179.994 276.717> 516.806 63.1925<-179.994 669.855>
LayerCount: 2
Fore
SplineSet
384.971171875 -179.994140625 m 1xb0
 321.778671875 -179.994140625 l 1
 321.778671875 276.7169375 l 1xb0
 149.247750695 279.7444375 40 334.914420328 40 506.405117188 c 0xd0
 40 668.958127646 152 730.9921875 293.888671875 730.9921875 c 2
 579.998671875 730.9921875 l 1
 579.998671875 -179.994140625 l 1
 516.806171875 -179.994140625 l 1
 516.806171875 669.8546875 l 1
 384.971171875 669.8546875 l 1
 384.971171875 -179.994140625 l 1xb0
EndSplineSet
EndChar

StartChar: ordfeminine
Encoding: 170 170 122
Width: 402
Flags: W
HStem: 369.992 47.2935<106.584 239.863 327.889 379.428> 546.662 44.055<124.671 286.707> 690.396 48.5962<89.873 242.265>
VStem: 36.9725 56.532<431.531 521.216> 267.734 54.321<420.195 486.992 590.992 664.276> 267.734 27.2385<414.55 481.387>
LayerCount: 2
Fore
SplineSet
267.734 494.9921875 m 1xf4
 267.734 448.006861918 227.927648148 417.2856875 170.0275 417.2856875 c 0
 115.901475609 417.2856875 93.5045 440.408526209 93.5045 477.0196875 c 0
 93.5045 529.476088276 140.450780374 546.6619375 286.7065 546.6619375 c 1
 286.7065 590.7169375 l 1
 141.12165695 590.7169375 36.9725 570.528462923 36.9725 475.9921875 c 0
 36.9725 411.9921875 82.9725 369.9921875 156.9725 369.9921875 c 0
 250.769375 369.9921875 294.9725 414.5499875 294.9725 481.3866875 c 1
 267.734 494.9921875 l 1xf4
267.734 590.9921875 m 2xf8
 267.734 459.9921875 l 2
 267.734 398.9921875 290.667816489 369.9921875 337.27525 369.9921875 c 0
 368.535080986 369.9921875 383.51375 382.8086875 383.51375 382.8086875 c 1
 377.51375 422.8911875 l 1
 377.51375 422.8911875 368.157881579 418.1939375 352.11925 418.1939375 c 0
 330.644785714 418.1939375 322.055 436.141307065 322.055 486.9921875 c 2
 322.055 595.9921875 l 2
 322.055 682.197861259 282.08884375 738.9921875 186 738.9921875 c 0
 110.168680358 738.9921875 58.09175 708.0839375 58.09175 708.0839375 c 1
 76.33025 660.6986875 l 1
 76.33025 660.6986875 118.389112069 690.3959375 177.9725 690.3959375 c 0
 240.226443548 690.3959375 267.734 659.933497983 267.734 590.9921875 c 2xf8
EndSplineSet
EndChar

StartChar: ordmasculine
Encoding: 186 186 123
Width: 418
Flags: W
HStem: 367.992 52.11<141.215 279.291> 686.882 52.11<141.215 276.972>
VStem: 39.9725 56.532<465.987 640.356> 321.495 56.532<465.987 640.356>
LayerCount: 2
Fore
SplineSet
96.5045 554.9921875 m 0
 96.5045 472.964484797 132.997880159 420.1021875 209 420.1021875 c 0
 286.609198414 420.1021875 321.4955 472.964484797 321.4955 554.9921875 c 0
 321.4955 633.01162412 285.002119841 686.8821875 209 686.8821875 c 0
 132.997880159 686.8821875 96.5045 633.01162412 96.5045 554.9921875 c 0
39.9725 555.9921875 m 0
 39.9725 667.025895365 104.49375 738.9921875 209 738.9921875 c 0
 314.415 738.9921875 378.0275 667.025895365 378.0275 555.9921875 c 0
 378.0275 441.959400615 314.415 367.9921875 209 367.9921875 c 0
 104.49375 367.9921875 39.9725 441.959400615 39.9725 555.9921875 c 0
EndSplineSet
EndChar

StartChar: arrowleft
Encoding: 8592 8592 124
Width: 550
Flags: W
HStem: 321.952 73.376<101.077 537.749> 329.163 58.954<87.914 524.586>
LayerCount: 2
Fore
SplineSet
537.749023438 321.951648438 m 1x80
 87.9140234377 329.162648438 l 1
 87.9140234377 388.116648438 l 1x40
 537.749023438 395.327648438 l 1
 537.749023438 321.951648438 l 1x80
95.7265234377 358.638671875 m 1
 286.931132812 174.3464375 l 1
 236.363992188 123.779296875 l 1
 12.2509765625 358.638671875 l 1
 236.363992188 593.5 l 1
 286.931132812 542.93090625 l 1
 95.7265234377 358.638671875 l 1
EndSplineSet
EndChar

StartChar: product
Encoding: 8719 8719 128
Width: 719
Flags: W
HStem: 665.329 65.6788<145.192 573.808>
VStem: 71.9725 73.22<-179.994 665.329> 573.808 73.22<-179.994 665.329>
LayerCount: 2
Fore
SplineSet
647.0275 731.0078125 m 1
 647.0275 -179.994140625 l 1
 573.8075 -179.994140625 l 1
 573.8075 665.3290625 l 1
 145.1925 665.3290625 l 1
 145.1925 -179.994140625 l 1
 71.9725 -179.994140625 l 1
 71.9725 731.0078125 l 1
 647.0275 731.0078125 l 1
EndSplineSet
EndChar

StartChar: summation
Encoding: 8721 8721 129
Width: 634
Flags: W
HStem: -179.994 65.376<144.431 587.028> 665.632 65.376<158.853 587.028>
LayerCount: 2
Back
SplineSet
264 585.0078125 m 5
 394 410 l 5
 394 319 l 5
 244 146 l 5
 544 146 l 5
 544 0 l 5
 55 0 l 5
 55 161 l 5
 235 358 l 5
 55 589 l 5
 55 731.0078125 l 5
 544 731.0078125 l 5
 544 585.0078125 l 5
 264 585.0078125 l 5
EndSplineSet
Fore
SplineSet
158.853 665.6318125 m 1
 403.7155 304.899 l 1
 403.7155 255.734 l 1
 144.431 -114.618140625 l 1
 587.0275 -114.618140625 l 1
 587.0275 -179.994140625 l 1
 71.9725 -179.994140625 l 1
 71.9725 -99.618140625 l 1
 335.9175 278 l 1
 71.9725 669.624 l 1
 71.9725 731.0078125 l 1
 587.0275 731.0078125 l 1
 587.0275 665.6318125 l 1
 158.853 665.6318125 l 1
EndSplineSet
EndChar

StartChar: approxequal
Encoding: 8776 8776 130
Width: 450
VWidth: 999
Flags: W
HStem: 217.918 57.2292<233.261 376.199> 266.918 56.2292<79.5269 205.542> 405.128 57.9265<235.877 372.811> 454.128 56.9265<77.7694 204.386>
LayerCount: 2
Fore
SplineSet
431.0275 268.945 m 1x80
 431.0275 268.945 379.092929688 217.9175 299.0275 217.9175 c 0x80
 221.489414062 217.9175 195.642734375 266.9175 139.0275 266.9175 c 0
 93.317355072 266.9175 56.0275 226.523 56.0275 226.523 c 1
 18.9725 273.14675 l 1
 18.9725 273.14675 70.259103745 323.14675 137.0275 323.14675 c 0x40
 214.76588501 323.14675 247.36588501 275.14675 300.0275 275.14675 c 0
 363.759784616 275.14675 396.367 313.2385 396.367 313.2385 c 1
 431.0275 268.945 l 1x80
431.0275 462.43125 m 1
 431.0275 462.43125 379.092929688 405.1285 299.0275 405.1285 c 0x20
 221.489414062 405.1285 195.642734375 454.1285 139.0275 454.1285 c 0
 93.317355072 454.1285 56.0275 415.1285 56.0275 415.1285 c 1
 21.7615 461.055 l 1
 21.7615 461.055 73.048103745 511.055 139.8165 511.055 c 0x10
 217.55488501 511.055 250.15488501 463.055 302.8165 463.055 c 0x20
 364.242496154 463.055 395.66975 505.33025 395.66975 505.33025 c 1
 431.0275 462.43125 l 1
EndSplineSet
EndChar

StartChar: perthousand
Encoding: 8240 8240 131
Width: 1263
Flags: W
HStem: -9.99805 56.2205<649.447 794.354 960.608 1105.52> 0 21G<190.667 257.833> 305.632 56.2195<648.348 795.482 959.497 1106.63> 367.143 56.2195<162.351 303.059> 682.772 56.2205<159.107 304.192> 711.008 20G<671.638 752.333>
VStem: 51.9725 62.6142<472.261 634.996> 350.484 60.5038<472.261 634.996> 542.972 61.6142<91.8565 261.094> 841.722 72.626<83.0344 271.193> 857.972 39.015<74.4222 278.624> 1151.48 60.5038<95.1208 259.867>
LayerCount: 2
Fore
SplineSet
914.34815625 176.481445312 m 0xb3d0
 914.34815625 83.0343774499 967.767796875 46.2224765625 1033.05846875 46.2224765625 c 0
 1096.60412268 46.2224765625 1151.48365625 83.0343774499 1151.48365625 176.481445312 c 0
 1151.48365625 271.192719442 1096.60412268 305.632015625 1033.05846875 305.632015625 c 0
 967.767796875 305.632015625 914.34815625 271.192719442 914.34815625 176.481445312 c 0xb3d0
857.9725 176.481445312 m 0xb3b0
 857.9725 278.623614564 923.468337283 361.8515625 1037.48046875 361.8515625 c 0
 1154.25955546 361.8515625 1211.98746094 278.623614564 1211.98746094 176.481445312 c 0
 1211.98746094 74.4221678793 1154.25955546 -9.998046875 1037.48046875 -9.998046875 c 0
 923.468337283 -9.998046875 857.9725 74.4221678793 857.9725 176.481445312 c 0xb3b0
604.58665625 176.481445312 m 0
 604.58665625 83.0340108292 657.378105989 46.2224765625 721.90246875 46.2224765625 c 0
 786.196286095 46.2224765625 841.72215625 83.0340108292 841.72215625 176.481445312 c 0xb3d0
 841.72215625 271.192522229 786.196286095 305.632015625 721.90246875 305.632015625 c 0
 657.378105989 305.632015625 604.58665625 271.192522229 604.58665625 176.481445312 c 0
542.9725 176.481445312 m 0
 542.9725 278.624023438 600.700426213 361.8515625 717.48046875 361.8515625 c 0
 831.491654433 361.8515625 896.987460938 278.623614564 896.987460938 176.481445312 c 0xb3b0
 896.987460938 74.4221678793 831.491654433 -9.998046875 717.48046875 -9.998046875 c 0
 600.700426213 -9.998046875 542.9725 74.4218750004 542.9725 176.481445312 c 0
114.58665625 553.622070312 m 0
 114.58665625 460.175109733 170.674458385 423.362125 231.48046875 423.362125 c 0
 291.84991192 423.362125 350.48365625 460.175109733 350.48365625 553.622070312 c 0
 350.48365625 648.331991961 291.84991192 682.771664062 231.48046875 682.771664062 c 0x3b90
 170.674458385 682.771664062 114.58665625 648.331991961 114.58665625 553.622070312 c 0
51.9725 553.622070312 m 0
 51.9725 655.764648438 117.468523726 738.9921875 231.48046875 738.9921875 c 0
 345.491450534 738.9921875 410.987460938 655.764648438 410.987460938 553.622070312 c 0
 410.987460938 451.5625 345.491450534 367.142578125 231.48046875 367.142578125 c 0
 117.468523726 367.142578125 51.9725 451.5625 51.9725 553.622070312 c 0
EndSplineSet
Refer: 138 8260 N 1 0 0 1 301 0 2
EndChar

StartChar: uni2031
Encoding: 8241 8241 132
Width: 1573
Flags: W
HStem: -9.99805 56.2205<649.447 794.354 959.525 1105.44 1270.61 1415.52> 0 21G<190.667 257.833> 305.632 56.2195<648.348 795.482 958.414 1106.57 1269.5 1416.63> 367.143 56.2195<160.067 303.206> 682.772 56.2205<158.962 304.337> 711.008 20G<671.638 752.333>
VStem: 51.9725 62.6142<472.261 637.008> 350.484 60.5038<472.261 634.996> 542.972 61.6142<91.8565 261.094> 841.722 72.048<83.0344 271.193> 857.156 39.8315<74.4222 278.624> 1152.3 72.048<83.0344 271.193> 1167.97 39.8315<74.4222 278.624> 1461.48 60.5038<95.1208 259.867>
LayerCount: 2
Fore
SplineSet
1224.34815625 176.481445312 m 0xb394
 1224.34815625 83.0343774499 1277.76779688 46.2224765625 1343.05846875 46.2224765625 c 0
 1406.60412268 46.2224765625 1461.48365625 83.0343774499 1461.48365625 176.481445312 c 0
 1461.48365625 271.192719442 1406.60412268 305.632015625 1343.05846875 305.632015625 c 0
 1277.76779688 305.632015625 1224.34815625 271.192719442 1224.34815625 176.481445312 c 0xb394
1167.9725 176.481445312 m 0xb38c
 1167.9725 278.623614564 1233.46833727 361.8515625 1347.48046875 361.8515625 c 0
 1464.25955546 361.8515625 1521.98746094 278.623614564 1521.98746094 176.481445312 c 0
 1521.98746094 74.4221678793 1464.25955546 -9.998046875 1347.48046875 -9.998046875 c 0
 1233.46833727 -9.998046875 1167.9725 74.4221678793 1167.9725 176.481445312 c 0xb38c
913.77015625 176.481445312 m 0xb3d4
 913.77015625 83.0343774499 967.189796875 46.2224765625 1032.48046875 46.2224765625 c 0
 1096.77439606 46.2224765625 1152.30015625 83.0343774499 1152.30015625 176.481445312 c 0
 1152.30015625 271.192719442 1096.77439606 305.632015625 1032.48046875 305.632015625 c 0
 967.189796875 305.632015625 913.77015625 271.192719442 913.77015625 176.481445312 c 0xb3d4
857.156 176.481445312 m 0xb3ac
 857.156 278.623614564 915.154027642 361.8515625 1032.48046875 361.8515625 c 0
 1149.80595262 361.8515625 1207.80396094 278.623614564 1207.80396094 176.481445312 c 0
 1207.80396094 74.4221678793 1149.80595262 -9.998046875 1032.48046875 -9.998046875 c 0
 915.154027642 -9.998046875 857.156 74.4221678793 857.156 176.481445312 c 0xb3ac
604.58665625 176.481445312 m 0
 604.58665625 83.0340108292 657.378105989 46.2224765625 721.90246875 46.2224765625 c 0
 786.196286095 46.2224765625 841.72215625 83.0340108292 841.72215625 176.481445312 c 0xb3c4
 841.72215625 271.192522229 786.196286095 305.632015625 721.90246875 305.632015625 c 0
 657.378105989 305.632015625 604.58665625 271.192522229 604.58665625 176.481445312 c 0
542.9725 176.481445312 m 0
 542.9725 278.624023438 600.700426213 361.8515625 717.48046875 361.8515625 c 0
 831.491654433 361.8515625 896.987460938 278.623614564 896.987460938 176.481445312 c 0xb3a4
 896.987460938 74.4221678793 831.491654433 -9.998046875 717.48046875 -9.998046875 c 0
 600.700426213 -9.998046875 542.9725 74.4218750004 542.9725 176.481445312 c 0
114.58665625 553.622070312 m 0
 114.58665625 460.175109733 169.977208385 423.362125 231.48046875 423.362125 c 0
 292.54716192 423.362125 350.48365625 460.175109733 350.48365625 553.622070312 c 0
 350.48365625 648.331991961 292.54716192 682.771664062 231.48046875 682.771664062 c 0x3b84
 169.977208385 682.771664062 114.58665625 648.331991961 114.58665625 553.622070312 c 0
51.9725 553.622070312 m 0
 51.9725 655.764648438 117.468523726 738.9921875 231.48046875 738.9921875 c 0
 345.491450534 738.9921875 410.987460938 655.764648438 410.987460938 553.622070312 c 0
 410.987460938 451.5625 345.491450534 367.142578125 231.48046875 367.142578125 c 0
 117.468523726 367.142578125 51.9725 451.5625 51.9725 553.622070312 c 0
EndSplineSet
Refer: 138 8260 N 1 0 0 1 301 0 2
EndChar

StartChar: uni203D
Encoding: 8253 8253 133
Width: 566
Flags: W
HStem: -10 104.614<194.403 281.597> 292 60.3056<267.709 376.474> 675.642 63.3507<116.502 356.373>
VStem: 186.304 103.392<-1.80515 86.4192> 203.707 70.587<340.489 791.008> 212.734 52.532<210 660.518> 446.903 67.9944<420.728 591.471>
LayerCount: 2
Fore
SplineSet
212.734 210 m 1xe6
 203.7065 791.0078125 l 1
 274.2935 791.0078125 l 1xea
 265.266 210 l 1
 212.734 210 l 1xe6
186.30421875 42.307109375 m 0xf2
 186.30421875 73.9953701426 206.681243992 94.61421875 237.999023438 94.61421875 c 0
 269.317870758 94.61421875 289.69578125 73.9953701426 289.69578125 42.307109375 c 0
 289.69578125 10.6183006712 269.317870758 -10 237.999023438 -10 c 0
 206.681243992 -10 186.30421875 10.6183006712 186.30421875 42.307109375 c 0xf2
219.395351562 305 m 1
 231.12875 360.909 l 1
 231.12875 360.909 255.12879532 352.305578125 285.2609375 352.305578125 c 0
 378.394716654 352.305578125 446.903203125 404.965181551 446.903203125 503.145507812 c 0
 446.903203125 622.77778543 367.016699205 675.641515625 234.77528125 675.641515625 c 0
 127.659610821 675.641515625 52.465078125 622.765507812 52.465078125 622.765507812 c 1
 27.2137109375 685.311523438 l 1
 27.2137109375 685.311523438 105.2538125 738.9921875 236.86703125 738.9921875 c 0
 403.621724658 738.9921875 514.897617188 661.327703299 514.897617188 505.010742188 c 0
 514.897617188 357.985517121 396.268124238 292 291.945 292 c 0
 244.441228645 292 219.395351562 305 219.395351562 305 c 1
EndSplineSet
EndChar

StartChar: lira
Encoding: 8356 8356 134
Width: 553
Flags: W
HStem: 0 65.0733<124.539 523> 228.945 58.11<60 424> 358.945 58.11<60 424> 672.942 66.5196<211.798 427.956>
VStem: 153.797 68.8497<191.345 357.361>
LayerCount: 2
Fore
SplineSet
523 0 m 1
 30 0 l 1
 30 61.07325 l 1
 30 61.07325 153.79671875 154.577334579 153.79671875 289.379882812 c 0
 153.79671875 391.588284089 76.3240625 418.16779209 76.3240625 547.185546875 c 0
 76.3240625 671.398535433 170.931127784 739.461914062 305.83609375 739.461914062 c 0
 435.1979466 739.461914062 492.98453125 695.038273438 492.98453125 695.038273438 c 1
 474.9375 630.886914062 l 1
 474.9375 630.886914062 399.59845449 672.94234375 316.89109375 672.94234375 c 0
 226.975264945 672.94234375 154.522578125 647.411912136 154.522578125 537.163391357 c 0
 154.522578125 430.888873767 222.646445312 410.093657444 222.646445312 290.158203125 c 0
 222.646445312 150.685144309 124.539335938 65.07325 124.539335938 65.07325 c 1
 523 65.07325 l 1
 523 0 l 1
424 228.945 m 1
 60 228.945 l 1
 60 287.055 l 1
 424 287.055 l 1
 424 228.945 l 1
424 358.945 m 1
 60 358.945 l 1
 60 417.055 l 1
 424 417.055 l 1
 424 358.945 l 1
EndSplineSet
EndChar

StartChar: uni20B5
Encoding: 8373 8373 135
Width: 623
Flags: W
HStem: -9.99805 30.6603<342.431 406.569> 703.808 35.3136<342.431 406.569>
VStem: 51.9725 73.4767<218.798 510.989> 342.431 64.1375<-105 20.6622 703.808 829.47>
LayerCount: 2
Fore
SplineSet
51.9725 364.561523438 m 0
 51.9725 591.206054688 172.917871177 739.12109375 385.888671875 739.12109375 c 0
 532.45662357 739.12109375 592.709140625 672.891601562 592.709140625 672.891601562 c 1
 560.90596875 619.762671875 l 1
 560.90596875 619.762671875 503.567822705 674.072179688 387.310671875 674.072179688 c 0
 203.875735468 674.072179688 125.44921875 550.160676917 125.44921875 364.561523438 c 0
 125.44921875 180.634803612 204.71103044 57.8398671876 390.099671875 57.8398671876 c 0
 509.66445622 57.8398671876 572.991054688 102.577203125 572.991054688 102.577203125 c 1
 595.854648438 44.595703125 l 1
 595.854648438 44.595703125 531.71864244 -9.998046875 385.888671875 -9.998046875 c 0
 172.917871177 -9.998046875 51.9725 137.916992188 51.9725 364.561523438 c 0
342.43125 -105 m 1
 342.43125 20.6622265625 l 1
 406.56875 20.6622265625 l 1
 406.56875 -105 l 1
 342.43125 -105 l 1
342.43125 703.8075 m 1
 342.43125 829.469726562 l 1
 406.56875 829.469726562 l 1
 406.56875 703.8075 l 1
 342.43125 703.8075 l 1
EndSplineSet
EndChar

StartChar: uni20B2
Encoding: 8370 8370 136
Width: 739
Flags: W
HStem: -9.99805 39.7245<342.431 406.569> 317.918 63.0732<386 538.092 606.882 704> 317.918 27.5957<538.092 606.882> 693.349 45.7723<342.431 406.569>
VStem: 51.9725 73.4767<218.466 502.523> 342.431 64.1375<-105 29.7265 693.349 829.47> 569.711 69.799<135.96 317.469>
LayerCount: 2
Fore
SplineSet
342.43125 -105 m 1x9e
 342.43125 29.7264765625 l 1
 406.56875 29.7264765625 l 1
 406.56875 -105 l 1
 342.43125 -105 l 1x9e
342.43125 693.34875 m 1
 342.43125 829.469726562 l 1
 406.56875 829.469726562 l 1
 406.56875 693.34875 l 1
 342.43125 693.34875 l 1
704 317.9175 m 1xde
 386 317.9175 l 1
 386 380.99075 l 1
 704 380.99075 l 1
 704 317.9175 l 1xde
51.9725 364.561523438 m 0
 51.9725 591.206054688 175.671293473 739.12109375 378.888671875 739.12109375 c 0
 523.33036223 739.12109375 582.709140625 672.891601562 582.709140625 672.891601562 c 1
 554.32796875 618.854421875 l 1
 554.32796875 618.854421875 496.455030794 671.072070313 379.113476563 671.072070313 c 0
 209.636718719 671.072070313 125.44921875 548.36165078 125.44921875 364.561523438 c 0
 125.44921875 179.798586783 199.192515578 56.4453671876 369.888671875 56.4453671876 c 0
 512.598279514 56.4453671876 569.710945312 124.968358831 569.710945312 227.8165 c 0
 569.710945312 310.133927295 538.092054688 345.513203125 538.092054688 345.513203125 c 1
 606.882148438 345.513203125 l 1xbe
 606.882148438 345.513203125 639.509921875 316.583320386 639.509921875 222 c 0
 639.509921875 93.0859042083 552.736320365 -9.998046875 369.888671875 -9.998046875 c 0
 167.39181279 -9.998046875 51.9725 137.916992188 51.9725 364.561523438 c 0
EndSplineSet
EndChar

StartChar: uni20BA
Encoding: 8378 8378 137
Width: 648
Flags: W
HStem: 0 69.165<185.192 408.688> 711.008 20G<111.972 185.192>
VStem: 111.972 73.22<69.165 731.008>
LayerCount: 2
Fore
SplineSet
357.0275 362.5505 m 1
 46.9725 262.5505 l 1
 46.9725 323.4495 l 1
 357.0275 423.4495 l 1
 357.0275 362.5505 l 1
357.0275 492.5505 m 1
 46.9725 392.5505 l 1
 46.9725 453.4495 l 1
 357.0275 553.4495 l 1
 357.0275 492.5505 l 1
185.1925 69.165 m 1
 185.1925 69.165 300 69.165 300 69.165 c 2
 534.104646739 69.165 535.74325 287.11 535.74325 287.11 c 1
 612.0275 277.0825 l 1
 612.0275 277.0825 600.727844675 -3.41833991668e-14 300 0 c 2
 111.9725 0 l 1
 111.9725 731.0078125 l 1
 185.1925 731.0078125 l 1
 185.1925 731.0078125 185.1925 69.165 185.1925 69.165 c 1
EndSplineSet
EndChar

StartChar: fraction
Encoding: 8260 8260 138
Width: 304
Flags: W
HStem: 0 21G<-110.333 -43.1674> 711.008 20G<370.638 451.333>
LayerCount: 2
Fore
SplineSet
-110.332568359 0 m 1
 384.167431641 731.0078125 l 1
 451.332568359 731.0078125 l 1
 451.332568359 731.0078125 -43.1674316406 0 -43.1674316406 0 c 1
 -43.1674316406 0 -110.332568359 0 -110.332568359 0 c 1
EndSplineSet
EndChar

StartChar: endash
Encoding: 8211 8211 139
Width: 570
Flags: W
HStem: 248.918 61.165<46.9725 523.028>
LayerCount: 2
Fore
SplineSet
46.9725 248.9175 m 1
 46.9725 310.0825 l 1
 523.0275 310.0825 l 1
 523.0275 248.9175 l 1
 46.9725 248.9175 l 1
EndSplineSet
EndChar

StartChar: emdash
Encoding: 8212 8212 140
Width: 820
Flags: W
HStem: 248.918 61.165<26.9725 793.028>
LayerCount: 2
Fore
SplineSet
26.9725 248.9175 m 1
 26.9725 310.0825 l 1
 793.0275 310.0825 l 1
 793.0275 248.9175 l 1
 26.9725 248.9175 l 1
EndSplineSet
EndChar

StartChar: Euro
Encoding: 8364 8364 141
Width: 683
Flags: W
HStem: -9.99805 65.0489<339.527 584.348> 273.945 58.11<40 432.865> 403.945 58.11<40 462.76> 676.861 62.26<330.171 562.807>
VStem: 111.972 69.9905<278.601 454.579>
LayerCount: 2
Fore
SplineSet
432.86528125 273.945 m 1
 40 273.945 l 1
 40 332.055 l 1
 448.02934375 332.055 l 1
 432.86528125 273.945 l 1
462.75965625 403.945 m 1
 40 403.945 l 1
 40 462.055 l 1
 477.92371875 462.055 l 1
 462.75965625 403.945 l 1
111.9725 364.561523438 m 0
 111.9725 591.206054688 232.917790575 739.12109375 445.888671875 739.12109375 c 0
 592.456255257 739.12109375 652.709140625 672.891601562 652.709140625 672.891601562 c 1
 620.90596875 622.551671875 l 1
 620.90596875 622.551671875 562.87184163 676.861083985 445.205322266 676.861083985 c 0
 260.802685246 676.861083985 181.963037109 551.833053187 181.963037109 364.561523438 c 0
 181.963037109 178.962369954 264.428172327 55.0508671876 457.310671875 55.0508671876 c 0
 572.161018818 55.0508671876 632.991054688 99.788203125 632.991054688 99.788203125 c 1
 632.991054688 99.788203125 655.854648438 44.595703125 655.854648438 44.595703125 c 1
 655.854648438 44.595703125 591.718830366 -9.998046875 445.888671875 -9.998046875 c 0
 232.917790575 -9.998046875 111.9725 137.916992188 111.9725 364.561523438 c 0
EndSplineSet
EndChar

StartChar: uni20AD
Encoding: 8365 8365 142
Width: 665
Flags: W
HStem: 0 21G<107.972 181.192 524.472 638.028> 323.826 63.3485<26.9725 597.028> 711.008 20G<107.972 181.192 522.592 628.028>
VStem: 107.972 73.22<0 731.008>
LayerCount: 2
Fore
SplineSet
597.0275 323.82575 m 1
 26.9725 323.82575 l 1
 26.9725 387.17425 l 1
 597.0275 387.17425 l 1
 597.0275 323.82575 l 1
541.87175 0 m 1
 254.92675 329.82575 l 1
 254.92675 382.17425 l 1
 538.87175 731.0078125 l 1
 628.0275 731.0078125 l 1
 321 364.33025 l 1
 638.0275 0 l 1
 541.87175 0 l 1
107.9725 0 m 1
 107.9725 731.0078125 l 1
 181.1925 731.0078125 l 1
 181.1925 0 l 1
 107.9725 0 l 1
EndSplineSet
EndChar

StartChar: uni20B9
Encoding: 8377 8377 143
Width: 574
Flags: W
HStem: 0 21G<411.046 495> 292.918 68.8193<46.9725 292.995> 463.945 58.11<46.9725 527.028> 664.668 66.3399<46.9725 298.58>
VStem: 381.709 74.0686<428.529 595.694>
LayerCount: 2
Fore
SplineSet
185.835 292.9175 m 2
 46.9725 292.9175 l 1
 46.9725 361.7368125 l 1
 166.888671875 361.847164062 l 2
 289.552219798 361.959437113 381.708710938 388.490160696 381.708710938 510.020273438 c 0
 381.708710938 635.668409609 289.258109641 664.460981932 167.888671875 664.564398438 c 2
 46.9725 664.667914062 l 1
 46.9725 731.0078125 l 1
 183.888671875 731.0078125 l 2
 326.745750968 731.0078125 455.77734375 671.233927617 455.77734375 511.534023438 c 0
 455.77734375 360.633303656 321.743476562 327.790117188 321.743476562 327.790117188 c 1
 321.743476562 327.790117188 385.963504174 317.952113785 428.124635254 196.482886474 c 2
 495 0 l 1
 417.78 0 l 1
 373.441842773 131.691332519 l 2
 330.286604328 254.541415617 314.913380326 292.9175 185.835 292.9175 c 2
527.0275 463.945 m 1
 46.9725 463.945 l 1
 46.9725 522.055 l 1
 527.0275 522.055 l 1
 527.0275 463.945 l 1
EndSplineSet
EndChar

StartChar: uni20B4
Encoding: 8372 8372 144
Width: 677
Flags: W
HStem: -10 67.1407<240.409 489.52> 268.945 58.11<46.9725 630.028> 398.945 58.11<46.9725 630.028> 670.98 68.1407<191.029 428.634>
VStem: 96.9725 73.6769<118.719 262.651> 496.389 73.5315<471.202 610.944>
LayerCount: 2
Fore
SplineSet
630.0275 268.945 m 1
 46.9725 268.945 l 1
 46.9725 327.055 l 1
 630.0275 327.055 l 1
 630.0275 268.945 l 1
630.0275 398.945 m 1
 46.9725 398.945 l 1
 46.9725 457.055 l 1
 630.0275 457.055 l 1
 630.0275 398.945 l 1
354.149445312 336.15175 m 0
 193.1877239 294.424460369 170.649390625 259.975794044 170.649390625 189.11925 c 0
 170.649390625 101.604696807 238.817297555 57.1406640624 362.575492188 57.1406640624 c 0
 470.79430647 57.1406640624 556.546875 105.963921875 556.546875 105.963921875 c 1
 579.758125 42.2294921875 l 1
 579.758125 42.2294921875 491.017232954 -10 349.68734375 -10 c 0
 184.956648816 -10 96.9725 69.0123203477 96.9725 197.33025 c 0
 96.9725 301.923337741 155.168735356 353.149212029 313.614210938 396.585554688 c 0
 457.605128065 435.552970652 496.388554688 468.062309045 496.388554688 538.578 c 0
 496.388554688 623.78750659 438.084528733 670.980429688 308.4315 670.980429688 c 0
 212.466717085 670.980429688 147.3594375 628.459921875 147.3594375 628.459921875 c 1
 121.719414062 688.891601562 l 1
 121.719414062 688.891601562 185.708830517 739.12109375 317.286132812 739.12109375 c 0
 474.328459861 739.12109375 569.920078125 658.871257793 569.920078125 534.24775 c 0
 569.920078125 436.437316906 516.847815995 378.349753557 354.149445312 336.15175 c 0
EndSplineSet
EndChar

StartChar: colonmonetary
Encoding: 8353 8353 145
Width: 623
Flags: W
HStem: -9.99805 37.6328<344.295 398.433> 676.861 62.26<357.795 443.434>
VStem: 51.9725 73.4767<221.526 511.653> 163.532 54.1375<-105 -75.4233> 313.532 54.1375<-105 -74.8201> 328.303 54.1375<799.29 829.47> 478.303 54.1375<799.29 829.47>
LayerCount: 2
Fore
SplineSet
313.531757812 -105 m 1xfa
 344.295429688 27.6347265625 l 1
 398.432929688 27.6347265625 l 1
 367.669257812 -105 l 1
 313.531757812 -105 l 1xfa
447.539570312 696.835 m 1
 478.303242188 829.469726562 l 1
 532.440742188 829.469726562 l 1
 501.677070312 696.835 l 1
 447.539570312 696.835 l 1
51.9725 364.561523438 m 0
 51.9725 591.206054688 172.917871177 739.12109375 385.888671875 739.12109375 c 0
 532.45662357 739.12109375 592.709140625 672.891601562 592.709140625 672.891601562 c 1
 560.90596875 622.551671875 l 1
 560.90596875 622.551671875 502.411771345 676.861083985 383.810644531 676.861083985 c 0
 202.827490491 676.861083985 125.44921875 551.833053187 125.44921875 364.561523438 c 0
 125.44921875 178.962369954 206.453050233 55.0508671876 395.916171875 55.0508671876 c 0
 510.766782996 55.0508671876 571.596554688 102.577203125 571.596554688 102.577203125 c 1
 595.854648438 44.595703125 l 1
 595.854648438 44.595703125 531.71864244 -9.998046875 385.888671875 -9.998046875 c 0
 172.917871177 -9.998046875 51.9725 137.916992188 51.9725 364.561523438 c 0
163.531757812 -105 m 1
 163.531757812 -105 199.873429688 48.5522265625 199.873429688 48.5522265625 c 1
 199.873429688 48.5522265625 254.010929688 48.5522265625 254.010929688 48.5522265625 c 1
 254.010929688 48.5522265625 217.669257812 -105 217.669257812 -105 c 1
 163.531757812 -105 l 1
297.539570312 696.835 m 1
 328.303242188 829.469726562 l 1
 382.440742188 829.469726562 l 1xf6
 351.677070312 696.835 l 1
 297.539570312 696.835 l 1
EndSplineSet
EndChar

StartChar: zero.inferior
Encoding: 8320 8320 148
Width: 454
Flags: W
HStem: -358 55.9594<156.494 299.423> 87.425 55.575<156.494 299.423>
VStem: 34.1383 58.8031<-227.957 12.5586> 362.571 58.8031<-227.957 12.5586>
LayerCount: 2
Fore
SplineSet
92.94140625 -107.615625 m 0
 92.94140625 -224.36171875 133.5671875 -302.040625 228 -302.040625 c 0
 322.4328125 -302.040625 362.57109375 -224.36171875 362.57109375 -107.615625 c 0
 362.57109375 9.13046875 322.4328125 87.425 228 87.425 c 0
 133.5671875 87.425 92.94140625 9.13046875 92.94140625 -107.615625 c 0
34.13828125 -108 m 0
 34.13828125 44 101.12421875 143 228 143 c 0
 354.87578125 143 421.37421875 44 421.37421875 -108 c 0
 421.37421875 -260 354.87578125 -358 228 -358 c 0
 101.12421875 -358 34.13828125 -260 34.13828125 -108 c 0
EndSplineSet
EndChar

StartChar: one.inferior
Encoding: 8321 8321 149
Width: 276
Flags: W
VStem: 162.255 61.8281<-350 65.5672>
LayerCount: 2
Fore
SplineSet
224.0828125 137 m 1
 224.0828125 -350 l 1
 162.2546875 -350 l 1
 162.2546875 65.5671875 l 1
 162.2546875 65.5671875 47.771875 4.9984375 47.771875 4.9984375 c 1
 47.771875 4.9984375 26.0984375 50.896875 26.0984375 50.896875 c 1
 173.47890625 137 l 1
 224.0828125 137 l 1
EndSplineSet
EndChar

StartChar: two.inferior
Encoding: 8322 8322 150
Width: 404
Flags: W
HStem: -350 54.575<102.394 377.164> 89.2148 53.7852<99.0094 275.736>
VStem: 38.7219 63.6719<-295.425 -235.788> 309.194 59.1734<-61.5581 57.3262>
LayerCount: 2
Fore
SplineSet
309.19375 -3.3171875 m 0
 309.19375 48.1375 279.3578125 89.21484375 192.06015625 89.21484375 c 0
 122.45546875 89.21484375 72.76171875 52.3359375 72.76171875 52.3359375 c 1
 52.4015625 102.4625 l 1
 52.4015625 102.4625 110.26640625 143 194.796875 143 c 0
 303.203125 143 368.3671875 94.04609375 368.3671875 -3.0609375 c 0
 368.3671875 -88.4703125 312.34921875 -124.3671875 233.6796875 -162.1328125 c 0
 116.69921875 -217.2 102.8421875 -253.615625 102.39375 -295.425 c 1
 377.1640625 -295.425 l 1
 377.1640625 -350 l 1
 38.721875 -350 l 1
 38.721875 -314 l 2
 38.721875 -219.30546875 99.70078125 -164.7109375 209.64765625 -111.42578125 c 0
 272.97734375 -81.51875 309.19375 -56.92421875 309.19375 -3.3171875 c 0
EndSplineSet
EndChar

StartChar: three.inferior
Encoding: 8323 8323 151
Width: 389
Flags: W
HStem: -358 53.6391<57.9842 259.725> -127.795 51.5891<109.384 260.599> 87.8234 55.1766<67.4674 256.937>
VStem: 286.368 59.782<-51.3124 59.3797> 294.887 61.3586<-271.398 -158.149>
LayerCount: 2
Fore
SplineSet
172.82578125 -76.20546875 m 2xe8
 250.9171875 -76.20546875 286.36796875 -50.26640625 286.36796875 2.3875 c 0
 286.36796875 51.0484375 257.71015625 87.8234375 167.7828125 87.8234375 c 0
 92.384375 87.8234375 48.5515625 55.39296875 48.5515625 55.39296875 c 1
 29.94609375 105.7046875 l 1
 29.94609375 105.7046875 81.67578125 143 171.58359375 143 c 0
 280.72265625 143 346.15 96.359375 346.15 7.821875 c 0xf0
 346.15 -79.4125 262.6953125 -100.975 262.6953125 -100.975 c 1
 262.6953125 -100.975 356.24609375 -120.075 356.24609375 -217.309375 c 0
 356.24609375 -316.025 281.32421875 -358 168.7046875 -358 c 0
 73.57265625 -358 17.209375 -323.384375 17.209375 -323.384375 c 1
 35.359375 -270.98359375 l 1
 35.359375 -270.98359375 84.96796875 -304.3609375 165.7578125 -304.3609375 c 0
 253.99140625 -304.3609375 294.8875 -272.67109375 294.8875 -215.9140625 c 0
 294.8875 -155.5984375 252.76015625 -127.79453125 172.44140625 -127.79453125 c 2
 109.25625 -127.79453125 l 1
 109.384375 -76.20546875 l 1
 172.82578125 -76.20546875 l 2xe8
EndSplineSet
EndChar

StartChar: four.inferior
Encoding: 8324 8324 152
Width: 439
Flags: W
HStem: -222.09 52.3578<107.873 406.816>
VStem: 273.497 58.3477<-350 46.8828>
LayerCount: 2
Fore
SplineSet
331.84453125 137 m 1
 331.84453125 -350 l 1
 273.496875 -350 l 1
 273.496875 46.8828125 l 1
 107.8734375 -169.73203125 l 1
 406.815625 -169.73203125 l 1
 406.815625 -222.08984375 l 1
 50.08125 -222.08984375 l 1
 37.69296875 -176.853125 l 1
 274.88125 137 l 1
 331.84453125 137 l 1
EndSplineSet
EndChar

StartChar: five.inferior
Encoding: 8325 8325 153
Width: 408
Flags: W
HStem: -357 54.5289<65.4808 270.968> -83.1547 50.3258<134.942 281.618> 83.2969 53.7031<123.386 339.406>
VStem: 316.5 58.9812<-259.792 -119.097>
LayerCount: 2
Fore
SplineSet
183.79375 -357 m 0
 82.73984375 -357 22.60078125 -322.8078125 22.60078125 -322.8078125 c 1
 41.23125 -269.95859375 l 1
 41.23125 -269.95859375 100.128125 -302.47109375 175.434375 -302.47109375 c 0
 275.3796875 -302.47109375 316.5 -259.7671875 316.5 -189.7328125 c 0
 316.5 -122.79453125 279.45078125 -83.1546875 206.13515625 -83.1546875 c 0
 127.65234375 -83.1546875 103.08671875 -141.33125 103.08671875 -141.33125 c 1
 48.93203125 -128.078125 l 1
 75.796875 137 l 1
 339.40625 137 l 1
 339.40625 83.296875 l 1
 123.3859375 83.296875 l 1
 107.19765625 -77.14765625 l 1
 107.19765625 -77.14765625 133.71328125 -32.82890625 220.26015625 -32.82890625 c 0
 317.121875 -32.82890625 375.48125 -91.284375 375.48125 -188.50859375 c 0
 375.48125 -293.334375 306.89765625 -357 183.79375 -357 c 0
EndSplineSet
EndChar

StartChar: six.inferior
Encoding: 8326 8326 154
Width: 426
Flags: W
HStem: -358 54.8133<144.695 297.136> -81.8133 49.3969<144.515 297.708> 88.8164 54.1836<158.34 341.489>
VStem: 34.1383 54.668<-109.3 10.8823> 336.891 55.9383<-263.031 -120.057>
LayerCount: 2
Fore
SplineSet
103.13359375 -192 m 0
 103.13359375 -256.059375 141.20390625 -303.18671875 220.6796875 -303.18671875 c 0
 301.74609375 -303.18671875 336.89140625 -256.059375 336.89140625 -192 c 0
 336.89140625 -127.940625 303.10546875 -81.81328125 220.6796875 -81.81328125 c 0
 141.20390625 -81.81328125 103.13359375 -127.940625 103.13359375 -192 c 0
88.80625 -109.3 m 1
 88.80625 -109.3 112.68203125 -32.41640625 228.97890625 -32.41640625 c 0
 330.3953125 -32.41640625 392.8296875 -97.1921875 392.8296875 -191 c 0
 392.8296875 -298 327.74765625 -358 221 -358 c 0
 100.359375 -358 34.13828125 -285 34.13828125 -107 c 0
 34.13828125 54 106.6046875 143 237.12109375 143 c 0
 330.9328125 143 378.9828125 104.334375 378.9828125 104.334375 c 1
 378.9828125 104.334375 359.2953125 57.30390625 359.2953125 57.30390625 c 1
 359.2953125 57.30390625 317.3203125 88.81640625 241.33828125 88.81640625 c 0
 143.59921875 88.81640625 90.85625 30.40078125 88.80625 -109.3 c 1
EndSplineSet
EndChar

StartChar: seven.inferior
Encoding: 8327 8327 155
Width: 402
Flags: W
HStem: 82.4891 54.5109<34.4445 300.421>
VStem: 132.073 61.3406<-350 -205.995>
LayerCount: 2
Fore
SplineSet
193.4140625 -350 m 1
 132.0734375 -350 l 1
 140.40078125 -97.46484375 300.42109375 82.4890625 300.42109375 82.4890625 c 1
 34.44453125 82.4890625 l 1
 34.44453125 137 l 1
 367.68359375 137 l 1
 367.68359375 89.36484375 l 1
 367.68359375 89.36484375 195.9015625 -96.35 193.4140625 -350 c 1
EndSplineSet
EndChar

StartChar: eight.inferior
Encoding: 8328 8328 156
Width: 440
Flags: W
HStem: -358 51.525<131.054 309.798> -119.634 46.4609<155.588 288.853> -107.691 27.0148<115.612 328.31> 91.1227 51.8773<145.045 300.688>
VStem: 34.6258 57.4437<-269.694 -156.142> 59.1133 55.1625<-44.05 61.9316> 330.646 55.1625<-44.05 61.1698> 348.98 57.4438<-269.694 -157.713>
LayerCount: 2
Fore
SplineSet
221.4484375 -73.1734375 m 0xd6
 288.853125 -73.1734375 330.64609375 -41.90703125 330.64609375 7.06015625 c 0
 330.64609375 59.8171875 290.69296875 91.12265625 220.9609375 91.12265625 c 0
 154.10078125 91.12265625 114.27578125 59.8171875 114.27578125 7.06015625 c 0
 114.27578125 -41.90703125 155.58828125 -73.1734375 221.4484375 -73.1734375 c 0xd6
220.9609375 143 m 0
 323.79765625 143 385.80859375 93.4875 385.80859375 12 c 0
 385.80859375 -62.740625 328.31015625 -107.690625 220.9609375 -107.690625 c 0xb6
 115.61171875 -107.690625 59.11328125 -62.740625 59.11328125 12 c 0
 59.11328125 93.4875 120.12421875 143 220.9609375 143 c 0
220.0890625 -306.475 m 0
 299.2625 -306.475 348.98046875 -273.08046875 348.98046875 -212.7859375 c 0
 348.98046875 -155.87578125 299.2625 -119.634375 220.0890625 -119.634375 c 0
 140.915625 -119.634375 92.06953125 -155.87578125 92.06953125 -212.7859375 c 0xd9
 92.06953125 -273.08046875 140.915625 -306.475 220.0890625 -306.475 c 0
220.5765625 -80.67578125 m 0xb9
 340.4453125 -80.67578125 406.42421875 -129.61171875 406.42421875 -217.259375 c 0
 406.42421875 -302.4625 333.41328125 -358 220.5765625 -358 c 0
 107.73984375 -358 34.62578125 -302.4625 34.62578125 -217.259375 c 0
 34.62578125 -129.61171875 100.7078125 -80.67578125 220.5765625 -80.67578125 c 0xb9
EndSplineSet
EndChar

StartChar: nine.inferior
Encoding: 8329 8329 157
Width: 426
Flags: W
HStem: -358 54.0555<86.7353 268.484> -182.936 49.9164<129.393 283.826> 87.8664 55.1336<130.211 282.503>
VStem: 34.1383 56.4187<-94.9017 47.9489> 337.265 55.4688<-226.287 -106.22>
LayerCount: 2
Fore
SplineSet
324.21875 -23.1921875 m 0
 324.21875 40.8671875 286.24453125 87.86640625 206.76875 87.86640625 c 0
 126.2859375 87.86640625 90.55703125 40.8671875 90.55703125 -23.1921875 c 0
 90.55703125 -86.7640625 124.4390625 -133.01953125 206.76875 -133.01953125 c 0
 286.24453125 -133.01953125 324.21875 -86.7640625 324.21875 -23.1921875 c 0
337.26484375 -106.21953125 m 1
 337.26484375 -106.21953125 313.5171875 -182.9359375 197.540625 -182.9359375 c 0
 96.4125 -182.9359375 34.13828125 -117.90390625 34.13828125 -23.90390625 c 0
 34.13828125 83.09609375 99.25234375 143 206 143 c 0
 326.640625 143 392.73359375 70 392.73359375 -108 c 0
 392.73359375 -269 320.49140625 -358 190.103125 -358 c 0
 98.66484375 -358 51.49375 -319.334375 51.49375 -319.334375 c 1
 70.0921875 -272.2078125 l 1
 70.0921875 -272.2078125 110.95703125 -303.94453125 185.66171875 -303.94453125 c 0
 282.88828125 -303.94453125 335.21484375 -245.9203125 337.26484375 -106.21953125 c 1
EndSplineSet
EndChar

StartChar: zero.superior
Encoding: 8304 8304 158
Width: 455
Flags: W
HStem: 342 55.9594<156.508 299.487> 787.425 55.575<156.508 299.487>
VStem: 34.1383 58.8031<472.043 712.559> 363.027 58.8031<472.043 712.559>
LayerCount: 2
Fore
SplineSet
92.94140625 592.384375 m 0
 92.94140625 475.63828125 133.59921875 397.959375 228 397.959375 c 0
 322.40078125 397.959375 363.0265625 475.63828125 363.0265625 592.384375 c 0
 363.0265625 709.13046875 322.40078125 787.425 228 787.425 c 0
 133.59921875 787.425 92.94140625 709.13046875 92.94140625 592.384375 c 0
34.13828125 592 m 0
 34.13828125 744 101.15625 843 228 843 c 0
 354.84375 843 421.8296875 744 421.8296875 592 c 0
 421.8296875 440 354.84375 342 228 342 c 0
 101.15625 342 34.13828125 440 34.13828125 592 c 0
EndSplineSet
EndChar

StartChar: one.superior
Encoding: 185 185 159
Width: 276
Flags: W
VStem: 162.255 61.8281<350 770.18>
LayerCount: 2
Fore
SplineSet
224.0828125 839.690625 m 1
 224.0828125 350 l 1
 162.2546875 350 l 1
 162.2546875 770.1796875 l 1
 47.3875 708.8421875 l 1
 26.0984375 755.509375 l 1
 173.47890625 839.690625 l 1
 224.0828125 839.690625 l 1
EndSplineSet
EndChar

StartChar: two.superior
Encoding: 178 178 160
Width: 404
Flags: W
HStem: 350 54.2547<102.394 377.164> 789.215 53.7852<99.0876 275.85>
VStem: 38.7219 63.6719<404.255 464.212> 309.194 59.1734<638.362 757.284>
LayerCount: 2
Fore
SplineSet
309.19375 696.6828125 m 0
 309.19375 748.1375 279.7421875 789.21484375 192.44453125 789.21484375 c 0
 122.83984375 789.21484375 72.76171875 752.30390625 72.76171875 752.30390625 c 1
 52.4015625 802.4625 l 1
 52.4015625 802.4625 110.26640625 843 194.796875 843 c 0
 303.203125 843 368.3671875 793.98203125 368.3671875 696.8109375 c 0
 368.3671875 611.36953125 312.34921875 575.40859375 233.6796875 537.546875 c 0
 116.69921875 482.38359375 102.8421875 446.0640625 102.39375 404.2546875 c 1
 377.1640625 404.2546875 l 1
 377.1640625 350 l 1
 38.721875 350 l 1
 38.721875 386 l 2
 38.721875 480.69453125 99.70078125 535.2890625 209.64765625 588.57421875 c 0
 272.97734375 618.48125 309.19375 643.07578125 309.19375 696.6828125 c 0
EndSplineSet
EndChar

StartChar: three.superior
Encoding: 179 179 161
Width: 389
Flags: W
HStem: 342 53.6391<59.1502 259.408> 572.205 51.5891<109.384 259.635> 787.823 55.1766<66.7343 256.704>
VStem: 285.984 59.782<648.65 759.38> 294.503 61.3586<428.645 541.855>
LayerCount: 2
Fore
SplineSet
172.44140625 623.79453125 m 2xe8
 250.1484375 623.79453125 285.98359375 649.73359375 285.98359375 702.3875 c 0
 285.98359375 751.0484375 257.32578125 787.8234375 167.3984375 787.8234375 c 0
 92 787.8234375 48.5515625 755.784375 48.5515625 755.784375 c 1
 29.94609375 805.60859375 l 1
 29.94609375 805.60859375 82.06015625 843 171.58359375 843 c 0
 280.72265625 843 345.765625 796.359375 345.765625 707.821875 c 0xf0
 345.765625 620.5875 262.3109375 598.63359375 262.3109375 598.63359375 c 1
 262.3109375 598.63359375 355.86171875 579.9890625 355.86171875 482.78671875 c 0
 355.86171875 384.07109375 280.93984375 342 168.7046875 342 c 0
 73.57265625 342 17.209375 376.58359375 17.209375 376.58359375 c 1
 35.359375 429.50390625 l 1
 35.359375 429.50390625 84.58359375 395.6390625 165.3734375 395.6390625 c 0
 253.60703125 395.6390625 294.503125 427.32890625 294.503125 484.0859375 c 0
 294.503125 544.4015625 252.76015625 572.20546875 172.44140625 572.20546875 c 2
 109.25625 572.20546875 l 1
 109.384375 623.79453125 l 1
 172.44140625 623.79453125 l 2xe8
EndSplineSet
EndChar

StartChar: four.superior
Encoding: 8308 8308 162
Width: 439
Flags: W
HStem: 479.063 51.9734<107.873 406.816>
VStem: 273.497 58.3477<350 750.054>
LayerCount: 2
Fore
SplineSet
331.84453125 838.921875 m 1
 331.84453125 350 l 1
 273.496875 350 l 1
 273.496875 750.05390625 l 1
 107.8734375 531.03671875 l 1
 406.815625 531.03671875 l 1
 406.815625 479.06328125 l 1
 50.08125 479.06328125 l 1
 37.69296875 523.915625 l 1
 274.88125 838.921875 l 1
 331.84453125 838.921875 l 1
EndSplineSet
EndChar

StartChar: five.superior
Encoding: 8309 8309 163
Width: 408
Flags: W
HStem: 343 54.5289<65.4808 270.968> 616.845 50.3258<134.942 281.618> 783.297 53.7031<123.386 339.406>
VStem: 316.5 58.9812<440.208 580.903>
LayerCount: 2
Fore
SplineSet
183.79375 343 m 0
 82.73984375 343 22.60078125 377.1921875 22.60078125 377.1921875 c 1
 41.23125 430.04140625 l 1
 41.23125 430.04140625 100.128125 397.52890625 175.434375 397.52890625 c 0
 275.3796875 397.52890625 316.5 440.2328125 316.5 510.2671875 c 0
 316.5 577.20546875 279.45078125 616.8453125 206.13515625 616.8453125 c 0
 127.65234375 616.8453125 103.08671875 558.66875 103.08671875 558.66875 c 1
 48.93203125 571.921875 l 1
 75.796875 837 l 1
 339.40625 837 l 1
 339.40625 783.296875 l 1
 123.3859375 783.296875 l 1
 107.19765625 622.85234375 l 1
 107.19765625 622.85234375 133.71328125 667.17109375 220.26015625 667.17109375 c 0
 317.121875 667.17109375 375.48125 608.715625 375.48125 511.49140625 c 0
 375.48125 406.665625 306.89765625 343 183.79375 343 c 0
EndSplineSet
EndChar

StartChar: six.superior
Encoding: 8310 8310 164
Width: 426
Flags: W
HStem: 342 54.8133<144.695 297.136> 618.187 49.3969<144.515 297.708> 788.816 54.1836<158.34 341.489>
VStem: 34.1383 54.668<590.604 710.857> 336.891 55.9383<436.969 579.943>
LayerCount: 2
Fore
SplineSet
103.13359375 508 m 0
 103.13359375 443.940625 141.20390625 396.81328125 220.6796875 396.81328125 c 0
 301.74609375 396.81328125 336.89140625 443.940625 336.89140625 508 c 0
 336.89140625 572.059375 303.10546875 618.18671875 220.6796875 618.18671875 c 0
 141.20390625 618.18671875 103.13359375 572.059375 103.13359375 508 c 0
88.80625 590.60390625 m 1
 88.80625 590.60390625 112.68203125 667.58359375 228.97890625 667.58359375 c 0
 330.3953125 667.58359375 392.8296875 602.8078125 392.8296875 509 c 0
 392.8296875 402 327.74765625 342 221 342 c 0
 100.359375 342 34.13828125 415 34.13828125 593 c 0
 34.13828125 754 106.6046875 843 237.12109375 843 c 0
 330.9328125 843 378.9828125 804.43046875 378.9828125 804.43046875 c 1
 359.2953125 757.30390625 l 1
 359.2953125 757.30390625 317.3203125 788.81640625 241.33828125 788.81640625 c 0
 143.59921875 788.81640625 90.85625 730.40078125 88.80625 590.60390625 c 1
EndSplineSet
EndChar

StartChar: seven.superior
Encoding: 8311 8311 165
Width: 402
Flags: W
HStem: 782.489 54.5109<34.4445 300.421>
VStem: 132.073 61.3406<350 494.005>
LayerCount: 2
Fore
SplineSet
193.4140625 350 m 1
 132.0734375 350 l 1
 140.40078125 602.53515625 300.42109375 782.4890625 300.42109375 782.4890625 c 1
 34.44453125 782.4890625 l 1
 34.44453125 837 l 1
 367.68359375 837 l 1
 367.68359375 789.36484375 l 1
 367.68359375 789.36484375 195.9015625 603.65 193.4140625 350 c 1
EndSplineSet
EndChar

StartChar: eight.superior
Encoding: 8312 8312 166
Width: 441
Flags: W
HStem: 342 51.525<131.234 310.259> 580.366 46.4609<155.588 288.853> 592.309 27.0148<115.612 328.31> 791.123 51.8773<144.97 300.82>
VStem: 34.6258 57.4437<430.306 543.858> 59.1133 55.1625<655.95 761.932> 331.03 55.1625<655.95 761.17> 349.365 57.4438<430.306 542.287>
LayerCount: 2
Fore
SplineSet
221.4484375 626.8265625 m 0xd6
 288.853125 626.8265625 331.03046875 658.09296875 331.03046875 707.06015625 c 0
 331.03046875 759.8171875 290.69296875 791.12265625 220.9609375 791.12265625 c 0
 153.71640625 791.12265625 114.27578125 759.8171875 114.27578125 707.06015625 c 0
 114.27578125 658.09296875 155.58828125 626.8265625 221.4484375 626.8265625 c 0xd6
220.9609375 843 m 0
 323.79765625 843 386.19296875 793.4875 386.19296875 712 c 0
 386.19296875 637.259375 328.31015625 592.309375 220.9609375 592.309375 c 0xb6
 115.61171875 592.309375 59.11328125 637.259375 59.11328125 712 c 0
 59.11328125 793.4875 120.12421875 843 220.9609375 843 c 0
220.4734375 393.525 m 0
 300.03125 393.525 349.36484375 426.91953125 349.36484375 487.2140625 c 0
 349.36484375 544.12421875 300.03125 580.365625 220.4734375 580.365625 c 0
 140.915625 580.365625 92.06953125 544.12421875 92.06953125 487.2140625 c 0xd9
 92.06953125 426.91953125 140.915625 393.525 220.4734375 393.525 c 0
220.9609375 619.32421875 m 0xb9
 340.8296875 619.32421875 406.80859375 570.38828125 406.80859375 482.740625 c 0
 406.80859375 397.5375 333.79765625 342 220.9609375 342 c 0
 108.12421875 342 34.62578125 397.5375 34.62578125 482.740625 c 0
 34.62578125 570.38828125 101.0921875 619.32421875 220.9609375 619.32421875 c 0xb9
EndSplineSet
EndChar

StartChar: nine.superior
Encoding: 8313 8313 167
Width: 426
Flags: W
HStem: 342 54.0555<86.7353 268.484> 517.064 49.9164<129.393 283.826> 787.866 55.1336<130.211 282.503>
VStem: 34.1383 56.4187<605.098 747.949> 337.265 55.4688<474.035 594.236>
LayerCount: 2
Fore
SplineSet
324.21875 676.8078125 m 0
 324.21875 740.8671875 286.24453125 787.86640625 206.76875 787.86640625 c 0
 126.2859375 787.86640625 90.55703125 740.8671875 90.55703125 676.8078125 c 0
 90.55703125 613.2359375 124.4390625 566.98046875 206.76875 566.98046875 c 0
 286.24453125 566.98046875 324.21875 613.2359375 324.21875 676.8078125 c 0
337.26484375 594.2359375 m 1
 337.26484375 594.2359375 313.5171875 517.0640625 197.540625 517.0640625 c 0
 96.4125 517.0640625 34.13828125 582.09609375 34.13828125 676.09609375 c 0
 34.13828125 783.09609375 99.25234375 843 206 843 c 0
 326.640625 843 392.73359375 770 392.73359375 592 c 0
 392.73359375 431 320.49140625 342 190.103125 342 c 0
 98.66484375 342 51.49375 380.63359375 51.49375 380.63359375 c 1
 70.0921875 427.7921875 l 1
 70.0921875 427.7921875 110.95703125 396.05546875 185.66171875 396.05546875 c 0
 282.88828125 396.05546875 335.21484375 454.53515625 337.26484375 594.2359375 c 1
EndSplineSet
EndChar

StartChar: circumflex
Encoding: 710 710 168
Width: 362
Flags: W
HStem: 522.972 208.035
VStem: 27.9725 306.055
LayerCount: 2
Fore
SplineSet
291.9175 522.9725 m 1
 181 662.295117188 l 1
 70.0825 522.9725 l 1
 27.9725 546 l 1
 144.945 731.0078125 l 1
 217.055 731.0078125 l 1
 334.0275 546 l 1
 291.9175 522.9725 l 1
EndSplineSet
EndChar

StartChar: caron
Encoding: 711 711 169
Width: 362
Flags: W
HStem: 532.972 208.035
VStem: 27.9725 306.055
LayerCount: 2
Fore
SplineSet
70.0825 741.0078125 m 1
 181 601.685195312 l 1
 291.9175 741.0078125 l 1
 334.0275 717.9803125 l 1
 217.055 532.9725 l 1
 144.945 532.9725 l 1
 27.9725 717.9803125 l 1
 70.0825 741.0078125 l 1
EndSplineSet
EndChar

StartChar: breve
Encoding: 728 728 170
Width: 322
VWidth: 999
Flags: W
HStem: 626.827 59.0475<80.8034 242.017> 715 20G<54.0259 54.0259 268.794 299.611>
VStem: 11.9725 298.875
LayerCount: 2
Fore
SplineSet
161.41015625 626.826523438 m 0
 56.7373652104 626.826523438 11.9725 707.707695312 11.9725 707.707695312 c 1
 11.9725 707.707695312 54.025859375 735 54.025859375 735 c 1
 54.025859375 735 77.7604789888 685.874023438 161.41015625 685.874023438 c 0
 245.059833511 685.874023438 268.794453125 735 268.794453125 735 c 1
 310.8478125 707.707695312 l 1
 310.8478125 707.707695312 266.08294729 626.826523438 161.41015625 626.826523438 c 0
EndSplineSet
EndChar

StartChar: dotaccent
Encoding: 729 729 171
Width: 248
Flags: W
HStem: 634.378 104.614<80.9031 168.097>
VStem: 72.8042 103.392<642.573 730.797>
LayerCount: 2
Fore
SplineSet
72.80421875 686.685078125 m 0
 72.80421875 718.373570683 93.1809925656 738.9921875 124.499023438 738.9921875 c 0
 155.818116981 738.9921875 176.19578125 718.373570683 176.19578125 686.685078125 c 0
 176.19578125 654.996013066 155.818116981 634.37796875 124.499023438 634.37796875 c 0
 93.1809925653 634.37796875 72.80421875 654.996013066 72.80421875 686.685078125 c 0
EndSplineSet
EndChar

StartChar: tilde
Encoding: 732 732 172
Width: 371
VWidth: 999
Flags: W
HStem: 641.227 62.075<199.319 326.702> 689.796 61.2059<47.2827 172.192> 712.364 20G<335.008 348.44>
LayerCount: 2
Fore
SplineSet
366.400390625 685.622453125 m 1xa0
 366.400390625 685.622453125 326.588316611 641.226757812 265.211835938 641.226757812 c 0xa0
 183.907843655 641.226757812 167.291786664 689.79609375 107.926835938 689.79609375 c 0
 66.4006589805 689.79609375 32.52375 656.258007812 32.52375 656.258007812 c 1
 5 708.876953125 l 1
 5 708.876953125 48.9595560444 751.001953125 106.18953125 751.001953125 c 0x40
 186.202853006 751.001953125 209.271083933 703.301757812 263.47453125 703.301757812 c 0
 310.795372354 703.301757812 335.00753125 732.364257812 335.00753125 732.364257812 c 1
 366.400390625 685.622453125 l 1xa0
EndSplineSet
EndChar

StartChar: hungarumlaut
Encoding: 733 733 173
Width: 412
Flags: W
HStem: 536 205.008
LayerCount: 2
Fore
SplineSet
261.055 536 m 1
 213.9725 549.0275 l 1
 312.89 741.0078125 l 1
 384.0275 717.9803125 l 1
 261.055 536 l 1
71.055 536 m 1
 23.9725 549.0275 l 1
 122.89 741.0078125 l 1
 194.0275 717.9803125 l 1
 71.055 536 l 1
EndSplineSet
EndChar

StartChar: multiply
Encoding: 215 215 174
Width: 450
Flags: W
LayerCount: 2
Fore
SplineSet
418.040039062 509.953585938 m 1
 73.0464140625 164.959960938 l 1
 31.9599609375 206.046414062 l 1
 376.953585938 551.040039062 l 1
 418.040039062 509.953585938 l 1
376.953585938 164.959960938 m 1
 31.9599609375 509.953585938 l 1
 73.0464140625 551.040039062 l 1
 418.040039062 206.046414062 l 1
 376.953585938 164.959960938 l 1
EndSplineSet
EndChar

StartChar: divide
Encoding: 247 247 175
Width: 450
Flags: W
HStem: 166.964 99.9137<182.72 267.279> 329.523 56.954<30 420> 449.122 99.9137<182.72 267.279>
VStem: 175.593 98.8131<174.17 259.671 456.329 541.829>
LayerCount: 2
Fore
SplineSet
420 329.523 m 1
 30 329.523 l 1
 30 386.477 l 1
 420 386.477 l 1
 420 329.523 l 1
175.5934375 216.920460938 m 0
 175.5934375 247.185251952 195.067750955 266.877804688 224.999023438 266.877804688 c 0
 254.931356658 266.877804688 274.4065625 247.185251952 274.4065625 216.920460938 c 0
 274.4065625 186.655909278 254.931356658 166.96409375 224.999023438 166.96409375 c 0
 195.067750955 166.96409375 175.5934375 186.655909278 175.5934375 216.920460938 c 0
175.5934375 499.079539062 m 0
 175.5934375 529.343509258 195.067750955 549.03590625 224.999023438 549.03590625 c 0
 254.931356658 549.03590625 274.4065625 529.343509258 274.4065625 499.079539062 c 0
 274.4065625 468.814166581 254.931356658 449.122195312 224.999023438 449.122195312 c 0
 195.067750955 449.122195312 175.5934375 468.814166581 175.5934375 499.079539062 c 0
EndSplineSet
EndChar

StartChar: AE
Encoding: 198 198 176
Width: 1024
Flags: W
HStem: 0 65.6787<594.734 977.028> 168.707 63.9815<222 566.734> 334.89 67.1925<562.11 917.028> 665.329 65.6788<594.734 977.028>
VStem: 525 41.7337<168.707 232.688> 562.11 32.6237<334.89 402.082>
LayerCount: 2
Fore
SplineSet
917.0275 334.89 m 1xf4
 562.11 334.89 l 1
 562.11 402.0825 l 1
 917.0275 402.0825 l 1
 917.0275 334.89 l 1xf4
594.73375 665.3290625 m 1
 594.73375 65.67875 l 1xf4
 977.0275 65.67875 l 1
 977.0275 0 l 1
 525 0 l 1
 525 731.0078125 l 1xf8
 977.0275 731.0078125 l 1
 977.0275 665.3290625 l 1
 594.73375 665.3290625 l 1
566.73375 168.7065 m 1xf8
 165.945 168.7065 l 1
 222 232.688 l 1
 566.73375 232.688 l 1
 566.73375 168.7065 l 1xf8
558.5825 731.0078125 m 1
 551.582568359 731.0078125 551.582568359 685.807568359 551.582568359 685.807568359 c 1
 105.33925 0 l 1
 21.9725 0 l 1
 507.172363281 731.0078125 l 1
 558.5825 731.0078125 l 1
EndSplineSet
EndChar

StartChar: ae
Encoding: 230 230 177
Width: 872
Flags: W
HStem: -9.99805 58.5077<535.593 773.282> -9.99805 59.5077<146.951 312.44> 223.826 55.321<409.679 765.23> 241.79 54.1984<183.339 388.695> 451.309 59.7013<119.61 317.672> 452.33 58.6034<520.504 693.8>
VStem: 41.9725 73.0411<80.0976 194.742> 367.268 55.743<158 399.489> 409.679 30.2431<223.826 279.147> 765.321 65.1721<279.151 376.545>
LayerCount: 2
Fore
SplineSet
367.268210938 177.561523438 m 1x5340
 428.11 158.055 l 1
 410.277167328 45.1729920501 344.104786686 -9.998046875 220.007921875 -9.998046875 c 0
 105.703350983 -9.998046875 41.9725 46.3983819152 41.9725 131.93575 c 0
 41.9725 273.443225465 186.458683208 295.856773362 388.846210938 295.98859375 c 1
 388.694775391 241.790234375 l 1
 156.580500315 241.629934334 115.013632812 203.405731332 115.013632812 135.433023438 c 0
 115.013632812 78.4388105012 158.665813854 49.5096171875 230.035421875 49.5096171875 c 0
 309.442349358 49.5096171875 367.268210938 91.5320980673 367.268210938 177.561523438 c 1x5340
423.011210938 158 m 1
 367.268210938 165 l 1
 367.268210938 317.900742188 l 2
 367.268210938 411.127959449 315.643277318 451.309423828 237.603515625 451.309423828 c 0
 155.275708252 451.309423828 96.4563476563 419.795605469 96.4563476563 419.795605469 c 1
 79.4010742187 473.983105469 l 1
 79.4010742187 473.983105469 138.813811047 511.010742188 245.25225 511.010742188 c 0x0b40
 350.42975576 511.010742188 423.011210938 446.426207049 423.011210938 340.010742188 c 2
 423.011210938 158 l 1
EndSplineSet
Refer: 43 101 N 1 0 0 1 321 0 2
EndChar

StartChar: Eth
Encoding: 208 208 178
Width: 789
Flags: W
HStem: 0 65.8468<207.192 492.753> 329.009 62.9815<36.9725 427.027> 665.154 65.8536<207.192 493.206>
VStem: 133.972 73.22<65.8468 665.154> 663.736 74.0686<229.884 499.333>
LayerCount: 2
Fore
SplineSet
427.0275 329.00925 m 1
 36.9725 329.00925 l 1
 36.9725 391.99075 l 1
 427.0275 391.99075 l 1
 427.0275 329.00925 l 1
EndSplineSet
Refer: 5 68 N 1 0 0 1 62 0 2
EndChar

StartChar: eth
Encoding: 240 240 179
Width: 588
Flags: W
HStem: -9.99805 61.4434<205.875 387.567> 451.422 59.5117<203.357 389.672>
VStem: 55.0438 64.6466<142.744 364.837> 475.321 66.5549<148.451 427.356> 475.321 39.1421<288.534 378.119>
LayerCount: 2
Fore
SplineSet
164.550488281 602.713134766 m 1xe0
 491.463574219 696.135009766 l 1
 506.579052734 641.5046875 l 1
 179.664990234 548.081835938 l 1
 164.550488281 602.713134766 l 1xe0
475.32125 251.561523438 m 0xf0
 475.32125 515.822005009 360.863226908 626.045547748 226.405957031 732.438964844 c 1
 283.189453125 771.274414062 l 1
 283.189453125 771.274414062 541.876132812 601 541.876132812 279 c 0xf0
 541.876132812 93.8330078125 448.623615873 -9.998046875 296.959960938 -9.998046875 c 0
 146.579761197 -9.998046875 55.0437890625 94.0830078122 55.0437890625 253.561523438 c 0
 55.0437890625 409.295898438 140.125879031 510.93359375 288.27525 510.93359375 c 0
 420.637797224 510.93359375 514.463382812 426.397384423 514.463382812 288.534023438 c 1xe8
 514.463382812 288.534023438 475.32125 273.561523438 475.32125 273.561523438 c 1
 475.32125 378.118799618 413.185146286 451.421929688 296.756882812 451.421929688 c 0
 172.720089252 451.421929688 119.690421875 372.208873845 119.690421875 253.561523438 c 0
 119.690421875 132.362568059 172.78126527 51.4453671875 296.959960938 51.4453671875 c 0
 425.540070416 51.4453671875 475.32125 150.346619161 475.32125 251.561523438 c 0xf0
EndSplineSet
EndChar

StartChar: Thorn
Encoding: 222 222 180
Width: 650
Flags: W
HStem: 0 21G<71.9725 145.192> 154 64.9753<119.138 447.406> 532.026 66.1931<120.138 444.75> 711.008 20G<71.9725 145.192>
VStem: 71.9725 73.22<0 154 218.975 532.026 598.219 731.008> 120.138 25.055<154 218.975 532.026 598.219> 525.672 73.1329<288.774 461.066>
LayerCount: 2
Fore
SplineSet
71.9725 0 m 1xfa
 71.9725 731.0078125 l 1
 145.1925 731.0078125 l 1
 145.1925 0 l 1
 71.9725 0 l 1xfa
119.1375 154 m 1
 119.1375 218.9753125 l 1
 316.861171875 219.085664062 l 2
 436.40563743 219.172581567 525.671960938 247.041935452 525.671960938 374.561523438 c 0
 525.671960938 502.500864512 436.392389465 531.869104807 316.861171875 531.922148438 c 2
 120.1375 532.025664062 l 1
 120.1375 598.2188125 l 1xf6
 341.916171875 598.2188125 l 2
 477.07798035 598.2188125 598.80484375 537.306075471 598.80484375 374.561523438 c 0
 598.80484375 213.240207598 483.259109269 154 341.916171875 154 c 2
 119.1375 154 l 1
EndSplineSet
EndChar

StartChar: thorn
Encoding: 254 254 181
Width: 602
Flags: W
HStem: -9.99805 59.6269<223.368 404.999> 452.119 58.8144<225.204 406.254> 731.002 20G<73.367 140.77>
VStem: 73.367 67.4035<-180 751.002> 107.784 32.9861<66.4395 183.562 283.562 425.747> 485.915 66.0411<139.242 365.032>
LayerCount: 2
Fore
SplineSet
73.367 -180 m 1xf4
 73.367 751.001953125 l 1
 140.7705 751.001953125 l 1
 140.7705 -180 l 1
 73.367 -180 l 1xf4
140.7705 213.561523438 m 1
 140.7705 133.694256772 193.860975369 49.6288671875 318.040039062 49.6288671875 c 0
 435.636824726 49.6288671875 485.915078125 131.2721281 485.915078125 253.561523438 c 0
 485.915078125 372.626981069 435.671493078 452.119179688 318.151367188 452.119179688 c 0
 207.840895858 452.119179688 140.7705 384.637971578 140.7705 283.561523438 c 1xf4
 104.894367188 283.561523438 l 1
 104.894367188 425.747070312 192.737560907 510.93359375 328.0275 510.93359375 c 0
 470.267734375 510.93359375 551.956210938 409.295898438 551.956210938 253.561523438 c 0
 551.956210938 94.0830078122 466.48453125 -9.998046875 326.067539062 -9.998046875 c 0
 190.378424802 -9.998046875 107.784367188 66.4394531247 107.784367188 183.561523438 c 1xec
 140.7705 213.561523438 l 1
EndSplineSet
EndChar

StartChar: kgreenlandic
Encoding: 312 312 182
Width: 555
Flags: W
HStem: 0 21G<76.3945 143.798 396.613 495.472> 229.367 53.266<89 228.913> 481.011 20G<76.3945 143.798 387.382 485.472>
VStem: 76.3945 67.4035<0 229.367 282.633 501.011> 89 54.798<229.367 282.633>
LayerCount: 2
Fore
SplineSet
228.913 282.633 m 1xe8
 228.913 229.367 l 1
 89 229.367 l 1
 89 282.633 l 1
 228.913 282.633 l 1xe8
412.633154297 0 m 1
 228.913 229.367 l 1
 228.913 282.633 l 1
 403.357958984 501.010742188 l 1
 485.472363281 501.010742188 l 1
 284.75 258.027636719 l 1
 495.472363281 0 l 1
 412.633154297 0 l 1
76.3945 0 m 1xf0
 76.3945 501.010742188 l 1
 143.798 501.010742188 l 1
 143.798 0 l 1
 76.3945 0 l 1xf0
EndSplineSet
EndChar

StartChar: Eng
Encoding: 330 330 183
Width: 719
Flags: W
HStem: -189.994 62.3485<358.616 538.39> 0 21G<71.9725 144.587> 711.008 20G<71.9725 164.552 574.413 647.028>
VStem: 71.9725 72.6145<0 612.62> 574.413 72.6145<-88.2301 -7.33691 124.012 731.008>
LayerCount: 2
Back
SplineSet
75 0 m 5
 75 731.0078125 l 5
 208 731.0078125 l 5
 517 228.599609375 l 5
 517 731.0078125 l 5
 644 731.0078125 l 5
 644 0 l 5
 511 0 l 5
 202 515.004882812 l 5
 202 0 l 5
 75 0 l 5
EndSplineSet
Fore
SplineSet
71.9725 0 m 1
 71.9725 731.0078125 l 1
 150.587 731.0078125 l 1
 574.413 124.012109375 l 1
 574.413 731.0078125 l 1
 647.0275 731.0078125 l 1
 647.0275 -3 l 2
 647.0275 -125.529296875 597.476896552 -189.994140625 477.9725 -189.994140625 c 0
 398.005975754 -189.994140625 350.945 -169.296890625 350.945 -169.296890625 c 1
 362.156 -110.553890625 l 1
 362.156 -110.553890625 406.2671533 -127.645640625 468.00925 -127.645640625 c 0
 532.358096562 -127.645640625 571.620731048 -99.3868768033 572.8895625 -7.3369140625 c 1
 144.587 612.619882812 l 1
 144.587 0 l 1
 71.9725 0 l 1
EndSplineSet
Substitution2: "'ss06' Style Set 6 lookup 7-1" Eng.ss06
EndChar

StartChar: eng
Encoding: 331 331 184
Width: 595
Flags: W
HStem: -189.994 59.5595<275.411 428.466> 0 21G<73.367 140.77> 450.147 60.7869<224.032 401.881> 481.011 20G<73.367 140.77>
VStem: 73.367 67.4035<0 501.011> 461.979 67.4035<-94.8434 387.88>
LayerCount: 2
Fore
SplineSet
73.367 0 m 1xdc
 73.367 501.010742188 l 1
 140.7705 501.010742188 l 1
 140.7705 0 l 1
 73.367 0 l 1xdc
140.7705 284 m 1
 99.7155 293.561523438 l 1
 125.071268258 444 199.837588315 510.93359375 335.0275 510.93359375 c 0
 463.37727513 510.93359375 529.38284375 439.567558792 529.38284375 290.616523438 c 2
 529.38284375 -9 l 2
 529.38284375 -117.937600252 481.865271104 -189.994140625 367.26359375 -189.994140625 c 0
 308.421195576 -189.994140625 267.72234375 -171.994140625 267.72234375 -171.994140625 c 1
 278.93334375 -116.342890625 l 1
 278.93334375 -116.342890625 310.707583123 -130.434640625 355.18109375 -130.434640625 c 0
 430.37227087 -130.434640625 461.97934375 -92.952562312 461.97934375 -5.994140625 c 2
 461.97934375 273.616523438 l 2
 461.97934375 399.440491623 417.547607078 450.146679688 312.945 450.146679688 c 0xec
 206.978006229 450.146679688 140.7705 383.630440765 140.7705 284 c 1
EndSplineSet
EndChar

StartChar: OE
Encoding: 338 338 185
Width: 991
Flags: W
HStem: 0 65.4434<307.024 532.777> 0 65.6787<562.192 949.028> 334.89 67.1925<526.082 889.027> 665.329 65.6788<562.192 949.028> 665.867 65.1407<306.572 532.777>
VStem: 61.9725 71.1604<230.771 498.501> 526.082 36.11<334.89 402.082>
LayerCount: 2
Fore
SplineSet
532.77734375 65.3330625 m 1xae
 532.77734375 0 l 1
 428.888671875 0 l 2
 236.966430107 0 61.9725 97.9169921873 61.9725 364.561523438 c 0
 61.9725 631.206054688 235.836534304 731.0078125 428.888671875 731.0078125 c 2
 532.77734375 731.0078125 l 1
 532.77734375 665.970664062 l 1
 448.888671875 665.867148438 l 2
 289.481557678 665.682529204 133.132882812 609.531737324 133.132882812 364.561523438 c 0
 133.132882812 119.228953559 289.481557976 65.6397038148 448.888671875 65.4434140623 c 2
 532.77734375 65.3330625 l 1xae
EndSplineSet
Refer: 10 69 N 1 0 0 1 417 0 2
EndChar

StartChar: oe
Encoding: 339 339 186
Width: 920
Flags: W
HStem: -9.99805 58.5077<202.985 362.147 598.936 821.761> 223.826 55.321<478.596 508.839 509.915 813.23> 450.816 60.1172<197.238 364.757 581.925 747.347>
VStem: 51.9725 66.7384<139.539 359.476> 443.176 66.7384<112.769 390.571> 478.596 30.2431<224.32 279.026> 813.321 65.1721<279.151 380.867>
LayerCount: 2
Fore
SplineSet
118.710882812 253.561523438 m 0xfa
 118.710882812 131.45420581 174.610411738 49.9316171875 283.429921875 49.9316171875 c 0
 389.127073842 49.9316171875 443.176460938 131.45420581 443.176460938 253.561523438 c 0
 443.176460938 371.845894531 389.160810527 450.816429688 283.54125 450.816429688 c 0
 174.643941287 450.816429688 118.710882812 371.845894531 118.710882812 253.561523438 c 0xfa
51.9725 253.561523438 m 0
 51.9725 409.295898438 139.551406669 510.93359375 283.429921875 510.93359375 c 0
 424.217359169 510.93359375 509.91484375 409.295898438 509.91484375 253.561523438 c 0
 509.91484375 94.0830078125 424.217359169 -9.998046875 283.429921875 -9.998046875 c 0
 139.551406669 -9.998046875 51.9725 94.0830078125 51.9725 253.561523438 c 0
441.89 253.561523438 m 0
 441.89 409.295898438 527.198409167 510.93359375 667.347421875 510.93359375 c 0
 828.105478858 510.93359375 878.493320312 378.556218994 878.493320312 283.7751875 c 0
 878.493320312 246.764796631 874.0275 223.82575 874.0275 223.82575 c 1
 478.59625 223.82575 l 1
 478.59625 279.14675 l 1
 813.2295 279.14675 l 1
 813.2295 279.14675 813.816470948 284.386944581 813.32125 295.055 c 0
 811.007163818 377.086100342 769.097621048 452.330179688 664.945 452.330179688 c 0
 555.592252589 452.330179688 508.839382812 371.953452881 508.839382812 251.561523438 c 0xf6
 508.839382812 118.875028077 568.908694707 48.5096171875 704.1835 48.5096171875 c 0
 787.911522965 48.5096171875 835.624054688 76.641453125 835.624054688 76.641453125 c 1
 848.854648438 18.595703125 l 1
 848.854648438 18.595703125 795.691907349 -9.998046875 703.347421875 -9.998046875 c 0
 522.71967128 -9.998046875 441.89 94.0830078125 441.89 253.561523438 c 0
EndSplineSet
EndChar

StartChar: longs
Encoding: 383 383 187
Width: 269
Flags: W
HStem: 0 21G<100.798 168.202> 705.057 55.954<202.381 348.423>
VStem: 100.798 67.4035<0 668.344>
LayerCount: 2
Fore
SplineSet
168.20175 577.928242188 m 2
 168.20175 0 l 1
 100.79825 0 l 1
 100.79825 590.928242188 l 2
 100.79825 693.300020975 147.159532915 761.010742188 258.9725 761.010742188 c 0
 315.754050932 761.010742188 355.0275 745.010742188 355.0275 745.010742188 c 1
 345.211 691.267742188 l 1
 345.211 691.267742188 315.558613183 705.056742188 274.055 705.056742188 c 0
 199.529148972 705.056742188 168.20175 666.7644516 168.20175 577.928242188 c 2
EndSplineSet
EndChar

StartChar: uni018F
Encoding: 399 399 188
Width: 765
Flags: W
HStem: -9.99805 69.0489<265.358 491.436> 345.343 63.9815<123.328 675.063> 671.861 67.2599<181.958 468.024>
VStem: 46.9725 75.5503<202.651 345.312> 645.856 31.2064<345.343 409.325>
LayerCount: 2
Back
SplineSet
35 364.561523438 m 0
 35 591.206054688 163.541887394 739.12109375 389.888671875 739.12109375 c 0
 653.541980974 739.12109375 740.108398438 551.971330386 740.108398438 365.891601562 c 0
 740.108398438 303.039520695 732 284 732 284 c 1
 162 284 l 1
 160 424 l 1
 562 424 l 1
 562 424 560.13712938 586.659179688 391 586.659179688 c 0
 261.796380576 586.659179688 205.848632812 497.743164062 205.848632812 364.561523438 c 4
 205.848632812 231.379882812 273.845797251 142.463867188 432.888671875 142.463867188 c 0
 580.720714467 142.463867188 659.018554688 179.595703125 659.018554688 179.595703125 c 1
 682.827148438 32.595703125 l 1
 682.827148438 32.595703125 604.343305548 -9.998046875 425.888671875 -9.998046875 c 0
 176.581210181 -9.998046875 35 137.916992188 35 364.561523438 c 0
EndSplineSet
Fore
SplineSet
718.135898438 364.561523438 m 0
 718.135898438 137.916992187 595.741508432 -9.998046875 380.219726562 -9.998046875 c 0
 129.343698265 -9.998046875 46.9725 163.626801931 46.9725 336.258945312 c 0
 46.9725 386.043637295 55.0808984375 409.324796875 55.0808984375 409.324796875 c 1
 675.062648438 409.324796875 l 1
 677.062648438 345.343296875 l 1
 123.328398438 345.343296875 l 1
 123.328398438 345.343296875 122.52275 340.447346835 122.52275 323.00925 c 0
 122.52275 191.571182672 189.324457316 59.0508671876 378.713898438 59.0508671876 c 0
 561.634573822 59.0508671876 645.856265625 181.360984021 645.856265625 364.561523438 c 0
 645.856265625 548.834842994 547.701860237 671.861179688 341.403226562 671.861179688 c 0
 198.741189528 671.861179688 123.18159375 627.24309375 123.18159375 627.24309375 c 1
 104.25375 692.52734375 l 1
 104.25375 692.52734375 177.553211628 739.12109375 344.219726562 739.12109375 c 0
 582.702185644 739.12109375 718.135898438 591.206054687 718.135898438 364.561523438 c 0
EndSplineSet
EndChar

StartChar: florin
Encoding: 402 402 190
Width: 398
Flags: W
HStem: -190.011 58.8623<-31.0261 112.416> 443.56 57.451<34 362> 702.268 58.743<242.381 388.109>
VStem: 140.798 67.4035<-102.761 668.344>
LayerCount: 2
Fore
SplineSet
34 501.010742188 m 1
 362 501.010742188 l 1
 362 443.55975 l 1
 34 443.55975 l 1
 34 501.010742188 l 1
140.79825 -15.7722421875 m 2
 140.79825 -15.7722421875 140.79825 590.928242188 140.79825 590.928242188 c 2
 140.79825 693.300020975 187.159532915 761.010742188 298.9725 761.010742188 c 0
 355.754050932 761.010742188 395.0275 745.010742188 395.0275 745.010742188 c 1
 385.211 688.478742188 l 1
 385.211 688.478742188 355.558613183 702.267742188 314.055 702.267742188 c 0
 239.529148972 702.267742188 208.20175 664.815524427 208.20175 577.928242188 c 2
 208.20175 -15.9832421875 l 2
 208.20175 -120.72965214 166.201931034 -190.010742188 64.90825 -190.010742188 c 0
 3.18065611899 -190.010742188 -39.51375 -171.313492188 -39.51375 -171.313492188 c 1
 -26.90825 -114.267742188 l 1
 -26.90825 -114.267742188 4.28458711827 -131.148492188 47.945 -131.148492188 c 0
 113.318584558 -131.148492188 140.79825 -96.3966096575 140.79825 -15.7722421875 c 2
EndSplineSet
EndChar

StartChar: uni01B7
Encoding: 439 439 191
Width: 584
Flags: W
HStem: -9.99805 63.708<99.2454 376.421> 357.26 58.1892<276.367 390.29> 665.624 65.376<46.9725 417.716>
VStem: 467.029 70.9095<130.998 291.952>
LayerCount: 2
Fore
SplineSet
276.36675 415.4495 m 1
 409.114287782 415.4495 537.938632812 379.836308473 537.938632812 217.579148438 c 0
 537.938632812 55.0873100761 422.833595746 -9.998046875 250 -9.998046875 c 0
 107.306426342 -9.998046875 22.423671875 39.5146796875 22.423671875 39.5146796875 c 1
 41.8936640625 98.3359453123 l 1
 41.8936640625 98.3359453123 121.003049577 53.709953125 245.09175 53.709953125 c 0
 398.619144995 53.709953125 467.029148438 108.043287725 467.029148438 219.467783936 c 0
 467.029148438 314.401320954 397.454313422 356.905225923 264.056171875 357.260304688 c 2
 174 357.523 l 1
 174 399.3945 l 1
 417.71575 665.624 l 1
 46.9725 665.624 l 1
 46.9725 731 l 1
 507.0275 731 l 1
 507.0275 669.624 l 1
 276.36675 415.4495 l 1
EndSplineSet
EndChar

StartChar: uni0292
Encoding: 658 658 192
Width: 524
Flags: W
HStem: -189.994 63.075<73.49 325.747> 143.264 57.3688<251.862 341.565> 439.359 61.6513<44 381.202>
VStem: 407.268 70.671<-58.655 86.5735>
LayerCount: 2
Fore
SplineSet
251.86225 200.633 m 1
 346.698407721 200.633 477.938632812 162.245845817 477.938632812 20.6905471191 c 0
 477.938632812 -126.61422808 370.8287047 -189.994140625 210 -189.994140625 c 0
 98.6571329009 -189.994140625 32.423671875 -159.086914062 32.423671875 -159.086914062 c 1
 49.1689140625 -95.5958984379 l 1
 49.1689140625 -95.5958984379 109.058664625 -126.919140625 203 -126.919140625 c 0
 344.304170307 -126.919140625 407.267648438 -70.5966381135 407.267648438 16.3039326172 c 0
 407.267648438 106.423630697 342.075760035 142.775476338 217.083671875 143.264210938 c 2
 147.945 143.52690625 l 1
 147.945 181.63690625 l 1
 381.202 439.359492188 l 1
 44 439.359492188 l 1
 44 501.010742188 l 1
 467.0275 501.010742188 l 1
 467.0275 443.359492188 l 1
 251.86225 200.633 l 1
EndSplineSet
EndChar

StartChar: Oslash
Encoding: 216 216 193
Width: 804
Flags: W
HStem: -9.99805 69.3517<282.974 514.804> 669.769 69.3517<282.974 514.804>
VStem: 51.9725 74.0686<226.896 502.227> 671.736 74.0686<226.896 502.227>
LayerCount: 2
Fore
SplineSet
174.120947266 -91.4697265625 m 1
 556.425878906 801.403320312 l 1
 622.884521484 801.403320312 l 1
 240.579589844 -91.4697265625 l 1
 174.120947266 -91.4697265625 l 1
EndSplineSet
Refer: 1 79 N 1 0 0 1 0 0 2
EndChar

StartChar: oslash
Encoding: 248 248 194
Width: 593
Flags: W
HStem: -9.99805 59.9297<205.841 382.978> 450.816 60.1172<203.04 385.702>
VStem: 51.9725 66.7384<145.1 359.477> 471.066 66.7384<144.394 359.736>
LayerCount: 2
Fore
SplineSet
85.8029296875 -91.4697265625 m 1
 444.276025391 581.403320312 l 1
 503.202539063 581.403320312 l 1
 144.729443359 -91.4697265625 l 1
 85.8029296875 -91.4697265625 l 1
EndSplineSet
Refer: 29 111 N 1 0 0 1 0 0 2
EndChar

StartChar: ring
Encoding: 730 730 197
Width: 355
Flags: W
HStem: 514.933 49.0065<125.657 230.731> 711.808 49.194<123.777 231.265>
VStem: 55.9175 52.9714<579.601 696.393> 246.888 52.9714<580.147 695.875>
LayerCount: 2
Fore
SplineSet
108.888875 639.827734375 m 0
 108.888875 594.321292331 129.286999684 563.939296875 176.99609375 563.939296875 c 0
 225.95598547 563.939296875 246.88846875 594.321292331 246.88846875 639.827734375 c 0
 246.88846875 682.990931128 225.985813167 711.80796875 177.094726562 711.80796875 c 0
 129.316829768 711.80796875 108.888875 682.990931128 108.888875 639.827734375 c 0
55.9175 640.061132812 m 0
 55.9175 713.242204481 101.69041076 761.001953125 176.888671875 761.001953125 c 0
 253.330123376 761.001953125 299.85984375 713.242204481 299.85984375 640.061132812 c 0
 299.85984375 564.346654936 253.330123376 514.9328125 176.888671875 514.9328125 c 0
 101.69041076 514.9328125 55.9175 564.346654936 55.9175 640.061132812 c 0
EndSplineSet
EndChar

StartChar: ogonek
Encoding: 731 731 198
Width: 307
VWidth: 999
Flags: W
HStem: -244.541 49.688<124.239 269.117>
VStem: 46.9725 60.1375<-176.641 -50.1277>
LayerCount: 2
Fore
SplineSet
46.9725 -130 m 0
 46.9725 -30.5220125786 141.945 39 141.945 39 c 1
 204.055 39 l 1
 204.055 39 107.11 -35.834299363 107.11 -121.945 c 0
 107.11 -174.36233519 138.323771048 -194.85325 193.2385 -194.85325 c 0
 241.476310247 -194.85325 263.1835 -175.9725 263.1835 -175.9725 c 1
 277 -221.54125 l 1
 277 -221.54125 244.426287616 -244.54125 179 -244.54125 c 0
 97.7020524029 -244.54125 46.9725 -203.79061518 46.9725 -130 c 0
EndSplineSet
EndChar

StartChar: minute
Encoding: 8242 8242 203
Width: 235
Flags: W
HStem: 456 275.008
VStem: 37.9175 161.165
LayerCount: 2
Fore
SplineSet
37.9175 456 m 1
 124.89 731.0078125 l 1
 199.0825 731.0078125 l 1
 89.54125 456 l 1
 37.9175 456 l 1
EndSplineSet
EndChar

StartChar: bullet
Encoding: 8226 8226 206
Width: 325
Flags: W
HStem: 250 226.449<92.6443 232.581>
VStem: 50 225.227<292.876 433.573>
LayerCount: 2
Fore
SplineSet
50 363.224609375 m 0
 50 431.817406607 94.3894466578 476.44921875 162.612304688 476.44921875 c 0
 230.836094646 476.44921875 275.2265625 431.817406607 275.2265625 363.224609375 c 0
 275.2265625 294.630626073 230.836094646 250 162.612304688 250 c 0
 94.3894466578 250 50 294.630626073 50 363.224609375 c 0
EndSplineSet
EndChar

StartChar: dagger
Encoding: 8224 8224 207
Width: 530
Flags: W
HStem: 400.928 59.165<30 500>
VStem: 236.418 57.165<105.427 759.47>
LayerCount: 2
Fore
SplineSet
223.39 -171.469726562 m 1
 236.4175 427 l 1
 229.90375 759.469726562 l 1
 300.09625 759.469726562 l 1
 293.5825 426 l 1
 306.61 -171.469726562 l 1
 223.39 -171.469726562 l 1
30 400.928242188 m 1
 30 460.093242188 l 1
 500 460.093242188 l 1
 500 400.928242188 l 1
 30 400.928242188 l 1
EndSplineSet
EndChar

StartChar: daggerdbl
Encoding: 8225 8225 208
Width: 530
Flags: W
HStem: 110.928 59.165<30 500> 450.928 59.165<30 500>
VStem: 229.207 71.587<-171.47 8.08304 211.886 410.267 594.516 759.47> 236.418 57.165<-78.9288 311.733 322.623 759.47>
LayerCount: 2
Fore
SplineSet
30 110.928242188 m 1xc0
 30 170.093242188 l 1
 500 170.093242188 l 1
 500 110.928242188 l 1
 30 110.928242188 l 1xc0
226.4175 -171.469726562 m 1
 236.4175 137 l 1xd0
 229.2065 317 l 1xe0
 236.4175 477 l 1
 229.90375 759.469726562 l 1
 300.09625 759.469726562 l 1
 293.5825 476 l 1xd0
 300.7935 318 l 1xe0
 293.5825 136 l 1xd0
 303.5825 -171.469726562 l 1
 226.4175 -171.469726562 l 1
30 450.928242188 m 1
 30 510.093242188 l 1
 500 510.093242188 l 1
 500 450.928242188 l 1
 30 450.928242188 l 1
EndSplineSet
EndChar

StartChar: uni2116
Encoding: 8470 8470 209
Width: 1126
Flags: W
HStem: 0 21G<71.9725 144.587 554.576 647.028> 265.734 56.9265<738.972 1067.03> 392.006 60.2694<841.269 973.753> 678.535 60.4569<840.373 974.708> 711.008 20G<71.9725 164.552 574.413 647.028>
VStem: 71.9725 72.6145<0 612.62> 574.413 72.6145<124.012 731.008> 742.056 64.0634<487.692 643.182> 1009.88 64.0634<489.652 643.182>
LayerCount: 2
Fore
SplineSet
738.9725 322.6605 m 1xe780
 738.9725 322.6605 1067.0275 322.6605 1067.0275 322.6605 c 1
 1067.0275 322.6605 1067.0275 265.734 1067.0275 265.734 c 1
 1067.0275 265.734 738.9725 265.734 738.9725 265.734 c 1
 738.9725 322.6605 l 1xe780
806.1196875 567.817226562 m 0
 806.1196875 498.532369471 837.582256602 452.274914062 906.897460938 452.274914062 c 0
 977.755708196 452.274914062 1009.8803125 498.532369471 1009.8803125 567.817226562 c 0
 1009.8803125 634.20971481 977.793096514 678.535320312 907.020507812 678.535320312 c 0xf780
 837.619653852 678.535320312 806.1196875 634.20971481 806.1196875 567.817226562 c 0
742.056328125 567.592617188 m 0
 742.056328125 671.306187233 804.467494821 738.9921875 907 738.9921875 c 0
 1010.77567687 738.9921875 1073.94367188 671.306187233 1073.94367188 567.592617188 c 0
 1073.94367188 461.345819361 1010.77567687 392.005546875 907 392.005546875 c 0
 804.467494821 392.005546875 742.056328125 461.345819361 742.056328125 567.592617188 c 0
EndSplineSet
Refer: 11 78 N 1 0 0 1 0 0 2
EndChar

StartChar: uni20BF
Encoding: 8383 8383 210
Width: 644
Flags: W
HStem: -105 146.58<183.579 247.071 362.319 425.811> 0 64.7442<140.192 456.951> 335.574 59.8603<112.165 427.59> 666.365 64.6426<140.192 424.128> 682.89 146.58<183.579 247.071 362.319 425.811>
VStem: 112.165 28.0275<335.574 395.434> 183.579 63.4918<-105 41.5796 682.89 829.47> 362.319 63.4915<-105 41.5796 682.89 829.47> 500.736 69.0686<457.042 603.929> 523.736 69.0686<125.564 274.679>
LayerCount: 2
Fore
SplineSet
362.319482422 -105 m 1xa7
 362.319482422 41.5795898438 l 1
 425.810986328 41.5795898438 l 1
 425.810986328 -105 l 1
 362.319482422 -105 l 1xa7
362.319482422 682.890136719 m 1x2f
 362.319482422 829.469726562 l 1
 425.810986328 829.469726562 l 1
 425.810986328 682.890136719 l 1
 362.319482422 682.890136719 l 1x2f
183.579345703 -105 m 1xa7
 183.579345703 41.5795898438 l 1
 247.071191406 41.5795898438 l 1
 247.071191406 -105 l 1
 183.579345703 -105 l 1xa7
183.579345703 682.890136719 m 1x2f
 183.579345703 829.469726562 l 1
 247.071191406 829.469726562 l 1
 247.071191406 682.890136719 l 1
 183.579345703 682.890136719 l 1x2f
EndSplineSet
Refer: 19 66 N 1 0 0 1 0 0 2
EndChar

StartChar: uni20A6
Encoding: 8358 8358 211
Width: 874
Flags: W
HStem: 0 21G<159.972 231.192 626.682 721.028> 270.156 61.5962<46.9725 205.192 668.808 827.028> 402.248 61.5962<46.9725 205.192 668.808 827.028> 711.008 20G<159.972 254.438 649.808 721.028>
VStem: 46.9725 184.22<270.156 331.752 402.248 463.844> 159.972 71.22<0 270.156 331.752 402.248 463.844 622.62> 159.972 45.22<270.156 331.752 402.248 463.844> 649.808 177.22<270.156 331.752 402.248 463.844> 649.808 71.22<114.012 270.156 331.752 402.248 463.844 731.008> 668.808 52.22<270.156 331.752 402.248 463.844>
LayerCount: 2
Fore
SplineSet
827.0275 270.156 m 1xf1
 668.8075 270.156 l 1
 668.8075 331.75225 l 1xf040
 827.0275 331.75225 l 1
 827.0275 270.156 l 1xf1
827.0275 402.24775 m 1xf1
 668.8075 402.24775 l 1
 668.8075 463.844 l 1xf040
 827.0275 463.844 l 1
 827.0275 402.24775 l 1xf1
205.1925 270.156 m 1xf2
 46.9725 270.156 l 1
 46.9725 331.75225 l 1xf8
 205.1925 331.75225 l 1
 205.1925 270.156 l 1xf2
205.1925 402.24775 m 1xf2
 46.9725 402.24775 l 1
 46.9725 463.844 l 1xf8
 205.1925 463.844 l 1
 205.1925 402.24775 l 1xf2
159.9725 0 m 1xf440
 159.9725 731.0078125 l 1
 241.1925 731.0078125 l 1
 649.8075 114.012109375 l 1
 649.8075 731.0078125 l 1
 721.0275 731.0078125 l 1xf280
 721.0275 0 l 1
 639.8075 0 l 1
 231.1925 622.619882812 l 1
 231.1925 0 l 1
 159.9725 0 l 1xf440
EndSplineSet
EndChar

StartChar: uni20BD
Encoding: 8381 8381 212
Width: 703
Flags: W
HStem: 0 21G<147.972 221.192> 172.297 58.11<30 544> 312.297 60.11<30 509.567> 664.273 66.7344<221.192 495.846>
VStem: 147.972 73.22<0 664.273> 579.25 72.5549<434.125 594.475>
LayerCount: 2
Fore
SplineSet
544 172.2965625 m 1
 30 172.2965625 l 1
 30 230.4065625 l 1
 544 230.4065625 l 1
 544 172.2965625 l 1
30 312.2965625 m 1
 30 372.4065625 l 1
 384.411671875 372.516914062 l 2
 495.956540416 372.669439962 579.249960938 399.599801289 579.249960938 511.506523438 c 0
 579.249960938 633.534948397 487.014303588 664.014160056 363.494171875 664.169898438 c 2
 221.1925 664.273414062 l 1
 221.1925 0 l 1
 147.9725 0 l 1
 147.9725 731.0078125 l 1
 367.916171875 731.0078125 l 2
 550.530429688 731.0078125 651.80484375 666.170344074 651.80484375 511.506523438 c 0
 651.80484375 382.647748086 560.424960938 312.2965625 406.0275 312.2965625 c 2
 30 312.2965625 l 1
EndSplineSet
EndChar

StartChar: dong
Encoding: 8363 8363 213
Width: 645
Flags: W
HStem: 0 61.5963<36.9725 587.028> 136.057 62.7594<220.764 398.739> 507.362 60.5719<223.313 397.512> 620.853 57.2935<307.973 598.028> 731.002 20G<459.23 533.606>
VStem: 88.0438 69.5274<263.602 439.793> 459.23 74.376<341.429 751.002> 459.23 53.9036<380.402 489.916>
LayerCount: 2
Fore
SplineSet
587.0275 0 m 1xfc
 36.9725 0 l 1
 36.9725 0 36.9725 61.59625 36.9725 61.59625 c 1
 36.9725 61.59625 587.0275 61.59625 587.0275 61.59625 c 1
 587.0275 61.59625 587.0275 0 587.0275 0 c 1xfc
598.0275 620.85325 m 1
 307.9725 620.85325 l 1
 307.9725 678.14675 l 1
 598.0275 678.14675 l 1
 598.0275 620.85325 l 1
533.6055 146.055 m 1xfe
 459.2295 146.055 l 1xfd
 459.2295 751.001953125 l 1
 533.6055 751.001953125 l 1
 533.6055 146.055 l 1xfe
459.2295 378.401523438 m 1xfe
 459.2295 441.230511607 419.616072638 507.361679688 306.959960938 507.361679688 c 0
 208.059695092 507.361679688 157.571171875 444.524259447 157.571171875 350.401523438 c 0
 157.571171875 259.502720463 208.027726426 198.816367188 306.848632812 198.816367188 c 0
 419.578192642 198.816367188 459.2295 255.911391982 459.2295 341.429023438 c 1xfe
 508.133132812 353.429023438 l 1
 508.133132812 223.7503125 433.150188915 136.056953125 288.945 136.056953125 c 0
 151.48040307 136.056953125 88.0437890625 226.669676023 88.0437890625 350.401523438 c 0
 88.0437890625 477.851374464 157.920444004 567.93359375 293.904960938 567.93359375 c 0
 443.596741904 567.93359375 513.133132812 489.91584026 513.133132812 380.401523438 c 1xfd
 459.2295 378.401523438 l 1xfe
EndSplineSet
EndChar

StartChar: uni1E9E
Encoding: 7838 7838 220
Width: 743
Flags: W
HStem: -10 63.289<357.979 562.823> 0 21G<71.9725 145.192> 342.707 58.3485<444.615 554.607> 666.329 64.6788<219.49 563.752>
VStem: 71.9725 73.22<0 595.806> 630.11 70.9172<117.978 280.72>
LayerCount: 2
Fore
SplineSet
71.9725 504 m 2x7c
 71.9725 663.708074726 154.533772727 731.0078125 339.0825 731.0078125 c 2
 655 731.0078125 l 1
 655 679.3565625 l 1
 444.6145 401.055 l 1
 570.920787483 401.055 701.0275 364.518550724 701.0275 202.0275 c 0
 701.0275 58.8159429824 614.443932927 -10 472 -10 c 0
 369.902558283 -10 311.9725 26 311.9725 26 c 1
 311.9725 26 335 86.165 335 86.165 c 1
 335 86.165 385.238538151 53.2890234375 468.988125 53.2890234375 c 0xbc
 567.117198714 53.2890234375 630.11025 102.744137201 630.11025 202.0275 c 0
 630.11025 299.197530927 567.226345745 342.7065 419 342.7065 c 2
 347.9725 342.7065 l 1
 347.9725 382.0275 l 1
 563.7525 666.3290625 l 1
 341.9725 666.3290625 l 2
 177.748748287 666.3290625 145.1925 607.721787877 145.1925 471.0078125 c 2
 145.1925 0 l 1
 71.9725 0 l 1
 71.9725 504 l 2x7c
EndSplineSet
EndChar

StartChar: germandbls
Encoding: 223 223 221
Width: 725
Flags: W
HStem: -9.99805 58.117<348.937 571.798> 0 21G<97.7708 165.174> 453.556 58.3778<409.867 585.893> 702.332 58.6788<249.246 497.314>
VStem: 97.7708 67.4035<0 618.417> 305.177 67.2501<315.036 418.369> 587.138 62.5079<501.027 612.114> 608.356 65.3614<80.804 180.53>
LayerCount: 2
Fore
SplineSet
469.3641604 224.535484131 m 0xbd
 338.292926225 249.892555905 305.176601562 293.60037491 305.176601562 361.9725 c 0
 305.176601562 455.388013268 379.744646891 511.93359375 487 511.93359375 c 0
 550.477305975 511.93359375 587.13775 501.0275 587.13775 501.0275 c 1
 586.160951039 636.601560506 534.025223805 702.331992188 370 702.331992188 c 0
 202.827775388 702.331992188 165.17425 632.580002604 165.17425 494.900742188 c 2
 165.17425 0 l 1
 97.77075 0 l 1
 97.77075 507.900742188 l 2
 97.77075 662.471392563 164.645784802 761.010742188 361 761.010742188 c 0
 612.573510823 761.010742188 649.645664062 625.874022195 649.645664062 503.844 c 0x7e
 649.645664062 458.820776576 642.294921875 423.701335938 642.294921875 423.701335938 c 1
 642.294921875 423.701335938 589.572991682 453.555796875 511.862414062 453.555796875 c 0
 415.681505959 453.555796875 372.42671875 419.848139485 372.42671875 365.491054688 c 0
 372.42671875 318.28364664 400.301360058 296.390660627 500.128868896 277.683327148 c 0
 630.574144687 252.43910504 673.716953125 208.350549421 673.716953125 136.42984375 c 0
 673.716953125 46.1880085612 605.178252068 -9.998046875 476.856445312 -9.998046875 c 0
 367.371639454 -9.998046875 297.9725 26.5625 297.9725 26.5625 c 1
 314.314453125 83.998828125 l 1
 314.314453125 83.998828125 381.554998645 48.1189453125 463.993164062 48.1189453125 c 0
 561.793720708 48.1189453125 608.355507812 76.4368213777 608.355507812 131.364414062 c 0
 608.355507812 174.071077785 585.481435556 202.430451372 469.3641604 224.535484131 c 0xbd
EndSplineSet
EndChar

StartChar: uni2113
Encoding: 8467 8467 222
Width: 619
Flags: W
HStem: -10 66.5334<292.954 504.655> 697.588 63.4141<318.945 460.252>
VStem: 133.917 71.3577<210.947 519.074> 497.24 68.9271<476.263 658.986>
LayerCount: 2
Fore
SplineSet
133.9175 296.154609375 m 0
 133.9175 602.216496297 223.829903395 761.001953125 393.134390625 761.001953125 c 0
 517.166927936 761.001953125 566.167148438 668.517219909 566.167148438 582.25753125 c 0
 566.167148438 224.293223893 29.69725 167.3945 29.69725 167.3945 c 1
 22.66975 232.9815 l 1
 22.66975 232.9815 497.240054688 279.733616426 497.240054688 577.552453125 c 0
 497.240054688 652.996170215 462.304693473 697.587820312 395.134390625 697.587820312 c 0
 261.336737854 697.587820312 205.275242188 540.802356394 205.275242188 311.93 c 0
 205.275242188 146.120973099 244.761180732 56.5333828124 394.88075 56.5333828124 c 0
 485.733189683 56.5333828124 542.930507812 98.2228046877 542.930507812 98.2228046877 c 1
 563 42 l 1
 563 42 506.412120871 -10 381.345390625 -10 c 0
 221.518864392 -10 133.9175 90.8090655939 133.9175 296.154609375 c 0
EndSplineSet
EndChar

StartChar: uni20B8
Encoding: 8376 8376 223
Width: 614
Flags: W
HStem: 0 21G<270.39 343.61> 487.156 65.6788<40 270.39 343.61 574> 487.156 35.6788<270.39 343.61> 665.321 65.6788<40 574>
VStem: 270.39 73.22<0 522.835>
LayerCount: 2
Fore
SplineSet
574 665.32125 m 1x98
 40 665.32125 l 1
 40 731 l 1
 574 731 l 1
 574 665.32125 l 1x98
574 487.15625 m 1xd8
 40 487.15625 l 1
 40 552.835 l 1
 574 552.835 l 1
 574 487.15625 l 1xd8
270.39 0 m 1
 270.39 522.835 l 1
 343.61 522.835 l 1xb8
 343.61 0 l 1
 270.39 0 l 1
EndSplineSet
EndChar

StartChar: uni20BC
Encoding: 8380 8380 224
Width: 839
Flags: W
HStem: 0 21G<71.9725 145.192 382.89 456.11 690.585 763.805> 483.168 67.8379<278.501 557.276> 711.008 20G<382.89 456.11>
VStem: 71.9725 73.22<0 351.957> 382.89 73.22<0 731.008> 690.585 73.22<0 351.957>
LayerCount: 2
Fore
SplineSet
417.888671875 551.005859375 m 0
 676.222221148 551.005859375 763.80484375 422.473306815 763.80484375 225.528789062 c 2
 763.80484375 0 l 1
 690.58484375 0 l 1
 690.58484375 195.528789062 l 2
 690.58484375 368.012121698 652.986736232 483.167945312 417.888671875 483.167945312 c 0
 182.790607518 483.167945312 145.1925 368.012121698 145.1925 195.528789062 c 2
 145.1925 0 l 1
 71.9725 0 l 1
 71.9725 225.528789062 l 2
 71.9725 422.473306815 159.555122602 551.005859375 417.888671875 551.005859375 c 0
382.89 0 m 1
 382.89 731.0078125 l 1
 456.11 731.0078125 l 1
 456.11 0 l 1
 382.89 0 l 1
EndSplineSet
EndChar

StartChar: Ohorn
Encoding: 416 416 225
Width: 804
Flags: W
HStem: -9.99805 69.3517<282.974 514.804> 669.769 69.3517<282.974 514.804>
VStem: 51.9725 74.0686<226.896 502.227> 640.542 67.2009<677.112 814.018> 671.736 74.0686<226.896 502.227>
LayerCount: 2
Fore
SplineSet
610.672216797 825.799804688 m 1xf0
 610.672216797 825.799804688 685.737695313 825.799804688 685.737695313 825.799804688 c 1
 685.737695313 825.799804688 707.742675781 795.200195312 707.742675781 738.9921875 c 0
 707.742675781 654.851437481 630.176513672 607.979052735 630.176513672 607.979052735 c 1
 630.176513672 607.979052735 588.893408203 641.360351562 588.893408203 641.360351562 c 1
 588.893408203 641.360351562 640.541748047 688 640.541748047 733.729492188 c 0
 640.541748047 790.55078125 610.672216797 825.799804688 610.672216797 825.799804688 c 1xf0
EndSplineSet
Refer: 1 79 N 1 0 0 1 0 0 2
EndChar

StartChar: ohorn
Encoding: 417 417 226
Width: 593
Flags: W
HStem: -9.99805 59.9297<205.841 382.978> 450.816 60.1172<203.04 385.702>
VStem: 51.9725 66.7384<145.1 359.477> 462.854 65.4212<467.112 604.018> 471.066 66.7384<144.394 359.736>
LayerCount: 2
Fore
SplineSet
432.98413086 615.799804688 m 1xf0
 506.26953125 615.799804688 l 1
 506.26953125 615.799804688 528.274853515 585.200195312 528.274853515 528.9921875 c 0
 528.274853515 444.851437481 450.70834961 397.979052735 450.70834961 397.979052735 c 1
 411.205664062 431.360351562 l 1
 411.205664062 431.360351562 462.853662109 478 462.853662109 523.729492188 c 0
 462.853662109 580.55078125 432.98413086 615.799804688 432.98413086 615.799804688 c 1xf0
EndSplineSet
Refer: 29 111 N 1 0 0 1 0 0 2
EndChar

StartChar: Uhorn
Encoding: 431 431 227
Width: 777
Flags: W
HStem: -9.99805 70.0489<245.031 470.746> 681.918 49.0903<611.028 654.058> 711.008 20G<71.9725 145.192 570.585 643.805>
VStem: 71.9725 73.22<165.664 731.008> 570.585 73.22<165.664 731.008> 658.835 71.1925<738.219 815.475>
LayerCount: 2
Fore
SplineSet
624.915078125 825.799804688 m 1xbc
 700.787265625 825.799804688 l 1
 700.787265625 825.799804688 730.0275 802.437528649 730.0275 758.9725 c 0
 730.0275 708.167005495 682.0275 681.9175 611.0275 681.9175 c 1xdc
 585.835 731.0078125 l 1
 619.835 731.0078125 658.835 732.480474404 658.835 770 c 0
 658.835 804 624.915078125 825.799804688 624.915078125 825.799804688 c 1xbc
EndSplineSet
Refer: 6 85 N 1 0 0 1 0 0 2
EndChar

